<?xml version="1.0" encoding="UTF-8"?>
                        <svg height="16px" width="10px" viewBox="0 0 11 18" version="1.1" xmlns="http://www.w3.org/2000/svg" xmlns:xlink="http://www.w3.org/1999/xlink">
                            <g id="Hotel-layout" stroke="none" stroke-width="1" fill="none" fill-rule="evenodd">
                                <g id="Room_Only_Detail_1" transform="translate(-135.000000, -4858.000000)" fill="#ffab53" fill-rule="nonzero">
                                    <g id="nearby-hotel" transform="translate(130.000000, 4334.000000)">
                                        <g id="h1-g" transform="translate(5.000000, 136.000000)">
                                            <g id="hotel-grid">
                                                <g id="price" transform="translate(0.000000, 383.000000)">
                                                    <g id="thunder" transform="translate(0.000000, 5.000000)">
                                                        <path d="M10.0143234,6.99308716 C9.91102517,6.83252576 9.73362166,6.73708716 9.54386728,6.73708716 L5.61404272,6.73708716 L5.61404272,0.561648567 C5.61404272,0.296666111 5.42877956,0.0676134793 5.16941114,0.0125959355 C4.90555149,-0.0435444154 4.64730587,0.0923152337 4.5395164,0.333718743 L0.0482883306,10.4389819 C-0.0291853536,10.6118942 -0.0123432484,10.8139994 0.0909549973,10.9723152 C0.194253243,11.1317538 0.371656752,11.2283152 0.561411138,11.2283152 L4.4912357,11.2283152 L4.4912357,17.4037538 C4.4912357,17.6687363 4.67649886,17.8977889 4.93586728,17.9528065 C4.97516552,17.9606661 5.01446377,17.9651573 5.05263921,17.9651573 C5.27046377,17.9651573 5.47369184,17.8382801 5.56576201,17.6316837 L10.0569901,7.5264205 C10.133341,7.35238541 10.1187445,7.15252576 10.0143234,6.99308716 Z" id="Shape"></path>
                                                    </g>
                                                </g>
                                            </g>
                                        </g>
                                    </g>
                                </g>
                            </g>
                        </svg>