<?xml version="1.0" encoding="UTF-8"?>
<svg width="80px" height="80px" viewBox="0 0 80 80" version="1.1" xmlns="http://www.w3.org/2000/svg" xmlns:xlink="http://www.w3.org/1999/xlink">
    <!-- Generator: Sketch 49 (51002) - http://www.bohemiancoding.com/sketch -->
    <title>ico_email_subscribe</title>
    <desc>Created with Sketch.</desc>
    <defs></defs>
    <g id="Symbols" stroke="none" stroke-width="1" fill="none" fill-rule="evenodd">
        <g id="subscribe" transform="translate(-230.000000, -85.000000)" fill="#A0A9B2" fill-rule="nonzero">
            <g id="ico_email_subscribe" transform="translate(230.000000, 85.000000)">
                <path d="M76.6250584,46.8922957 C73.5685603,46.5996887 70.6764202,45.6090272 68.0972763,44.3335409 L68.0972763,5.15610895 C68.0972763,4.20638132 67.8555642,3.28762646 67.4149416,2.49945525 C67.5847471,2.35330739 66.5554864,1.37229572 66.5715175,1.38754864 C65.7181323,0.548949416 64.6396887,0.140389105 63.6127626,0.155797665 C63.5970428,0.155797665 4.53696498,0.155019455 4.41494163,0.157198444 C1.92466926,0.191906615 0.0278599222,2.49883268 0.0278599222,5.15610895 L0.0278599222,16.3397665 C0.0278599222,16.9877043 0.553774319,17.513463 1.20171206,17.513463 C1.84964981,17.513463 2.3755642,16.9875486 2.3755642,16.3397665 C2.4818677,4.91533074 2.13431907,4.88964981 2.69494163,3.76544747 C3.10817121,4.29929961 1.99439689,3.35252918 24.9189105,19.505214 C25.1242023,19.6493385 25.3595331,19.7185992 25.5926848,19.7185992 C26.7302724,19.7185992 27.2085603,18.2446693 26.2683268,17.5842802 L4.80031128,2.50365759 C12.31393,2.50365759 57.4057588,2.50365759 63.328249,2.50365759 L34.6885603,22.6197665 C34.3201556,22.8785992 33.8056031,22.8787549 33.4368872,22.6197665 L30.1101946,20.2829572 C29.5794553,19.9101946 28.8474708,20.0381323 28.4750195,20.568716 C28.1024125,21.0992996 28.2303502,21.831284 28.7607782,22.2038911 C31.667393,24.0784436 32.3319844,25.1649805 34.0624125,25.1649805 C34.7730739,25.1649805 35.4560311,24.9491051 36.0376654,24.5407004 L65.4754864,3.86412451 C65.9961089,5.01743191 65.6498054,3.47424125 65.7497276,43.0549416 C60.5929961,39.9796109 57.1529961,36.1906615 56.9950195,36.0138521 C54.6140078,33.2309728 50.9579767,32.1461479 47.3120623,32.4782879 C46.7336965,30.0403113 44.539144,28.2200778 41.9270039,28.2200778 C38.8736187,28.2200778 36.3914397,30.7038132 36.3914397,33.755642 L36.3914397,34.1797665 C32.4281712,36.0582101 29.2596109,39.8624125 29.2549416,44.366537 C29.248716,44.5919066 29.1125292,48.9802335 27.5677821,54.1322957 L4.46941634,54.1322957 C3.33478599,54.1322957 2.37540856,52.917821 2.37540856,51.4795331 L2.37540856,21.0350195 C2.37540856,20.3855253 1.84949416,19.8611673 1.20155642,19.8611673 C0.553618677,19.8611673 0.0277042802,20.3855253 0.0277042802,21.0350195 L0.0277042802,51.4795331 C0.0277042802,54.2370428 2.01992218,56.4798444 4.4692607,56.4798444 L26.778677,56.4798444 C25.6127626,59.5864591 23.8974319,62.7807004 21.3792996,65.3817899 C19.3190661,67.5097276 20.8354864,71.0768872 23.8051362,71.0768872 L31.7319844,71.0768872 C32.953463,79.2012451 42.8158755,82.7067704 48.8908949,77.1288716 C49.6122957,77.0944747 50.3150195,76.8205447 50.9019455,76.3196887 L56.930428,71.176965 C60.7526848,74.5126848 66.6197665,74.5928405 70.5634241,71.0689494 C71.0470039,70.6370428 71.0877821,69.8950973 70.6557198,69.4115175 C70.2236576,68.9279377 69.4818677,68.8871595 68.9982879,69.3192218 C66.7656031,71.313463 63.7341634,71.8216342 61.0949416,70.9154864 C63.0910506,70.2787549 64.0566537,67.8784436 62.9666926,66.0278599 L70.6322179,59.4876265 C71.7614008,61.4933852 71.939144,63.8315953 71.2284825,65.9449027 C71.0203891,66.56 71.3505058,67.2250584 71.9640467,67.4333074 C72.5710506,67.6381323 73.2424903,67.3161089 73.4524514,66.6961868 C74.4384436,63.7783658 74.0835798,60.5727626 72.4445136,57.943035 L78.4745525,52.7987549 C80.7249805,50.8817121 79.5869261,47.1783658 76.6250584,46.8922957 Z M41.9268482,30.5674708 C43.3847471,30.5674708 44.6136965,31.551751 44.9909728,32.8898054 C44.7357198,32.9576654 44.4818677,33.0301946 44.2320623,33.1122179 C42.4160311,32.7601556 40.6054475,32.8233463 38.7701167,33.3063035 C38.9892607,31.7601556 40.3195331,30.5674708 41.9268482,30.5674708 Z M48.0944747,74.5635798 C43.8266148,79.7915953 35.4070039,77.6456031 34.115642,71.0767315 C35.6896498,71.0767315 48.0722179,71.0767315 49.7361868,71.0767315 C49.4810895,72.3803891 48.9036576,73.5715175 48.0944747,74.5635798 Z M51.8130739,72.458677 C51.9461479,72.0094942 52.0493385,71.5478599 52.1198444,71.0767315 L53.4328405,71.0767315 L51.8130739,72.458677 Z M60.0466926,68.7293385 C49.3148638,68.7293385 34.4944747,68.7293385 23.8052918,68.7293385 C22.9078599,68.7293385 22.4502724,67.6522957 23.0666148,67.0155642 C26.0856031,63.8949416 28.0387549,60.0809339 29.2985214,56.4798444 C31.5203113,50.162179 31.6004669,44.395642 31.602179,44.3789883 C31.602179,38.5503502 39.5385214,32.5143969 47.0428016,36.6305058 C52.5889494,39.6809339 52.2404669,44.3718288 52.2512062,44.4009339 C52.2893385,46.7284047 52.8149416,50.5674708 53.8130739,54.1322957 C54.9929961,58.3131518 56.8496498,62.4052918 59.6600778,65.7635798 C60.7727626,67.100856 61.0426459,67.111284 61.0686381,67.6479377 C61.0957198,68.1690272 60.7067704,68.7293385 60.0466926,68.7293385 Z M76.9520623,51.0130739 C75.1554864,52.5458366 61.5106615,64.1863035 61.4488716,64.2390661 C57.0530739,58.9632685 54.7788327,50.6180545 54.5987549,44.3663813 C54.5925292,40.3195331 52.0379767,36.8144747 48.5656031,34.766537 C48.6896498,34.7908171 52.6684825,34.5593774 55.216965,37.5475486 C60.1614008,43.0697276 68.3971984,48.4659922 76.4012451,49.2289494 C77.290428,49.3154864 77.6298833,50.433463 76.9520623,51.0130739 Z" id="Shape"></path>
            </g>
        </g>
    </g>
</svg>