<svg height="20px" width="20px" viewBox="0 0 23 25" version="1.1" xmlns="http://www.w3.org/2000/svg" xmlns:xlink="http://www.w3.org/1999/xlink">
    <!-- Generator: Sketch 49 (51002) - http://www.bohemiancoding.com/sketch -->
    <title>ico_fullname_signup</title>
    <desc>Created with Sketch.</desc>
    <defs></defs>
    <g id="Hotel-layout" stroke="none" stroke-width="1" fill="none" fill-rule="evenodd" stroke-linecap="round" stroke-linejoin="round">
        <g id="Sign-Up" transform="translate(-914.000000, -295.000000)" stroke="#A0A9B2">
            <g id="sign-up" transform="translate(466.000000, 80.000000)">
                <g id="input" transform="translate(30.000000, 199.000000)">
                    <g id="Group" transform="translate(418.000000, 17.000000)">
                        <g id="ico_fullname_signup">
                            <path d="M14.5,23.5 L14.5,20.5 L15.5,20.5 C17.1568542,20.5 18.5,19.1568542 18.5,17.5 L18.5,14.5 L21.313,14.5 C21.4719994,14.4989403 21.6210158,14.4223193 21.7143842,14.2936169 C21.8077526,14.1649146 21.8343404,13.9994766 21.786,13.848 C19.912,8.048 18.555,1.813 12.366,0.681 C9.63567371,0.151893606 6.80836955,0.784892205 4.56430871,2.42770265 C2.32024786,4.07051309 0.862578016,6.57441697 0.542,9.337 C0.21983037,12.7556062 1.72416582,16.0907612 4.5,18.112 L4.5,23.5" id="Shape"></path>
                            <path d="M7.5,8 C7.49875423,6.44186837 8.69053402,5.14214837 10.2429354,5.00863533 C11.7953368,4.87512228 13.1915367,5.95226513 13.4563532,7.48772858 C13.7211696,9.02319203 12.7664402,10.5057921 11.259,10.9 C10.8242888,10.9952282 10.5108832,11.3751137 10.5,11.82 L10.5,13.5" id="Shape"></path>
                            <path d="M10.5,15.5 C10.6380712,15.5 10.75,15.6119288 10.75,15.75 C10.75,15.8880712 10.6380712,16 10.5,16 C10.3619288,16 10.25,15.8880712 10.25,15.75 C10.25,15.6119288 10.3619288,15.5 10.5,15.5" id="Shape"></path>
                        </g>
                    </g>
                </g>
            </g>
        </g>
    </g>
</svg>