<?xml version="1.0" encoding="utf-8"?>
<!-- Generator: Adobe Illustrator 16.0.2, SVG Export Plug-In . SVG Version: 6.00 Build 0)  -->
<!DOCTYPE svg PUBLIC "-//W3C//DTD SVG 1.1//EN" "http://www.w3.org/Graphics/SVG/1.1/DTD/svg11.dtd">
<svg version="1.1" id="svg-editor-canvas" xmlns="http://www.w3.org/2000/svg" xmlns:xlink="http://www.w3.org/1999/xlink" x="0px"
	 y="0px" width="54.334px" height="54.334px" viewBox="6.499 87.5 54.334 54.334"
	 enable-background="new 6.499 87.5 54.334 54.334" xml:space="preserve">
	<g id="logo__item--logo_0">
		<g>
			<g>
				<path fill="#1A2B47" d="M42.934,121.053l-1.633-1.063c-2.165,2.545-5.09,4.444-8.584,5.318
					c-8.773,2.126-17.661-3.267-19.788-12.079c-2.127-8.773,3.266-17.661,12.078-19.788c8.735-2.127,17.623,3.266,19.75,12.04
					c0.988,4.102,0.342,8.204-1.52,11.66l1.558,1.025h0.038c1.633-3.039,2.696-5.963,2.696-8.432c0-10.444-8.47-18.914-18.914-18.914
					C18.17,90.82,9.7,99.29,9.7,109.734c0,10.445,18.915,28.866,18.915,28.866s8.697-8.508,14.319-17.206
					C42.934,121.281,42.934,121.167,42.934,121.053z"/>
				<g>
					<path fill="#FA5636" d="M41.832,106.202c-1.747-7.178-8.963-11.584-16.142-9.837c-7.178,1.747-11.584,8.964-9.837,16.142
						s8.963,11.584,16.142,9.837C39.135,120.597,43.541,113.381,41.832,106.202z M38.224,114.672c0,0.835-0.684,1.519-1.519,1.519
						H21.132c-0.835,0-1.519-0.684-1.519-1.519v-9.875c0-0.835,0.684-1.519,1.519-1.519h4.786v-0.341
						c0-1.216,0.987-2.203,2.203-2.203h1.937c1.215,0,2.203,0.987,2.203,2.203v0.341h4.481c0.836,0,1.52,0.684,1.52,1.519v9.875
						H38.224z"/>
					<path fill="#FA5636" d="M30.058,101.531h-1.937c-0.759,0-1.405,0.607-1.405,1.405v0.341h4.748v-0.341
						C31.463,102.139,30.817,101.531,30.058,101.531z"/>
				</g>
			</g>
		</g>
	</g>
</svg>