<svg width="71" height="71" viewBox="0 0 71 71" fill="none" xmlns="http://www.w3.org/2000/svg">
<circle cx="35.8684" cy="35.6279" r="34" stroke="black" stroke-width="2"/>
<path d="M35.2162 50.6279C35.0284 50.6279 34.8497 50.5471 34.7271 50.4075C34.4897 50.1375 34.5158 49.724 34.7858 49.4866L49.7871 36.2801H21.5206C21.1606 36.2801 20.8684 35.9879 20.8684 35.6279C20.8684 35.2679 21.1606 34.9758 21.5206 34.9758H49.7845L34.7845 21.7692C34.6541 21.6545 34.5758 21.4953 34.5641 21.3218C34.5536 21.1484 34.611 20.9801 34.7258 20.8497C34.8497 20.7088 35.0284 20.6279 35.2149 20.6279C35.3741 20.6279 35.5267 20.6853 35.6454 20.791L50.8332 34.1618C50.8945 34.2166 50.9532 34.274 51.008 34.3366C51.2923 34.6588 51.4567 35.0605 51.4841 35.5014C51.4932 35.5353 51.501 35.5771 51.501 35.6279C51.501 35.6618 51.4971 35.6905 51.4919 35.7127C51.4919 35.7245 51.4919 35.7362 51.4919 35.7492C51.4593 36.2736 51.2245 36.751 50.8332 37.0966L35.6467 50.4662C35.528 50.5705 35.3741 50.6279 35.2162 50.6279Z" fill="#1A2B48" stroke="black"/>
</svg>
