<svg width="71" height="71" viewBox="0 0 71 71" fill="none" xmlns="http://www.w3.org/2000/svg">
<circle cx="35.8684" cy="35.6279" r="34" stroke="black" stroke-width="2"/>
<path d="M37.1532 20.6279C37.341 20.6279 37.5197 20.7088 37.6423 20.8484C37.8797 21.1184 37.8536 21.5318 37.5836 21.7692L22.5823 34.9758L50.8488 34.9758C51.2088 34.9758 51.501 35.2679 51.501 35.6279C51.501 35.9879 51.2088 36.2801 50.8488 36.2801L22.5849 36.2801L37.5849 49.4866C37.7153 49.6014 37.7936 49.7605 37.8053 49.934C37.8158 50.1075 37.7584 50.2758 37.6436 50.4062C37.5197 50.5471 37.341 50.6279 37.1545 50.6279C36.9953 50.6279 36.8427 50.5705 36.724 50.4649L21.5362 37.094C21.4749 37.0392 21.4162 36.9818 21.3614 36.9192C21.0771 36.5971 20.9127 36.1953 20.8853 35.7544C20.8762 35.7205 20.8684 35.6788 20.8684 35.6279C20.8684 35.594 20.8723 35.5653 20.8775 35.5431C20.8775 35.5314 20.8775 35.5197 20.8775 35.5066C20.9101 34.9823 21.1449 34.5049 21.5362 34.1592L36.7227 20.7897C36.8414 20.6853 36.9953 20.6279 37.1532 20.6279Z" fill="#1A2B48" stroke="black"/>
</svg>
