<?xml version="1.0" encoding="iso-8859-1"?>
<!-- Generator: Adobe Illustrator 19.0.0, SVG Export Plug-In . SVG Version: 6.00 Build 0)  -->
<svg version="1.1" id="Layer_1" xmlns="http://www.w3.org/2000/svg" xmlns:xlink="http://www.w3.org/1999/xlink" x="0px" y="0px"
	 viewBox="0 0 512 512" style="enable-background:new 0 0 512 512;" xml:space="preserve">
<g>
	<g>
		<path d="M469.333,235.755V74.667c0-29.397-23.915-53.333-53.333-53.333H96c-29.419,0-53.333,23.936-53.333,53.333v161.088
			C18.347,240.704,0,262.272,0,288v85.333v64V480c0,5.888,4.779,10.667,10.667,10.667S21.333,485.888,21.333,480v-32h469.333v32
			c0,5.888,4.779,10.667,10.667,10.667c5.888,0,10.667-4.779,10.667-10.667v-42.667v-64V288
			C512,262.251,493.653,240.704,469.333,235.755z M64,74.667c0-17.643,14.357-32,32-32h320c17.643,0,32,14.357,32,32v160h-76.096
			c9.685-12.907,13.12-29.205,9.195-44.928l-10.667-42.667c-5.973-23.787-27.243-40.405-51.755-40.405H193.301
			c-24.533,0-45.803,16.619-51.755,40.405l-10.667,42.667c-3.925,15.723-0.512,32.021,9.195,44.928H64V74.667z M354.603,222.357
			c-6.123,7.829-15.317,12.309-25.237,12.309H182.656c-9.92,0-19.115-4.48-25.237-12.309c-6.101-7.829-8.213-17.835-5.803-27.456
			l10.667-42.667c3.563-14.272,16.341-24.235,31.04-24.235h125.376c14.699,0,27.477,9.963,31.04,24.235l10.667,42.667
			C362.837,204.544,360.704,214.549,354.603,222.357z M490.667,426.667H21.333V384h469.333V426.667z M490.667,362.667H21.333V288
			c0-17.643,14.357-32,32-32h129.301h146.709h129.323c17.643,0,32,14.357,32,32V362.667z"/>
	</g>
</g>
<g>
</g>
<g>
</g>
<g>
</g>
<g>
</g>
<g>
</g>
<g>
</g>
<g>
</g>
<g>
</g>
<g>
</g>
<g>
</g>
<g>
</g>
<g>
</g>
<g>
</g>
<g>
</g>
<g>
</g>
</svg>
