<?xml version="1.0" encoding="iso-8859-1"?>
<!-- Generator: Adobe Illustrator 19.0.0, SVG Export Plug-In . SVG Version: 6.00 Build 0)  -->
<svg version="1.1" id="Capa_1" xmlns="http://www.w3.org/2000/svg" xmlns:xlink="http://www.w3.org/1999/xlink" x="0px" y="0px"
	 viewBox="0 0 508 508" style="enable-background:new 0 0 508 508;" xml:space="preserve">
<g>
	<g>
		<rect x="245.8" y="319.5" width="16.4" height="16.4"/>
	</g>
</g>
<g>
	<g>
		<rect x="278.6" y="319.5" width="16.4" height="16.4"/>
	</g>
</g>
<g>
	<g>
		<rect x="213" y="319.5" width="16.4" height="16.4"/>
	</g>
</g>
<g>
	<g>
		<path d="M483.4,237.6H81.9V32.8c0-4.5,3.7-8.2,8.2-8.2h41c4.5,0,8.2,3.7,8.2,8.2v17.1c-23.2,3.9-41,24.1-41,48.4v8.2h98.3v-8.2
			c0-24.3-17.8-44.5-41-48.4V32.8c0-13.6-11-24.6-24.6-24.6H90c-13.6,0-24.6,11-24.6,24.6v204.8h-41C11,237.6,0,248.6,0,262.2
			c0,13.6,11,24.6,24.6,24.6v65.5c0,47.3,31,87.4,73.7,101.3v29.8H49.2v16.4h409.7v-16.4h-49.2v-29.8c42.7-13.9,73.7-54,73.7-101.3
			v-65.5c13.6,0,24.6-11,24.6-24.6C508,248.6,497,237.6,483.4,237.6z M179.2,90.1h-63.5c3.6-14.1,16.5-24.6,31.7-24.6
			C162.7,65.5,175.6,76,179.2,90.1z M393.3,483.4H114.7v-26c5.4,0.8,10.8,1.4,16.4,1.4h245.8c5.6,0,11-0.6,16.4-1.4V483.4z
			 M467,352.3c0,49.7-40.4,90.1-90.1,90.1H131.1C81.4,442.5,41,402,41,352.3v-65.5h426V352.3z M483.4,270.4H24.6
			c-4.5,0-8.2-3.7-8.2-8.2s3.7-8.2,8.2-8.2h458.8c4.5,0,8.2,3.7,8.2,8.2C491.6,266.7,487.9,270.4,483.4,270.4z"/>
	</g>
</g>
<g>
</g>
<g>
</g>
<g>
</g>
<g>
</g>
<g>
</g>
<g>
</g>
<g>
</g>
<g>
</g>
<g>
</g>
<g>
</g>
<g>
</g>
<g>
</g>
<g>
</g>
<g>
</g>
<g>
</g>
</svg>
