<?xml version="1.0" encoding="iso-8859-1"?>
<!-- Generator: Adobe Illustrator 19.0.0, SVG Export Plug-In . SVG Version: 6.00 Build 0)  -->
<svg version="1.1" id="Capa_1" xmlns="http://www.w3.org/2000/svg" xmlns:xlink="http://www.w3.org/1999/xlink" x="0px" y="0px"
	 viewBox="0 0 508.095 508.095" style="enable-background:new 0 0 508.095 508.095;" xml:space="preserve">
<g>
	<g>
		<path d="M458.586,213.447l-26.8-89.3c-13.7-45.8-55-76.5-102.8-76.5h-149.9c-47.8-0.1-89.1,30.7-102.8,76.4l-26.8,89.3
			c-38.8,6-51.2,42.4-49.3,59.6l3.5,66.7c1.6,38.1,31.3,68.2,68.7,71v25c0,13.7,11.1,24.8,24.8,24.8h33c13.7,0,24.8-11.1,24.8-24.8
			v-24.8h198.2v24.8c0,13.7,11.1,24.8,24.8,24.8h33c13.7,0,24.8-11.1,24.8-24.8v-25c37.4-2.8,67.1-32.9,68.7-70.9l3.5-66.8
			C509.386,255.247,497.486,219.747,458.586,213.447z M92.086,128.847c11.6-38.7,46.6-64.7,87-64.7h149.8c40.4,0,75.4,26,87,64.7
			l25.2,83.9h-374.2L92.086,128.847z M130.086,444.047h-33c-4.6,0-8.3-3.7-8.3-8.3v-24.8h49.5v24.8h0.1
			C138.386,440.347,134.686,444.047,130.086,444.047z M410.886,444.047h-33c-4.6,0-8.3-3.7-8.3-8.3v-24.8h49.5v24.8h0.1
			C419.186,440.347,415.486,444.047,410.886,444.047z M491.386,272.147l-3.5,66.9c-1.3,31.1-26.7,55.4-57.8,55.4h-352.2
			c-31.1,0-56.5-24.3-57.8-55.5l-3.5-66.7c-0.5-11.3,5.6-40.7,41.3-43h392.2C483.786,230.847,492.886,259.847,491.386,272.147z"/>
	</g>
</g>
<g>
	<g>
		<path d="M97.086,270.547c-22.8,0-41.3,18.5-41.3,41.3s18.5,41.3,41.3,41.3c22.8,0,41.3-18.5,41.3-41.3
			S119.886,270.547,97.086,270.547z M97.086,336.647c-13.7,0-24.8-11.1-24.8-24.8s11.1-24.8,24.8-24.8c13.7,0,24.8,11.1,24.8,24.8
			C121.886,325.547,110.786,336.647,97.086,336.647z"/>
	</g>
</g>
<g>
	<g>
		<path d="M410.886,270.547c-22.8,0-41.3,18.5-41.3,41.3s18.5,41.3,41.3,41.3s41.3-18.5,41.3-41.3S433.686,270.547,410.886,270.547z
			 M410.886,336.647c-13.7,0-24.8-11.1-24.8-24.8s11.1-24.8,24.8-24.8s24.8,11.1,24.8,24.8
			C435.686,325.547,424.586,336.647,410.886,336.647z"/>
	</g>
</g>
<g>
	<g>
		<path d="M179.686,287.047v66.1h148.6v-66.1H179.686z M311.786,336.547h-115.6v-33h115.6V336.547z"/>
	</g>
</g>
<g>
</g>
<g>
</g>
<g>
</g>
<g>
</g>
<g>
</g>
<g>
</g>
<g>
</g>
<g>
</g>
<g>
</g>
<g>
</g>
<g>
</g>
<g>
</g>
<g>
</g>
<g>
</g>
<g>
</g>
</svg>
