<?xml version="1.0" encoding="iso-8859-1"?>
<!-- Generator: Adobe Illustrator 19.0.0, SVG Export Plug-In . SVG Version: 6.00 Build 0)  -->
<svg version="1.1" id="Capa_1" xmlns="http://www.w3.org/2000/svg" xmlns:xlink="http://www.w3.org/1999/xlink" x="0px" y="0px"
	 viewBox="0 0 512 512" style="enable-background:new 0 0 512 512;" xml:space="preserve">
<path style="fill:#EDF2FA;" d="M31.997,444V193.509c0-20.708,16.787-37.494,37.494-37.494H112.5H405h37.502
	c20.708,0,37.495,16.787,37.495,37.494V444"/>
<circle style="fill:#72D8FF;" cx="256" cy="313.04" r="93"/>
<path style="fill:#D8D8E4;" d="M324.142,446H502l0,0v18.253C502,485.1,485.1,502,464.254,502H47.746C26.9,502,10,485.1,10,464.254
	V446h177.847H324.142z"/>
<path style="fill:#72D8FF;" d="M473.629,47.613l0.066,2.792c0,28.478-21.687,61.324-61.332,61.324
	c-12.186,0-23.51-3.556-33.068-9.681c1.7,0.189,3.399,0.287,5.132,0.287c10.1,0,19.404-3.432,26.786-9.205
	c-16.429,0-27.681-18.596-27.681-32.637V60.14c3.915,2.162,8.35,3.497,13.092,3.618c-7.754-5.162-12.883-14.041-12.883-24.078
	c0-5.305,1.423-10.302,3.927-14.57c10.968,13.446,26.063,23.339,43.365,27.773l0.035-0.071c-0.353-1.577-0.55-3.211-0.55-4.911
	c0-11.899,9.657-21.555,21.555-21.555c6.191,0,11.808,2.628,15.717,6.799l12.207,0.002L473.629,47.613z"/>
<path d="M394.5,436c-5.523,0-9.995,4.478-9.995,10s4.482,10,10.005,10s10-4.478,10-10s-4.477-10-10-10H394.5z"/>
<path d="M502,436h-12.003V193.509c0-26.188-21.306-47.495-47.495-47.495H405c-5.523,0-10,4.478-10,10s4.477,10,10,10h37.502
	c15.161,0,27.495,12.334,27.495,27.495V436h-27.499c-5.523,0-10,4.478-10,10s4.477,10,10,10H492v8.254
	C492,479.553,479.553,492,464.253,492H47.747C32.447,492,20,479.553,20,464.254V456h329.735c5.523,0,10-4.478,10-10s-4.477-10-10-10
	H41.997V193.509c0-15.161,12.334-27.495,27.494-27.495H112.5c5.523,0,10-4.478,10-10s-4.477-10-10-10H69.491
	c-26.188,0-47.494,21.307-47.494,47.495V436H10c-5.523,0-10,4.478-10,10v18.254C0,490.581,21.419,512,47.747,512h416.507
	C490.581,512,512,490.581,512,464.254V446C512,440.478,507.523,436,502,436z"/>
<path d="M234.167,464c-5.523,0-10,4.478-10,10s4.477,10,10,10h44.167c5.523,0,10-4.478,10-10s-4.477-10-10-10H234.167z"/>
<path d="M256,416.037c56.794,0,103-46.205,103-102.999s-46.206-102.999-103-102.999s-103,46.205-103,102.999
	S199.206,416.037,256,416.037z M182.761,352.038h14.677v5.414c0,5.787,0.857,11.375,2.427,16.658
	C192.997,367.792,187.197,360.334,182.761,352.038z M294.562,274.038H266v-42.653c16.429,4.417,28.562,19.434,28.562,37.239V274.038
	z M339,313.038c0,6.538-0.784,12.894-2.22,19h-22.218v-38h22.218C338.216,300.145,339,306.5,339,313.038z M294.562,332.038H266v-38
	h28.562V332.038z M217.438,352.038H246v42.653c-16.429-4.417-28.562-19.434-28.562-37.239V352.038z M266,394.691v-42.653h28.562
	v5.414C294.562,375.257,282.429,390.274,266,394.691z M246,231.385v42.653h-28.562v-5.414
	C217.438,250.82,229.571,235.802,246,231.385z M246,294.038v38h-28.562v-38H246z M197.438,332.038H175.22
	c-1.436-6.106-2.22-12.462-2.22-19s0.784-12.894,2.22-19h22.218V332.038z M312.134,374.11c1.571-5.283,2.427-10.871,2.427-16.658
	v-5.414h14.677C324.803,360.334,319.003,367.792,312.134,374.11z M329.239,274.038h-14.677v-5.414
	c0-5.787-0.857-11.375-2.427-16.658C319.003,258.284,324.803,265.742,329.239,274.038z M199.866,251.966
	c-1.571,5.283-2.427,10.871-2.427,16.658v5.414h-14.677C187.197,265.742,192.997,258.284,199.866,251.966z"/>
<path d="M266,169v-32.013c0-5.522-4.477-10-10-10s-10,4.478-10,10V169c0,5.522,4.477,10,10,10C261.523,179,266,174.522,266,169z"/>
<path d="M144.09,119.91c-2.63,0-5.21,1.06-7.07,2.93c-1.86,1.86-2.93,4.43-2.93,7.07c0,2.63,1.07,5.199,2.93,7.069
	c1.86,1.86,4.44,2.931,7.07,2.931s5.21-1.07,7.07-2.931c1.87-1.87,2.93-4.439,2.93-7.069c0-2.641-1.06-5.21-2.93-7.07
	C149.3,120.97,146.73,119.91,144.09,119.91z"/>
<path d="M161.274,147.088c-3.905,3.905-3.905,10.237,0,14.143l26.748,26.747c1.953,1.952,4.512,2.929,7.071,2.929
	s5.119-0.977,7.071-2.929c3.905-3.905,3.905-10.237,0-14.143l-26.748-26.747C171.511,143.184,165.18,143.184,161.274,147.088z"/>
<path d="M315.573,192.24c2.559,0,5.119-0.977,7.071-2.929l39.333-39.334c3.905-3.905,3.905-10.237,0-14.143
	c-3.905-3.904-10.237-3.904-14.142,0l-39.333,39.334c-3.905,3.905-3.905,10.237,0,14.143
	C310.455,191.264,313.014,192.24,315.573,192.24z"/>
<path d="M245.998,56H246v39.821c0,5.522,4.477,10,10,10c5.523,0,10-4.478,10-10V56h13.576c5.523,0,10-4.478,10-10s-4.477-10-10-10
	H266v-2.691C266,25.971,271.97,20,279.309,20h3.482c5.523,0,10-4.478,10-10s-4.477-10-10-10h-3.482C260.942,0,246,14.942,246,33.309
	V36h-0.002c-5.523,0-10,4.478-10,10S240.475,56,245.998,56z"/>
<path d="M373.898,110.467c11.496,7.368,24.796,11.263,38.464,11.263c20.914,0,39.749-8.3,53.034-23.37
	c11.628-13.19,18.298-30.669,18.298-47.954c0-0.078-0.001-0.156-0.003-0.234l-0.013-0.566l5.471-12.429
	c1.361-3.093,1.069-6.663-0.777-9.492c-1.846-2.83-4.996-4.536-8.374-4.537l-8.355-0.001c-5.529-4.362-12.447-6.8-19.57-6.8
	c-14.343,0-26.481,9.618-30.304,22.744c-10.17-4.573-19.14-11.459-26.353-20.302c-2.07-2.537-5.244-3.898-8.518-3.649
	c-3.265,0.252-6.201,2.087-7.857,4.912c-3.468,5.913-5.301,12.7-5.301,19.629c0,4.74,0.854,9.355,2.461,13.658
	c-1.693,1.824-2.67,4.244-2.67,6.803v0.353c0,11.303,5.082,23.357,13.358,31.755c-2.135,0.151-4.273,0.106-6.493-0.14
	c-4.619-0.508-8.979,2.225-10.529,6.603C368.317,103.09,369.987,107.96,373.898,110.467z M428.551,62.57
	c4.579,1.172,9.394-1.094,11.486-5.336c1.01-2.048,1.289-4.379,0.79-6.607c-0.208-0.928-0.309-1.82-0.309-2.727
	c0-6.371,5.184-11.555,11.555-11.555c3.186,0,6.254,1.325,8.419,3.636c1.206,1.287,2.716,2.219,4.37,2.725l-0.386,0.878
	c-0.591,1.343-0.879,2.798-0.845,4.264l0.063,2.669c-0.054,20.428-14.705,48.767-47.067,51.063c0.25-0.188,0.498-0.379,0.746-0.572
	c3.361-2.629,4.685-7.102,3.294-11.136s-5.188-6.742-9.455-6.742c-5.566,0-10.373-4.181-13.563-9.425
	c3.922-0.402,7.295-3.095,8.509-6.931c1.344-4.247-0.284-8.872-3.993-11.341c-3.443-2.292-5.981-5.598-7.328-9.384
	C404.751,53.781,416.152,59.393,428.551,62.57z"/>
<path d="M84.222,121.381c25.192,0,45.688-20.496,45.688-45.688c0-5.522-4.477-10-10-10H94.927c-5.523,0-10,4.478-10,10
	s4.477,10,10,10h12.956c-3.908,9.211-13.042,15.688-23.662,15.688c-14.165,0-25.688-11.523-25.688-25.688
	c0-14.164,11.523-25.688,25.688-25.688c5.523,0,10-4.478,10-10s-4.477-10-10-10c-25.192,0-45.688,20.495-45.688,45.688
	S59.029,121.381,84.222,121.381z"/>
<path d="M140.702,49.284h4.174v4.174c0,5.522,4.477,10,10,10s10-4.478,10-10v-4.174h4.174c5.523,0,10-4.478,10-10s-4.477-10-10-10
	h-4.174v-4.175c0-5.522-4.477-10-10-10s-10,4.478-10,10v4.175h-4.174c-5.523,0-10,4.478-10,10S135.179,49.284,140.702,49.284z"/>
<path d="M438.079,312.623c0-5.522-4.477-10-10-10H394.5c-5.523,0-10,4.478-10,10s4.477,10,10,10h33.579
	C433.602,322.623,438.079,318.146,438.079,312.623z"/>
<path d="M86.331,302.623c-5.523,0-10,4.478-10,10s4.477,10,10,10h33.579c5.523,0,10-4.478,10-10s-4.477-10-10-10H86.331z"/>
<g>
</g>
<g>
</g>
<g>
</g>
<g>
</g>
<g>
</g>
<g>
</g>
<g>
</g>
<g>
</g>
<g>
</g>
<g>
</g>
<g>
</g>
<g>
</g>
<g>
</g>
<g>
</g>
<g>
</g>
</svg>
