<svg height="512pt" viewBox="-73 0 512 512" width="512pt" xmlns="http://www.w3.org/2000/svg"><path d="m356 186c0 93.890625-173 316-173 316s-173-222.109375-173-316 79.109375-176 173-176 173 82.109375 173 176zm0 0" fill="#ff637b"/><path d="m183 66c-69.214844 0-120 56.535156-120 120 0 66.171875 53.828125 120 120 120 65.449219 0 120-52.96875 120-120 0-66.171875-53.828125-120-120-120zm0 0" fill="#ececf1"/><path d="m182.28125 214.589844 30.789062 16.179687-5.878906-34.28125 24.910156-24.289062-34.429687-5-15.390625-31.199219-15.402344 31.199219-34.429687 5 24.910156 24.289062-5.878906 34.28125zm0 0" fill="#ffda2d"/><path d="m103 106c5.519531 0 10-4.480469 10-10 0-5.445312-4.425781-10-10-10-5.519531 0-10 4.480469-10 10 0 5.5625 4.539062 10 10 10zm0 0"/><path d="m183 512c3.082031 0 5.992188-1.421875 7.890625-3.855469 7.148437-9.179687 175.109375-225.925781 175.109375-322.144531 0-97.34375-81.574219-186-183-186-101.324219 0-183 88.546875-183 186 0 96.21875 167.960938 312.964844 175.109375 322.144531 1.898437 2.433594 4.808594 3.855469 7.890625 3.855469zm-163-326c0-88.429688 76.167969-166 163-166s163 77.570312 163 166c0 74.410156-118.148438 240.070312-163 299.515625-45.175781-59.863281-163-225.292969-163-299.515625zm0 0"/><path d="m313 186c0-71.683594-58.316406-130-130-130-17.066406 0-32.828125 3.125-49.605469 9.835938-5.125 2.050781-7.621093 7.871093-5.570312 13 2.054687 5.125 7.871093 7.621093 13 5.570312 14.53125-5.8125 27.539062-8.40625 42.175781-8.40625 60.652344 0 110 49.347656 110 110s-49.347656 110-110 110-110-49.347656-110-110c0-18.824219 4.722656-36.898438 14.03125-53.730469 2.671875-4.832031.921875-10.914062-3.910156-13.589843-4.832032-2.671876-10.917969-.921876-13.589844 3.910156-10.96875 19.824218-16.53125 41.160156-16.53125 63.410156 0 71.683594 58.316406 130 130 130s130-58.316406 130-130zm0 0"/><path d="m146.613281 199.980469-4.988281 29.097656c-.644531 3.75.898438 7.542969 3.976562 9.78125 3.078126 2.238281 7.160157 2.535156 10.53125.761719l26.144532-13.734375 26.140625 13.734375c3.371093 1.773437 7.453125 1.476562 10.53125-.761719s4.621093-6.03125 3.976562-9.78125l-4.988281-29.097656 21.144531-20.621094c2.726563-2.660156 3.703125-6.632813 2.527344-10.25-1.175781-3.621094-4.304687-6.257813-8.070313-6.804687l-29.226562-4.246094-13.0625-26.484375c-1.6875-3.414063-5.160156-5.574219-8.96875-5.574219s-7.285156 2.160156-8.96875 5.574219l-13.074219 26.484375-29.226562 4.246094c-3.765625.546874-6.894531 3.183593-8.070313 6.804687-1.179687 3.621094-.199218 7.59375 2.527344 10.25zm21.703125-22.882813c3.257813-.476562 6.074219-2.519531 7.53125-5.472656l6.429688-13.027344 6.421875 13.027344c1.457031 2.953125 4.273437 4.996094 7.53125 5.472656l14.382812 2.085938-10.402343 10.144531c-2.359376 2.300781-3.433594 5.609375-2.875 8.851563l2.453124 14.3125-12.855468-6.753907c-2.914063-1.53125-6.394532-1.53125-9.304688 0l-12.867187 6.757813 2.457031-14.316406c.554688-3.242188-.519531-6.550782-2.875-8.851563l-10.40625-10.144531zm0 0"/></svg>