<svg enable-background="new 0 0 110 110" height="54" viewBox="0 0 110 110" width="54" xmlns="http://www.w3.org/2000/svg"><path d="m55.0000305 11.6408691c-16.5039062 0-29.8829346 13.3789062-29.8829346 29.8823242 0 13.9057617 21.2153931 46.0200195 27.8946533 55.7856445.9576416 1.4003906 3.0189209 1.4003906 3.9765625 0 6.6791992-9.765625 27.8945923-41.8798828 27.8945923-55.7856445.0000001-16.5034179-13.3789672-29.8823242-29.8828735-29.8823242z" fill="#de594e"/><ellipse cx="55" cy="41.104" fill="#ededed" rx="19.571" ry="19.571" transform="matrix(.999 -.033 .033 .999 -1.337 1.853)"/><path d="m66.3963013 41.577034 1.6655121-.2160873v-1.6161194l-1.6651459-.2161674c-.0000229-.0003433-.0000458-.0005989-.0000687-.0009384-.0733566-.8278427-.2340088-1.6277161-.4715424-2.3926277-.0001068-.0003395-.0002136-.0005989-.0003204-.0009384l1.4520493-.8348351-.6184692-1.4930687-1.6232452.4381409c-.3769531-.725769-.8340607-1.4026794-1.3538742-2.0239029l1.0262985-1.3324108-1.1427841-1.1427612-1.332283 1.0261917c-.0005112-.0004253-.0009804-.0009384-.0014915-.0013638-.6217155-.5204296-1.2993279-.9745159-2.0223465-1.3552647-.0003624-.0001717-.0007439-.0003414-.0011063-.000597l.4376068-1.6212349-1.4931145-.6184959-.8362389 1.454525c-.0000877 0-.0001945-.0000858-.0002785-.0000858-.7644653-.237318-1.5637817-.3978901-2.3910942-.4713116l-.2163162-1.6666851h-1.6161194l-.21632 1.6666012c-.8274384.0732498-1.6269073.2339058-2.3915405.4712257l-.8360939-1.4542694-1.4930878.6184959.4375 1.6208076c-.0006599.0003414-.0013657.0006828-.0020256.0010242-.7230186.3807487-1.400631.8348351-2.0223465 1.3552647-.0003624.0003414-.000679.0006809-.0010414.0009384l-1.3317299-1.0257664-1.1427612 1.1427612 1.0257835 1.3318157c-.5203629.6216507-.9743195 1.2991524-1.3550072 2.02211-.0002975.0005112-.0005531.001194-.0008545.0017052l-1.6207657-.437458-.6184502 1.4930687 1.4541168.8360291c-.2374878.7648239-.3981247 1.5646133-.4714584 2.3923721-.0000229.0001678-.0000229.0004234-.000042.0005951l-1.6676674.2165108v1.6161194l1.6680489.2164268c.0734634.8268204.2339516 1.6257553.4711838 2.3897285.0000229.0000839.000042.0000839.0000648.0001717l-1.4542465.8360291.6184502 1.4931526 1.6210022-.437542c.0002136.0004234.0004044.0008507.000618.0012779.3807297.7230415.8347931 1.400631 1.3552208 2.0223656.0003853.0005112.0008545.0008545.0012398.0013657l-1.0272369 1.3336906 1.1427612 1.1427612 1.3338814-1.0274734c.6214371.5201759 1.2986412.973835 2.0212364 1.3544121.0007019.0003433.0014267.0006828.0021324.0011101l-.4376068 1.6212349 1.4930878.6184959.8346214-1.4517975c.0003014.0001717.000576.0002556.0008774.0003433.764782.2374039 1.5645065.3982315 2.3921547.4715652l.216301 1.6664314h1.6161194l.2162971-1.6665993c.8272667-.0734215 1.6266479-.2340813 2.3911133-.4713974.000576-.0001717.001152-.0004272.0017281-.0005989l.8347893 1.4520531 1.4931145-.6184959-.4377367-1.621746c.0004044-.0001717.0008316-.0003433.001236-.0005989.7227859-.3805771 1.4002266-.8344917 2.0217285-1.3547516l1.3343925 1.027813 1.1427841-1.1427612-1.0277061-1.3342896c.0002136-.0002556.0004692-.0005112.0006828-.0007668.5200653-.6213074.9772873-1.2983856 1.354393-2.0242424l1.6234512.4381409.6184692-1.4931526-1.4522018-.8348389c.0001526-.0004234.0003204-.0009346.000473-.0013618.2372742-.7640572.3978043-1.5630799.4712449-2.3900681zm-11.3968239 2.1420898c-1.7499161 0-3.1680069-1.4181137-3.1680069-3.168026 0-1.7499161 1.4180908-3.168026 3.1680069-3.168026 1.7499123 0 3.1680031 1.4181099 3.1680031 3.168026 0 1.7499123-1.4180909 3.168026-3.1680031 3.168026z" fill="#4da0dc"/><path d="m54.9994774 31.4941978c-5.0017471 0-9.0569229 4.0551338-9.0569229 9.0569s4.0551758 9.0569 9.0569229 9.0569 9.0569191-4.0551338 9.0569191-9.0569-4.0551758-9.0569-9.0569191-9.0569zm0 12.224926c-1.7499161 0-3.1680069-1.4181137-3.1680069-3.168026 0-1.7499161 1.4180908-3.168026 3.1680069-3.168026 1.7499123 0 3.1680031 1.4181099 3.1680031 3.168026 0 1.7499123-1.4180909 3.168026-3.1680031 3.168026z" fill="#4288b9"/><path d="m54.9994774 35.5109596c-2.783802 0-5.0401611 2.2563591-5.0401611 5.0401382s2.2563591 5.0401382 5.0401611 5.0401382c2.7837791 0 5.0401573-2.2563591 5.0401573-5.0401382s-2.2563782-5.0401382-5.0401573-5.0401382zm0 8.2081642c-1.7499161 0-3.1680069-1.4181137-3.1680069-3.168026 0-1.7499161 1.4180908-3.168026 3.1680069-3.168026 1.7499123 0 3.1680031 1.4181099 3.1680031 3.168026 0 1.7499123-1.4180909 3.168026-3.1680031 3.168026z" fill="#4da0dc"/></svg>