<svg height="487pt" viewBox="-59 0 487 487.9885" width="487pt" xmlns="http://www.w3.org/2000/svg"><path d="m178.421875 472.96875c-39.855469-46.417969-169.925781-204.449219-169.925781-288.96875 0-97.203125 78.796875-176 176-176 97.199218 0 176 78.796875 176 176 0 84.519531-130.074219 242.550781-169.929688 288.96875l-6.070312 7.03125zm6.074219-408.96875c-61.859375 0-112 50.144531-112 112s50.140625 112 112 112c61.855468 0 112-50.144531 112-112-.066406-61.828125-50.171875-111.933594-112-112zm0 0" fill="#78b9eb"/><g fill="#1a6fb0"><path d="m184.496094 0c-101.570313.128906-183.875 82.433594-184 184 0 99.121094 170.71875 293.121094 178 301.28125 1.515625 1.722656 3.703125 2.707031 6 2.707031 2.292968 0 4.480468-.984375 6-2.707031 7.277344-8.160156 178-202.160156 178-301.28125-.128906-101.566406-82.433594-183.871094-184-184zm0 16c92.738281.101562 167.898437 75.257812 168 168 0 83.121094-137.363282 248.078125-168 283.761719-30.640625-35.683594-168-200.640625-168-283.761719.097656-92.742188 75.257812-167.898438 168-168zm0 0"/><path d="m184.496094 56c-66.277344 0-120 53.726562-120 120s53.722656 120 120 120c66.273437 0 120-53.726562 120-120-.082032-66.242188-53.761719-119.921875-120-120zm0 224c-57.441406 0-104-46.5625-104-104s46.558594-104 104-104c57.4375 0 104 46.5625 104 104-.054688 57.414062-46.585938 103.945312-104 104zm0 0"/><path d="m168.496094 168h32v16h-32zm0 0"/><path d="m208.496094 168h16v16h-16zm0 0"/><path d="m144.496094 168h16v16h-16zm0 0"/></g></svg>