<svg height="464pt" viewBox="-43 0 464 464.41313" width="464pt" xmlns="http://www.w3.org/2000/svg"><path d="m352.988281 283.574219h-.058593c45.882812-79.445313 28.101562-180.367188-42.175782-239.34375-70.277344-58.972657-172.753906-58.972657-243.03125 0-70.273437 58.976562-88.058594 159.898437-42.175781 239.34375l.191406.277343c4.394531 7.578126 9.3125 14.839844 14.71875 21.730469l119.402344 141.847657h.152344c8.472656 8.472656 12 16.984374 29.496093 16.984374 17.496094 0 24.796876-12.273437 29.496094-16.984374h.152344l119.519531-142.640626c5.074219-6.542968 9.710938-13.410156 13.886719-20.558593zm0 0" fill="#005e9c"/><path d="m345.234375 188.230469c0 86.15625-69.84375 156-156 156s-156-69.84375-156-156 69.84375-156 156-156 156 69.84375 156 156zm0 0" fill="#168fba"/><path d="m189.234375 263.054688 69.214844 25.175781-2.015625-75.105469 44.800781-59.542969-70.472656-21.25-41.527344-61.976562-41.527344 61.976562-70.472656 21.25 44.800781 59.542969-2.015625 75.105469zm0 0" fill="#fecf2c"/></svg>