<svg width="18" height="14" viewBox="0 0 18 14" fill="none" xmlns="http://www.w3.org/2000/svg">
<path d="M17.6484 4.96484C17.7188 4.89453 17.7891 4.88281 17.8594 4.92969C17.9531 4.97656 18 5.04688 18 5.14062V12.3125C18 12.7812 17.8359 13.1797 17.5078 13.5078C17.1797 13.8359 16.7812 14 16.3125 14H1.6875C1.21875 14 0.820312 13.8359 0.492188 13.5078C0.164063 13.1797 0 12.7812 0 12.3125V5.14062C0 5.04688 0.0351562 4.98828 0.105469 4.96484C0.199219 4.91797 0.28125 4.91797 0.351562 4.96484C1.125 5.55078 2.92969 6.875 5.76562 8.9375C5.8125 8.98438 5.96484 9.11328 6.22266 9.32422C6.50391 9.53516 6.72656 9.69922 6.89062 9.81641C7.05469 9.91016 7.26562 10.0391 7.52344 10.2031C7.78125 10.3438 8.02734 10.4492 8.26172 10.5195C8.51953 10.5898 8.76562 10.625 9 10.625C9.21094 10.625 9.42188 10.6016 9.63281 10.5547C9.84375 10.4844 10.043 10.4141 10.2305 10.3438C10.418 10.25 10.6172 10.1328 10.8281 9.99219C11.0391 9.85156 11.2148 9.73438 11.3555 9.64062C11.4961 9.52344 11.6602 9.39453 11.8477 9.25391C12.0352 9.11328 12.1641 9.00781 12.2344 8.9375C15 6.94531 16.8047 5.62109 17.6484 4.96484ZM9 9.5C8.8125 9.5 8.57812 9.44141 8.29688 9.32422C8.03906 9.18359 7.82812 9.06641 7.66406 8.97266C7.5 8.85547 7.25391 8.67969 6.92578 8.44531C6.62109 8.1875 6.45703 8.05859 6.43359 8.05859C3.57422 5.97266 1.53516 4.46094 0.316406 3.52344C0.105469 3.35937 0 3.13672 0 2.85547V2.1875C0 1.71875 0.164063 1.32031 0.492188 0.992188C0.820312 0.664063 1.21875 0.5 1.6875 0.5H16.3125C16.7812 0.5 17.1797 0.664063 17.5078 0.992188C17.8359 1.32031 18 1.71875 18 2.1875V2.85547C18 3.13672 17.8945 3.35937 17.6836 3.52344C16.5352 4.41406 14.4961 5.92578 11.5664 8.05859C11.543 8.05859 11.3672 8.1875 11.0391 8.44531C10.7344 8.67969 10.5 8.85547 10.3359 8.97266C10.1719 9.06641 9.94922 9.18359 9.66797 9.32422C9.41016 9.44141 9.1875 9.5 9 9.5Z" fill="#1A2B48"/>
</svg>
