<svg width="199" height="50" viewBox="0 0 199 50" fill="none" xmlns="http://www.w3.org/2000/svg">
<path d="M37.9319 46.3949C38.8544 45.836 39.1492 44.6353 38.5904 43.7127C38.0315 42.79 36.8307 42.4953 35.9082 43.0542C32.6279 45.0414 28.855 46.0917 24.9974 46.0917C13.3674 46.0917 3.90578 36.63 3.90578 25C3.90578 13.37 13.3674 3.90835 24.9974 3.90835C36.6274 3.90835 46.0891 13.37 46.0891 25C46.0891 29.1587 44.8524 33.2066 42.5127 36.7063C41.9131 37.6029 42.1541 38.8158 43.0507 39.4152C43.9476 40.0147 45.1603 39.7737 45.7596 38.8771C48.5304 34.7328 49.9949 29.9341 49.9949 25C49.9949 18.3229 47.3947 12.0455 42.6734 7.32403C37.9519 2.60272 31.6745 0.002491 24.9974 0.002491C18.3204 0.002491 12.043 2.60272 7.32146 7.32403C2.60015 12.0455 -7.62939e-05 18.3229 -7.62939e-05 25C-7.62939e-05 31.6771 2.60015 37.9545 7.32146 42.676C12.043 47.3973 18.3204 49.9975 24.9974 49.9975C29.5686 49.9975 34.0412 48.7517 37.9319 46.3949Z" fill="#5191FA"/>
<path fill-rule="evenodd" clip-rule="evenodd" d="M28.5283 34.0651C29.0472 34.0651 29.47 34.2303 29.8159 34.5609C30.1747 34.9036 30.3541 35.3076 30.3541 35.7727C30.3541 36.2501 30.1747 36.6602 29.8159 37.003C29.47 37.3335 29.0472 37.4988 28.5475 37.4988C26.3246 37.4988 24.4413 36.752 22.8782 35.2586C21.3151 33.7652 20.5336 31.9657 20.5336 29.8602V13.3161C20.5336 12.851 20.7066 12.447 21.0525 12.1042C21.4112 11.7737 21.8404 11.6085 22.3401 11.6085C22.827 11.6085 23.2498 11.7737 23.6085 12.1042C23.9544 12.447 24.1274 12.851 24.1274 13.3161V19.0083H27.0293C27.529 19.0083 27.9518 19.1736 28.2977 19.5041C28.6565 19.8346 28.8358 20.2386 28.8358 20.716C28.8358 21.1934 28.6565 21.5973 28.2977 21.9279C27.9518 22.2706 27.529 22.442 27.0293 22.442H24.1274V29.8602C24.1274 31.0231 24.5566 32.0147 25.415 32.8348C26.2734 33.655 27.3112 34.0651 28.5283 34.0651Z" fill="#5191FA" stroke="#5F9AFA" stroke-width="0.6"/>
<path fill-rule="evenodd" clip-rule="evenodd" d="M78.8337 15.2842H73.1261V38.6356H70.0225V15.2842H64.2792V12.2571H78.8337V15.2842ZM89.8209 19.2842L88.2869 21.8067C87.8827 21.5905 87.4903 21.4824 87.1097 21.4824C86.3725 21.4824 85.7066 21.8488 85.1121 22.5815C84.5175 23.3142 84.0716 24.2752 83.7744 25.4644C83.4771 26.6536 83.3284 28.7977 83.3284 31.8969V38.6356H80.3319V18.9959H83.3284V21.122C83.923 20.2331 84.5235 19.5725 85.1299 19.14C85.7364 18.7076 86.426 18.4914 87.1989 18.4914C87.9718 18.4914 88.8458 18.7557 89.8209 19.2842ZM111.724 38.6356H108.834V35.7527C106.718 38.1071 104.28 39.2843 101.522 39.2843C98.7628 39.2843 96.4025 38.2573 94.4405 36.2032C92.4785 34.1491 91.4975 31.6987 91.4975 28.8518C91.4975 26.0049 92.4844 23.5665 94.4583 21.5365C96.4322 19.5064 98.8401 18.4914 101.682 18.4914C104.524 18.4914 106.908 19.6566 108.834 21.9869V18.9959H111.724V38.6356ZM101.736 36.5095C103.709 36.5095 105.41 35.7888 106.837 34.3473C108.264 32.9059 108.977 31.1101 108.977 28.9599C108.977 26.8097 108.276 25.0079 106.872 23.5545C105.469 22.101 103.751 21.3743 101.718 21.3743C99.6844 21.3743 97.9662 22.125 96.563 23.6266C95.1599 25.1281 94.4583 26.8998 94.4583 28.9419C94.4583 30.984 95.1718 32.7557 96.5987 34.2572C98.0256 35.7588 99.7379 36.5095 101.736 36.5095ZM133.377 18.9959L124.495 39.2843H123.781L114.827 18.9959H117.931L124.102 33.1942L130.274 18.9959H133.377ZM155.637 29.3383H138.585C138.704 31.5005 139.424 33.2362 140.744 34.5455C142.064 35.8548 143.639 36.5095 145.47 36.5095C148.586 36.5095 150.964 34.96 152.605 31.8608L155.102 33.1581C153.984 35.2482 152.664 36.7918 151.142 37.7888C149.62 38.7858 147.801 39.2843 145.684 39.2843C142.759 39.2843 140.345 38.2693 138.443 36.2392C136.54 34.2092 135.589 31.7647 135.589 28.9059C135.589 26.047 136.546 23.5965 138.461 21.5545C140.375 19.5124 142.747 18.4914 145.577 18.4914C148.407 18.4914 150.774 19.4584 152.676 21.3923C154.579 23.3263 155.566 25.9749 155.637 29.3383ZM152.355 26.7076C151.998 25.026 151.19 23.7166 149.929 22.7797C148.669 21.8428 147.218 21.3743 145.577 21.3743C142.248 21.3743 140.036 23.1521 138.942 26.7076H152.355ZM162.236 38.6356H159.311V11.6085H162.236V38.6356ZM185.959 29.3383H168.907C169.026 31.5005 169.745 33.2362 171.065 34.5455C172.385 35.8548 173.961 36.5095 175.792 36.5095C178.907 36.5095 181.286 34.96 182.927 31.8608L185.424 33.1581C184.306 35.2482 182.986 36.7918 181.464 37.7888C179.942 38.7858 178.123 39.2843 176.006 39.2843C173.081 39.2843 170.667 38.2693 168.764 36.2392C166.862 34.2092 165.911 31.7647 165.911 28.9059C165.911 26.047 166.868 23.5965 168.782 21.5545C170.697 19.5124 173.069 18.4914 175.899 18.4914C178.729 18.4914 181.095 19.4584 182.998 21.3923C184.9 23.3263 185.887 25.9749 185.959 29.3383ZM182.677 26.7076C182.32 25.026 181.512 23.7166 180.251 22.7797C178.991 21.8428 177.54 21.3743 175.899 21.3743C172.57 21.3743 170.358 23.1521 169.264 26.7076H182.677ZM198.194 19.2842L196.661 21.8067C196.256 21.5905 195.864 21.4824 195.483 21.4824C194.746 21.4824 194.08 21.8488 193.486 22.5815C192.891 23.3142 192.445 24.2752 192.148 25.4644C191.851 26.6536 191.702 28.7977 191.702 31.8969V38.6356H188.706V18.9959H191.702V21.122C192.297 20.2331 192.897 19.5725 193.504 19.14C194.11 18.7076 194.8 18.4914 195.573 18.4914C196.345 18.4914 197.219 18.7557 198.194 19.2842Z" fill="#5191FA"/>
</svg>
