<svg width="20" height="14" viewBox="0 0 20 14" fill="none" xmlns="http://www.w3.org/2000/svg">
<path d="M19.3359 2.60938C19.4062 2.89062 19.4648 3.24219 19.5117 3.66406C19.582 4.08594 19.6289 4.50781 19.6523 4.92969C19.6758 5.32812 19.6875 5.70312 19.6875 6.05469C19.7109 6.40625 19.7227 6.69922 19.7227 6.93359V7.25C19.7227 9.35938 19.5938 10.918 19.3359 11.9258C19.2188 12.3242 19.0078 12.6758 18.7031 12.9805C18.3984 13.2852 18.0352 13.4961 17.6133 13.6133C17.168 13.7305 16.3242 13.8242 15.082 13.8945C13.8398 13.9414 12.7031 13.9766 11.6719 14H10.125C6.11719 14 3.62109 13.8711 2.63672 13.6133C1.72266 13.3555 1.14844 12.793 0.914062 11.9258C0.796875 11.4805 0.703125 10.8711 0.632812 10.0977C0.585938 9.30078 0.550781 8.63281 0.527344 8.09375V7.25C0.527344 5.16406 0.65625 3.61719 0.914062 2.60938C1.03125 2.1875 1.24219 1.82422 1.54688 1.51953C1.85156 1.21484 2.21484 1.00391 2.63672 0.886719C3.08203 0.769531 3.92578 0.6875 5.16797 0.640625C6.41016 0.570312 7.54688 0.523438 8.57812 0.5H10.125C14.1328 0.5 16.6289 0.628906 17.6133 0.886719C18.0352 1.00391 18.3984 1.21484 18.7031 1.51953C19.0078 1.82422 19.2188 2.1875 19.3359 2.60938ZM8.15625 10.1328L13.1836 7.25L8.15625 4.40234V10.1328Z" fill="#1A2B48"/>
</svg>
