<?xml version="1.0" encoding="utf-8"?>
<!-- Generator: Adobe Illustrator 16.0.2, SVG Export Plug-In . SVG Version: 6.00 Build 0)  -->
<!DOCTYPE svg PUBLIC "-//W3C//DTD SVG 1.1//EN" "http://www.w3.org/Graphics/SVG/1.1/DTD/svg11.dtd">
<svg version="1.1" id="svg-editor-canvas" xmlns="http://www.w3.org/2000/svg" xmlns:xlink="http://www.w3.org/1999/xlink" x="0px"
	 y="0px" width="211.001px" height="54.334px" viewBox="6.499 87.5 211.001 54.334"
	 enable-background="new 6.499 87.5 211.001 54.334" xml:space="preserve">
<g id="logo__item--logo_0">
	<g>
		<g>
			<path fill="#1A2B47" d="M42.934,121.053l-1.633-1.063c-2.165,2.545-5.09,4.444-8.584,5.318
				c-8.773,2.126-17.661-3.267-19.788-12.079c-2.127-8.773,3.266-17.661,12.078-19.788c8.735-2.127,17.623,3.266,19.75,12.04
				c0.988,4.102,0.342,8.204-1.52,11.66l1.558,1.025h0.038c1.633-3.039,2.696-5.963,2.696-8.432c0-10.444-8.47-18.914-18.914-18.914
				C18.17,90.82,9.7,99.29,9.7,109.734c0,10.445,18.915,28.866,18.915,28.866s8.697-8.508,14.319-17.206
				C42.934,121.281,42.934,121.167,42.934,121.053z"/>
			<g>
				<path fill="#FA5636" d="M41.832,106.202c-1.747-7.178-8.963-11.584-16.142-9.837c-7.178,1.747-11.584,8.964-9.837,16.142
					s8.963,11.584,16.142,9.837C39.135,120.597,43.541,113.381,41.832,106.202z M38.224,114.672c0,0.835-0.684,1.519-1.519,1.519
					H21.132c-0.835,0-1.519-0.684-1.519-1.519v-9.875c0-0.835,0.684-1.519,1.519-1.519h4.786v-0.341
					c0-1.216,0.987-2.203,2.203-2.203h1.937c1.215,0,2.203,0.987,2.203,2.203v0.341h4.481c0.836,0,1.52,0.684,1.52,1.519v9.875
					H38.224z"/>
				<path fill="#FA5636" d="M30.058,101.531h-1.937c-0.759,0-1.405,0.607-1.405,1.405v0.341h4.748v-0.341
					C31.463,102.139,30.817,101.531,30.058,101.531z"/>
			</g>
		</g>
	</g>
</g>
<g>
	<path fill="#1A2B47" d="M68.977,105.59c0.508,0.665,0.762,1.483,0.762,2.454c0,1.375-0.534,2.431-1.602,3.17
		c-1.068,0.74-2.625,1.109-4.672,1.109h-8.112V96.638h7.664c1.912,0,3.38,0.366,4.403,1.098s1.535,1.725,1.535,2.98
		c0,0.762-0.183,1.442-0.549,2.039c-0.366,0.598-0.878,1.068-1.535,1.412C67.767,104.451,68.468,104.925,68.977,105.59z
		 M58.96,99.372v3.697h3.607c0.896,0,1.576-0.157,2.04-0.471c0.463-0.313,0.694-0.776,0.694-1.389c0-0.612-0.231-1.072-0.694-1.378
		c-0.463-0.306-1.143-0.459-2.04-0.459H58.96z M65.357,109.119c0.485-0.313,0.729-0.799,0.729-1.457c0-1.3-0.964-1.949-2.891-1.949
		H58.96v3.876h4.235C64.151,109.59,64.872,109.433,65.357,109.119z"/>
	<path fill="#1A2B47" d="M74.567,111.708c-1.008-0.53-1.796-1.266-2.364-2.208c-0.568-0.941-0.851-2.009-0.851-3.204
		s0.283-2.263,0.851-3.205c0.568-0.941,1.356-1.677,2.364-2.207s2.147-0.795,3.417-0.795c1.27,0,2.405,0.265,3.406,0.795
		s1.785,1.266,2.353,2.207c0.567,0.941,0.852,2.009,0.852,3.205s-0.284,2.263-0.852,3.204c-0.568,0.941-1.352,1.677-2.353,2.208
		s-2.136,0.795-3.406,0.795C76.715,112.503,75.576,112.238,74.567,111.708z M80.192,108.727c0.575-0.605,0.863-1.415,0.863-2.431
		s-0.288-1.827-0.863-2.432c-0.575-0.605-1.311-0.907-2.207-0.907c-0.896,0-1.636,0.302-2.219,0.907s-0.874,1.416-0.874,2.432
		s0.292,1.826,0.874,2.431s1.322,0.908,2.219,0.908C78.881,109.635,79.617,109.332,80.192,108.727z"/>
	<path fill="#1A2B47" d="M89.245,111.708c-1.008-0.53-1.796-1.266-2.364-2.208c-0.568-0.941-0.852-2.009-0.852-3.204
		s0.284-2.263,0.852-3.205c0.568-0.941,1.356-1.677,2.364-2.207s2.147-0.795,3.417-0.795c1.27,0,2.405,0.265,3.406,0.795
		c1,0.53,1.785,1.266,2.353,2.207c0.567,0.941,0.852,2.009,0.852,3.205s-0.284,2.263-0.852,3.204
		c-0.568,0.941-1.353,1.677-2.353,2.208c-1.001,0.53-2.136,0.795-3.406,0.795C91.393,112.503,90.253,112.238,89.245,111.708z
		 M94.87,108.727c0.575-0.605,0.863-1.415,0.863-2.431s-0.288-1.827-0.863-2.432c-0.575-0.605-1.311-0.907-2.208-0.907
		c-0.896,0-1.636,0.302-2.218,0.907s-0.874,1.416-0.874,2.432s0.292,1.826,0.874,2.431s1.322,0.908,2.218,0.908
		C93.559,109.635,94.294,109.332,94.87,108.727z"/>
	<path fill="#1A2B47" d="M106.78,107.595l-1.681,1.659v3.07h-3.496V95.696h3.496v9.412l5.109-4.84h4.168l-5.02,5.109l5.468,6.947
		h-4.235L106.78,107.595z"/>
	<path fill="#1A2B47" d="M116.482,98.027c-0.403-0.373-0.605-0.836-0.605-1.389s0.202-1.016,0.605-1.39
		c0.404-0.373,0.926-0.56,1.569-0.56s1.166,0.179,1.569,0.538c0.403,0.358,0.604,0.807,0.604,1.344c0,0.583-0.202,1.064-0.604,1.445
		c-0.403,0.381-0.926,0.572-1.569,0.572S116.886,98.4,116.482,98.027z M116.303,100.268h3.496v12.056h-3.496V100.268z"/>
	<path fill="#1A2B47" d="M133.995,101.433c0.918,0.896,1.378,2.226,1.378,3.989v6.902h-3.496v-6.364c0-0.956-0.209-1.669-0.627-2.14
		c-0.418-0.47-1.023-0.706-1.815-0.706c-0.882,0-1.583,0.273-2.106,0.818c-0.523,0.545-0.784,1.356-0.784,2.431v5.961h-3.496
		v-12.056h3.339v1.412c0.463-0.508,1.039-0.9,1.726-1.177c0.687-0.276,1.441-0.414,2.263-0.414
		C131.87,100.089,133.076,100.537,133.995,101.433z"/>
	<path fill="#1A2B47" d="M151.104,100.268v10.039c0,2.211-0.576,3.854-1.726,4.93c-1.151,1.076-2.832,1.613-5.042,1.613
		c-1.166,0-2.271-0.142-3.317-0.426c-1.046-0.284-1.912-0.695-2.599-1.232l1.39-2.51c0.507,0.418,1.149,0.75,1.927,0.997
		c0.776,0.247,1.553,0.37,2.33,0.37c1.21,0,2.103-0.273,2.678-0.818c0.575-0.546,0.863-1.371,0.863-2.477v-0.515
		c-0.911,1.001-2.181,1.501-3.809,1.501c-1.106,0-2.118-0.242-3.037-0.728c-0.919-0.485-1.647-1.169-2.185-2.05
		c-0.538-0.881-0.807-1.897-0.807-3.048c0-1.15,0.269-2.166,0.807-3.047c0.538-0.881,1.266-1.565,2.185-2.05
		c0.918-0.485,1.93-0.728,3.037-0.728c1.748,0,3.077,0.575,3.988,1.725v-1.546H151.104z M146.768,108.055
		c0.59-0.545,0.885-1.258,0.885-2.14c0-0.881-0.295-1.594-0.885-2.14s-1.348-0.818-2.274-0.818c-0.927,0-1.688,0.272-2.286,0.818
		c-0.598,0.545-0.896,1.259-0.896,2.14c0,0.882,0.298,1.595,0.896,2.14c0.597,0.545,1.359,0.818,2.286,0.818
		C145.419,108.873,146.177,108.6,146.768,108.055z"/>
	<path fill="#1A2B47" d="M164.111,111.551c-1.292-0.695-2.308-1.658-3.047-2.891c-0.739-1.232-1.109-2.625-1.109-4.179
		c0-1.553,0.37-2.947,1.109-4.179c0.74-1.232,1.755-2.196,3.047-2.891c1.292-0.694,2.745-1.042,4.358-1.042
		c1.36,0,2.588,0.239,3.687,0.717s2.02,1.165,2.768,2.062l-2.331,2.151c-1.061-1.225-2.375-1.838-3.944-1.838
		c-0.971,0-1.837,0.213-2.6,0.639c-0.762,0.426-1.356,1.02-1.782,1.782c-0.426,0.762-0.639,1.628-0.639,2.599
		c0,0.971,0.213,1.838,0.639,2.6s1.02,1.355,1.782,1.781c0.762,0.426,1.628,0.639,2.6,0.639c1.569,0,2.883-0.62,3.944-1.86
		l2.331,2.151c-0.748,0.911-1.673,1.606-2.778,2.084c-1.106,0.478-2.339,0.717-3.698,0.717
		C166.849,112.593,165.404,112.245,164.111,111.551z"/>
	<path fill="#1A2B47" d="M179.013,111.708c-1.009-0.53-1.796-1.266-2.364-2.208c-0.568-0.941-0.852-2.009-0.852-3.204
		s0.283-2.263,0.852-3.205c0.568-0.941,1.355-1.677,2.364-2.207c1.008-0.53,2.147-0.795,3.417-0.795c1.27,0,2.406,0.265,3.407,0.795
		c1,0.53,1.785,1.266,2.353,2.207c0.567,0.941,0.852,2.009,0.852,3.205s-0.284,2.263-0.852,3.204
		c-0.568,0.941-1.353,1.677-2.353,2.208c-1.001,0.53-2.137,0.795-3.407,0.795C181.161,112.503,180.021,112.238,179.013,111.708z
		 M184.638,108.727c0.575-0.605,0.862-1.415,0.862-2.431s-0.288-1.827-0.862-2.432c-0.576-0.605-1.311-0.907-2.208-0.907
		c-0.896,0-1.635,0.302-2.218,0.907c-0.583,0.605-0.874,1.416-0.874,2.432s0.291,1.826,0.874,2.431
		c0.583,0.605,1.322,0.908,2.218,0.908C183.327,109.635,184.062,109.332,184.638,108.727z"/>
	<path fill="#1A2B47" d="M196.402,100.537c0.71-0.298,1.528-0.448,2.454-0.448v3.227c-0.389-0.03-0.65-0.045-0.784-0.045
		c-1.001,0-1.786,0.28-2.353,0.84c-0.568,0.561-0.852,1.4-0.852,2.521v5.692h-3.496v-12.056h3.339v1.591
		C195.128,101.276,195.693,100.836,196.402,100.537z"/>
	<path fill="#1A2B47" d="M212.57,107.282h-9.12c0.164,0.747,0.553,1.337,1.165,1.771c0.612,0.433,1.374,0.649,2.286,0.649
		c0.627,0,1.184-0.093,1.669-0.28c0.485-0.187,0.938-0.482,1.355-0.885l1.86,2.017c-1.135,1.3-2.794,1.95-4.975,1.95
		c-1.36,0-2.562-0.265-3.607-0.795c-1.046-0.53-1.853-1.266-2.421-2.208c-0.567-0.941-0.851-2.009-0.851-3.204
		c0-1.18,0.28-2.245,0.84-3.193c0.56-0.948,1.329-1.688,2.308-2.218c0.978-0.53,2.073-0.795,3.283-0.795
		c1.18,0,2.249,0.254,3.205,0.762s1.707,1.236,2.252,2.185c0.545,0.949,0.817,2.05,0.817,3.306
		C212.637,106.386,212.615,106.699,212.57,107.282z M204.391,103.405c-0.538,0.448-0.866,1.061-0.986,1.837h5.938
		c-0.121-0.762-0.448-1.371-0.986-1.827c-0.538-0.455-1.196-0.683-1.972-0.683C205.594,102.733,204.929,102.957,204.391,103.405z"/>
</g>
<g>
	<path fill="#1A2B47" d="M63.988,122.046v6.14c0,1.082-0.327,1.932-0.98,2.551c-0.653,0.619-1.551,0.928-2.693,0.928
		c-1.143,0-2.026-0.312-2.651-0.935c-0.626-0.623-0.938-1.48-0.938-2.57v-6.114h1.104v6.192c0,0.792,0.216,1.4,0.649,1.824
		c0.433,0.424,1.069,0.636,1.908,0.636c0.8,0,1.417-0.213,1.85-0.639c0.433-0.427,0.649-1.038,0.649-1.834v-6.179H63.988z"/>
	<path fill="#1A2B47" d="M67.416,131.536h-1.078v-10.1h1.078V131.536z"/>
	<path fill="#1A2B47" d="M71.998,130.776c0.19,0,0.374-0.014,0.551-0.042c0.178-0.028,0.318-0.058,0.422-0.088v0.824
		c-0.117,0.057-0.289,0.103-0.516,0.14s-0.432,0.055-0.613,0.055c-1.376,0-2.064-0.725-2.064-2.174v-4.232h-1.019v-0.52l1.019-0.448
		l0.455-1.519h0.623v1.648h2.064v0.837h-2.064v4.187c0,0.428,0.102,0.757,0.305,0.987C71.364,130.662,71.643,130.776,71.998,130.776
		z"/>
	<path fill="#1A2B47" d="M74.302,122.494c0-0.247,0.061-0.427,0.182-0.542c0.121-0.114,0.272-0.172,0.455-0.172
		c0.173,0,0.322,0.058,0.448,0.175c0.125,0.117,0.188,0.296,0.188,0.539s-0.063,0.423-0.188,0.542s-0.275,0.178-0.448,0.178
		c-0.182,0-0.333-0.059-0.455-0.178S74.302,122.736,74.302,122.494z M75.471,131.536h-1.078v-7.114h1.078V131.536z"/>
	<path fill="#1A2B47" d="M86.823,131.536v-4.628c0-0.566-0.121-0.992-0.363-1.275c-0.242-0.284-0.619-0.426-1.129-0.426
		c-0.671,0-1.166,0.193-1.486,0.578c-0.32,0.385-0.48,0.978-0.48,1.778v3.973h-1.077v-4.628c0-0.566-0.122-0.992-0.364-1.275
		c-0.242-0.284-0.621-0.426-1.136-0.426c-0.675,0-1.169,0.203-1.483,0.607c-0.314,0.404-0.471,1.067-0.471,1.989v3.732h-1.077
		v-7.114h0.876l0.175,0.974h0.052c0.203-0.346,0.49-0.617,0.86-0.812c0.37-0.194,0.784-0.292,1.243-0.292
		c1.112,0,1.839,0.402,2.181,1.208h0.052c0.212-0.373,0.519-0.667,0.921-0.883s0.861-0.325,1.376-0.325
		c0.805,0,1.408,0.207,1.808,0.62c0.4,0.414,0.6,1.075,0.6,1.983v4.641H86.823z"/>
	<path fill="#1A2B47" d="M94.495,131.536l-0.214-1.013h-0.052c-0.355,0.446-0.708,0.748-1.062,0.905
		c-0.353,0.158-0.793,0.237-1.321,0.237c-0.705,0-1.258-0.182-1.658-0.545c-0.4-0.364-0.6-0.881-0.6-1.552
		c0-1.436,1.148-2.189,3.446-2.258l1.208-0.039v-0.441c0-0.558-0.12-0.971-0.36-1.236c-0.24-0.267-0.625-0.399-1.152-0.399
		c-0.593,0-1.264,0.182-2.012,0.545l-0.332-0.824c0.351-0.19,0.735-0.339,1.152-0.448c0.417-0.108,0.836-0.163,1.256-0.163
		c0.848,0,1.477,0.188,1.885,0.565s0.613,0.98,0.613,1.811v4.855H94.495z M92.061,130.776c0.67,0,1.198-0.184,1.581-0.552
		c0.383-0.368,0.574-0.883,0.574-1.545v-0.643l-1.077,0.046c-0.857,0.03-1.475,0.163-1.854,0.399
		c-0.378,0.236-0.567,0.603-0.567,1.1c0,0.39,0.118,0.686,0.354,0.889C91.307,130.675,91.637,130.776,92.061,130.776z"/>
	<path fill="#1A2B47" d="M99.811,130.776c0.19,0,0.375-0.014,0.552-0.042s0.318-0.058,0.422-0.088v0.824
		c-0.117,0.057-0.289,0.103-0.516,0.14c-0.228,0.037-0.432,0.055-0.614,0.055c-1.376,0-2.064-0.725-2.064-2.174v-4.232h-1.019v-0.52
		l1.019-0.448l0.454-1.519h0.624v1.648h2.064v0.837h-2.064v4.187c0,0.428,0.102,0.757,0.305,0.987
		C99.177,130.662,99.457,130.776,99.811,130.776z"/>
	<path fill="#1A2B47" d="M105.211,131.666c-1.051,0-1.881-0.32-2.489-0.96s-0.912-1.529-0.912-2.668
		c0-1.146,0.282-2.058,0.847-2.732c0.565-0.675,1.323-1.013,2.275-1.013c0.891,0,1.597,0.293,2.116,0.879
		c0.52,0.586,0.779,1.36,0.779,2.321v0.681h-4.901c0.021,0.835,0.232,1.469,0.633,1.902c0.4,0.433,0.964,0.649,1.691,0.649
		c0.766,0,1.523-0.16,2.272-0.48v0.96c-0.381,0.165-0.741,0.283-1.081,0.354C106.102,131.63,105.692,131.666,105.211,131.666z
		 M104.919,125.194c-0.571,0-1.027,0.186-1.366,0.558c-0.34,0.373-0.54,0.887-0.601,1.545h3.719c0-0.679-0.151-1.2-0.454-1.561
		C105.915,125.375,105.482,125.194,104.919,125.194z"/>
	<path fill="#1A2B47" d="M113.28,122.046h2.681c1.259,0,2.17,0.188,2.732,0.564c0.563,0.376,0.844,0.972,0.844,1.785
		c0,0.563-0.157,1.027-0.471,1.392c-0.314,0.366-0.771,0.603-1.373,0.711v0.065c1.44,0.247,2.161,1.004,2.161,2.272
		c0,0.848-0.287,1.51-0.86,1.986c-0.573,0.476-1.375,0.714-2.405,0.714h-3.31V122.046z M114.383,126.109h1.817
		c0.779,0,1.339-0.122,1.681-0.367c0.341-0.244,0.513-0.657,0.513-1.236c0-0.532-0.19-0.916-0.571-1.152
		c-0.381-0.236-0.986-0.354-1.817-0.354h-1.623V126.109z M114.383,127.044v3.55h1.979c0.766,0,1.342-0.148,1.73-0.445
		c0.387-0.296,0.581-0.76,0.581-1.392c0-0.588-0.198-1.021-0.594-1.298c-0.396-0.277-0.999-0.415-1.808-0.415H114.383z"/>
	<path fill="#1A2B47" d="M127.871,127.973c0,1.16-0.292,2.065-0.876,2.716c-0.584,0.651-1.392,0.977-2.421,0.977
		c-0.636,0-1.2-0.149-1.693-0.448c-0.494-0.299-0.875-0.727-1.143-1.285c-0.269-0.559-0.403-1.211-0.403-1.96
		c0-1.16,0.29-2.063,0.87-2.71c0.58-0.647,1.384-0.971,2.415-0.971c0.995,0,1.786,0.331,2.373,0.993
		C127.578,125.947,127.871,126.843,127.871,127.973z M122.452,127.973c0,0.908,0.182,1.601,0.545,2.077
		c0.364,0.476,0.898,0.714,1.603,0.714c0.706,0,1.241-0.237,1.607-0.711c0.366-0.474,0.548-1.167,0.548-2.08
		c0-0.905-0.183-1.591-0.548-2.062c-0.366-0.469-0.906-0.704-1.619-0.704c-0.706,0-1.238,0.232-1.597,0.695
		C122.631,126.365,122.452,127.055,122.452,127.973z"/>
	<path fill="#1A2B47" d="M135.9,127.973c0,1.16-0.292,2.065-0.876,2.716c-0.584,0.651-1.391,0.977-2.421,0.977
		c-0.636,0-1.201-0.149-1.694-0.448c-0.493-0.299-0.874-0.727-1.142-1.285c-0.269-0.559-0.403-1.211-0.403-1.96
		c0-1.16,0.29-2.063,0.87-2.71c0.58-0.647,1.385-0.971,2.415-0.971c0.996,0,1.786,0.331,2.372,0.993
		C135.607,125.947,135.9,126.843,135.9,127.973z M130.48,127.973c0,0.908,0.182,1.601,0.545,2.077s0.898,0.714,1.604,0.714
		c0.705,0,1.24-0.237,1.606-0.711c0.365-0.474,0.549-1.167,0.549-2.08c0-0.905-0.184-1.591-0.549-2.062
		c-0.366-0.469-0.905-0.704-1.62-0.704c-0.706,0-1.237,0.232-1.596,0.695C130.66,126.365,130.48,127.055,130.48,127.973z"/>
	<path fill="#1A2B47" d="M138.854,127.895c0.186-0.264,0.47-0.61,0.85-1.039l2.298-2.434h1.278l-2.882,3.031l3.084,4.083h-1.305
		l-2.512-3.363l-0.812,0.701v2.662h-1.064v-10.1h1.064v5.355c0,0.238-0.018,0.606-0.052,1.104H138.854z"/>
	<path fill="#1A2B47" d="M144.676,122.494c0-0.247,0.061-0.427,0.182-0.542c0.121-0.114,0.272-0.172,0.454-0.172
		c0.173,0,0.323,0.058,0.448,0.175c0.125,0.117,0.188,0.296,0.188,0.539s-0.063,0.423-0.188,0.542
		c-0.125,0.119-0.275,0.178-0.448,0.178c-0.182,0-0.333-0.059-0.454-0.178C144.736,122.917,144.676,122.736,144.676,122.494z
		 M145.845,131.536h-1.078v-7.114h1.078V131.536z"/>
	<path fill="#1A2B47" d="M152.997,131.536v-4.602c0-0.58-0.132-1.013-0.396-1.298c-0.264-0.286-0.678-0.429-1.24-0.429
		c-0.744,0-1.289,0.202-1.636,0.604c-0.346,0.403-0.519,1.067-0.519,1.993v3.732h-1.077v-7.114h0.876l0.175,0.974h0.052
		c0.221-0.351,0.53-0.622,0.929-0.814c0.398-0.192,0.841-0.289,1.33-0.289c0.856,0,1.501,0.207,1.935,0.62
		c0.433,0.414,0.649,1.075,0.649,1.983v4.641H152.997z"/>
	<path fill="#1A2B47" d="M162.111,124.422v0.682l-1.318,0.156c0.121,0.151,0.229,0.35,0.325,0.594
		c0.095,0.245,0.143,0.521,0.143,0.828c0,0.697-0.238,1.253-0.714,1.668c-0.476,0.416-1.13,0.624-1.961,0.624
		c-0.212,0-0.411-0.018-0.597-0.052c-0.458,0.242-0.688,0.547-0.688,0.916c0,0.195,0.08,0.338,0.241,0.432
		c0.16,0.093,0.435,0.139,0.824,0.139h1.259c0.771,0,1.362,0.163,1.776,0.487c0.413,0.325,0.62,0.796,0.62,1.416
		c0,0.787-0.316,1.388-0.947,1.801c-0.632,0.413-1.554,0.62-2.765,0.62c-0.93,0-1.648-0.173-2.152-0.52
		c-0.503-0.346-0.756-0.835-0.756-1.467c0-0.433,0.139-0.807,0.416-1.123s0.666-0.53,1.168-0.643
		c-0.182-0.082-0.335-0.209-0.458-0.383c-0.123-0.173-0.185-0.375-0.185-0.604c0-0.26,0.069-0.487,0.208-0.682
		c0.138-0.195,0.357-0.383,0.656-0.565c-0.368-0.151-0.667-0.409-0.899-0.772c-0.232-0.364-0.347-0.779-0.347-1.247
		c0-0.779,0.234-1.379,0.701-1.801s1.129-0.633,1.986-0.633c0.373,0,0.708,0.043,1.006,0.13H162.111z M156.438,132.73
		c0,0.385,0.163,0.677,0.487,0.876c0.325,0.199,0.79,0.298,1.396,0.298c0.904,0,1.573-0.135,2.009-0.405
		c0.435-0.271,0.652-0.637,0.652-1.101c0-0.385-0.119-0.652-0.357-0.801s-0.686-0.224-1.343-0.224h-1.292
		c-0.489,0-0.87,0.117-1.143,0.351C156.574,131.958,156.438,132.293,156.438,132.73z M157.022,126.7c0,0.498,0.14,0.874,0.421,1.129
		s0.673,0.383,1.175,0.383c1.052,0,1.577-0.51,1.577-1.532c0-1.069-0.532-1.604-1.596-1.604c-0.507,0-0.896,0.137-1.168,0.409
		C157.158,125.759,157.022,126.164,157.022,126.7z"/>
	<path fill="#1A2B47" d="M172.541,129.011c0,0.835-0.303,1.487-0.909,1.954c-0.606,0.467-1.428,0.701-2.466,0.701
		c-1.125,0-1.99-0.145-2.596-0.435v-1.065c0.39,0.165,0.814,0.295,1.272,0.39c0.458,0.095,0.914,0.143,1.364,0.143
		c0.735,0,1.289-0.139,1.661-0.418s0.558-0.667,0.558-1.165c0-0.329-0.066-0.598-0.198-0.808c-0.132-0.21-0.352-0.403-0.661-0.581
		c-0.31-0.177-0.781-0.378-1.412-0.604c-0.883-0.316-1.514-0.69-1.893-1.123c-0.378-0.433-0.567-0.998-0.567-1.694
		c0-0.731,0.274-1.313,0.824-1.746c0.549-0.433,1.276-0.649,2.181-0.649c0.943,0,1.811,0.173,2.603,0.52l-0.344,0.96
		c-0.783-0.329-1.545-0.493-2.285-0.493c-0.585,0-1.041,0.125-1.369,0.376c-0.33,0.251-0.494,0.6-0.494,1.045
		c0,0.329,0.06,0.599,0.182,0.808c0.121,0.21,0.325,0.403,0.613,0.578c0.288,0.175,0.729,0.369,1.321,0.581
		c0.996,0.355,1.681,0.736,2.054,1.143C172.354,127.834,172.541,128.362,172.541,129.011z"/>
	<path fill="#1A2B47" d="M173.19,124.422h1.156l1.558,4.057c0.341,0.926,0.553,1.595,0.636,2.006h0.052
		c0.056-0.221,0.174-0.598,0.354-1.133c0.18-0.534,0.767-2.178,1.763-4.93h1.155l-3.057,8.101c-0.303,0.8-0.657,1.369-1.062,1.704
		c-0.404,0.335-0.901,0.503-1.49,0.503c-0.329,0-0.654-0.037-0.973-0.11v-0.863c0.237,0.052,0.504,0.078,0.798,0.078
		c0.741,0,1.268-0.415,1.584-1.246l0.396-1.013L173.19,124.422z"/>
	<path fill="#1A2B47" d="M185.607,129.595c0,0.662-0.246,1.173-0.739,1.532c-0.493,0.359-1.187,0.539-2.077,0.539
		c-0.944,0-1.68-0.149-2.207-0.448v-1c0.341,0.173,0.708,0.31,1.1,0.409c0.391,0.1,0.769,0.149,1.133,0.149
		c0.563,0,0.995-0.09,1.298-0.27c0.303-0.179,0.454-0.453,0.454-0.821c0-0.277-0.12-0.514-0.36-0.711
		c-0.24-0.197-0.708-0.429-1.405-0.698c-0.662-0.247-1.133-0.462-1.412-0.646c-0.278-0.184-0.486-0.393-0.623-0.626
		c-0.137-0.234-0.205-0.513-0.205-0.837c0-0.58,0.236-1.038,0.708-1.373c0.472-0.335,1.119-0.503,1.941-0.503
		c0.766,0,1.515,0.156,2.246,0.467l-0.383,0.876c-0.714-0.294-1.361-0.441-1.941-0.441c-0.51,0-0.895,0.08-1.155,0.24
		s-0.39,0.381-0.39,0.662c0,0.19,0.048,0.353,0.146,0.486c0.097,0.135,0.254,0.262,0.47,0.383c0.217,0.121,0.632,0.296,1.247,0.526
		c0.844,0.307,1.414,0.616,1.71,0.928C185.459,128.732,185.607,129.124,185.607,129.595z"/>
	<path fill="#1A2B47" d="M189.657,130.776c0.191,0,0.375-0.014,0.552-0.042s0.318-0.058,0.422-0.088v0.824
		c-0.117,0.057-0.289,0.103-0.516,0.14s-0.432,0.055-0.613,0.055c-1.376,0-2.064-0.725-2.064-2.174v-4.232h-1.02v-0.52l1.02-0.448
		l0.454-1.519h0.623v1.648h2.064v0.837h-2.064v4.187c0,0.428,0.102,0.757,0.306,0.987
		C189.024,130.662,189.303,130.776,189.657,130.776z"/>
	<path fill="#1A2B47" d="M195.058,131.666c-1.051,0-1.881-0.32-2.489-0.96c-0.607-0.641-0.912-1.529-0.912-2.668
		c0-1.146,0.283-2.058,0.848-2.732c0.564-0.675,1.322-1.013,2.275-1.013c0.891,0,1.596,0.293,2.116,0.879
		c0.519,0.586,0.779,1.36,0.779,2.321v0.681h-4.9c0.021,0.835,0.232,1.469,0.633,1.902c0.401,0.433,0.964,0.649,1.691,0.649
		c0.766,0,1.523-0.16,2.271-0.48v0.96c-0.381,0.165-0.741,0.283-1.081,0.354S195.539,131.666,195.058,131.666z M194.766,125.194
		c-0.571,0-1.027,0.186-1.367,0.558c-0.34,0.373-0.539,0.887-0.6,1.545h3.719c0-0.679-0.152-1.2-0.455-1.561
		C195.761,125.375,195.328,125.194,194.766,125.194z"/>
	<path fill="#1A2B47" d="M208.579,131.536v-4.628c0-0.566-0.122-0.992-0.363-1.275c-0.243-0.284-0.62-0.426-1.13-0.426
		c-0.67,0-1.166,0.193-1.487,0.578c-0.32,0.385-0.48,0.978-0.48,1.778v3.973h-1.077v-4.628c0-0.566-0.121-0.992-0.364-1.275
		c-0.243-0.284-0.621-0.426-1.136-0.426c-0.675,0-1.17,0.203-1.483,0.607c-0.314,0.404-0.471,1.067-0.471,1.989v3.732h-1.077v-7.114
		h0.876l0.175,0.974h0.052c0.204-0.346,0.49-0.617,0.86-0.812c0.37-0.194,0.784-0.292,1.243-0.292c1.111,0,1.838,0.402,2.181,1.208
		h0.052c0.212-0.373,0.52-0.667,0.922-0.883s0.861-0.325,1.376-0.325c0.805,0,1.407,0.207,1.808,0.62c0.4,0.414,0.6,1.075,0.6,1.983
		v4.641H208.579z"/>
</g>
</svg>
