<svg width="82" height="87" viewBox="0 0 82 87" fill="none" xmlns="http://www.w3.org/2000/svg">
<path opacity="0.4" d="M40.8684 62.503C39.4424 62.503 38.2827 61.3433 38.2827 59.9173C38.2827 58.4913 39.4424 57.3316 40.8684 57.3316C42.2944 57.3316 43.4541 58.4913 43.4541 59.9173H46.0398C46.0398 57.5152 44.385 55.5074 42.1613 54.9295V52.1602H39.5755V54.9295C37.3518 55.5074 35.697 57.5152 35.697 59.9173C35.697 62.7694 38.0164 65.0888 40.8684 65.0888C42.2944 65.0888 43.4541 66.2484 43.4541 67.6745C43.4541 69.1005 42.2944 70.2602 40.8684 70.2602C39.4424 70.2602 38.2827 69.1005 38.2827 67.6745H35.697C35.697 70.0766 37.3518 72.0844 39.5755 72.6623V75.4316H42.1613V72.6623C44.385 72.0844 46.0398 70.0766 46.0398 67.6745C46.0398 64.8224 43.7204 62.503 40.8684 62.503Z" fill="#5F9AFA"/>
<path d="M75.7756 31.9678V13.3739C75.7756 6.24508 69.9758 0.445312 62.847 0.445312C55.7182 0.445312 49.9184 6.24508 49.9184 13.3739V31.9678C46.9215 32.5806 44.747 35.2375 44.747 38.2989V41.8168H62.847V61.2097C62.847 61.9221 62.2665 62.5026 61.5541 62.5026H57.6096C56.9464 53.8391 49.6999 46.9883 40.8684 46.9883C32.0369 46.9883 24.7904 53.8391 24.1271 62.5026H20.1826C19.4703 62.5026 18.8898 61.9221 18.8898 61.2097V41.8168H36.9898V38.2989C36.9898 35.2284 34.8049 32.5625 31.7938 31.9601L24.0612 30.4138V28.5469C25.3554 27.6419 26.3974 26.4072 27.0749 24.9657C29.7239 24.7446 31.8184 22.5429 31.8184 19.8382V13.3739C31.8184 6.24508 26.0186 0.445312 18.8898 0.445312C11.7609 0.445312 5.96117 6.24508 5.96117 13.3739V19.8382C5.96117 22.5429 8.0556 24.7446 10.7047 24.9657C11.3834 26.4072 12.4242 27.6419 13.7183 28.5469V30.4138L5.98574 31.9601C2.97467 32.5625 0.789734 35.2284 0.789734 38.2989V41.8168H16.304V61.2097C16.304 63.3481 18.0442 65.0883 20.1826 65.0883H24.1271C24.7904 73.7517 32.0369 80.6026 40.8684 80.6026C44.8995 80.6026 48.7988 79.1533 51.8473 76.521L50.1576 74.5637C47.5783 76.7913 44.2789 78.0169 40.8684 78.0169C33.0272 78.0169 26.6469 71.6366 26.6469 63.7954C26.6469 55.9542 33.0272 49.574 40.8684 49.574C48.7096 49.574 55.0898 55.9542 55.0898 63.7954C55.0898 67.0741 54.0064 70.1537 51.9547 72.7032L53.9702 74.3245C56.0892 71.6896 57.3588 68.451 57.62 65.0883H61.5541C63.6925 65.0883 65.4327 63.3481 65.4327 61.2097V41.8168H80.947V38.2989C80.947 35.2375 78.7724 32.5806 75.7756 31.9678ZM27.8868 22.093C27.9204 21.7762 27.9398 21.4556 27.9398 21.1311V17.6119C28.709 18.0605 29.2326 18.8854 29.2326 19.8382C29.2326 20.813 28.6845 21.6521 27.8868 22.093ZM8.54689 19.8382C8.54689 18.8854 9.0705 18.0605 9.83975 17.6119V21.1311C9.83975 21.4556 9.85914 21.7762 9.89276 22.093C9.09506 21.6521 8.54689 20.813 8.54689 19.8382ZM10.0401 14.7883C9.50361 14.9047 9.00715 15.118 8.54689 15.3856V13.3739C8.54689 7.6711 13.187 3.03103 18.8898 3.03103C24.5926 3.03103 29.2326 7.6711 29.2326 13.3739V15.3856C28.7724 15.1167 28.2759 14.9034 27.7394 14.787C27.2391 13.2239 25.7885 12.081 24.0612 12.081H13.7183C11.9911 12.081 10.5405 13.2239 10.0401 14.7883ZM12.4255 21.1311V15.9596C12.4255 15.2473 13.006 14.6668 13.7183 14.6668H24.0612C24.7736 14.6668 25.3541 15.2473 25.3541 15.9596V21.1311C25.3541 24.6955 22.4542 27.5954 18.8898 27.5954C15.3254 27.5954 12.4255 24.6955 12.4255 21.1311ZM21.4755 29.7997V30.9387L18.8898 33.5244L16.304 30.9387V29.7997C17.1237 30.0453 17.9912 30.1811 18.8898 30.1811C19.7883 30.1811 20.6558 30.0453 21.4755 29.7997ZM3.37545 39.2311V38.2989C3.37545 36.4566 4.68641 34.8574 6.49383 34.4954L14.5871 32.8767L18.8898 37.1806L23.1937 32.8767L31.287 34.4954C33.0931 34.8574 34.4041 36.4566 34.4041 38.2989V39.2311H3.37545ZM52.5041 13.3739C52.5041 7.6711 57.1442 3.03103 62.847 3.03103C68.5498 3.03103 73.1899 7.6711 73.1899 13.3739V15.3856C72.7891 15.1516 72.3573 14.9693 71.897 14.8504V13.3739H70.6041C68.449 13.3739 66.4217 12.5348 64.8975 11.0106L62.847 8.96009L60.7965 11.0106C59.2722 12.5348 57.245 13.3739 55.0898 13.3739H53.797V14.8504C53.3367 14.9706 52.9049 15.1516 52.5041 15.3856V13.3739ZM62.847 27.5954C59.2826 27.5954 56.3827 24.6955 56.3827 21.1311V15.8821C58.7396 15.5989 60.9206 14.5427 62.6246 12.8387L62.847 12.6163L63.0694 12.8387C64.7734 14.5427 66.9544 15.5989 69.3113 15.8821V21.1311C69.3113 24.6955 66.4114 27.5954 62.847 27.5954ZM65.4327 29.7997V30.9387L62.847 33.5244L60.2613 30.9387V29.7997C61.0809 30.0453 61.9485 30.1811 62.847 30.1811C63.7455 30.1811 64.613 30.0453 65.4327 29.7997ZM68.0184 28.5469C69.3126 27.6419 70.3546 26.4072 71.0321 24.9657C71.8156 24.8997 72.5447 24.6657 73.1899 24.2895V31.4481L68.0184 30.4138V28.5469ZM71.844 22.093C71.8776 21.7762 71.897 21.4556 71.897 21.1311V17.6119C72.6663 18.0605 73.1899 18.8854 73.1899 19.8382C73.1899 20.813 72.6417 21.6521 71.844 22.093ZM53.797 17.6119V21.1311C53.797 21.4556 53.8164 21.7762 53.85 22.093C53.0523 21.6521 52.5041 20.813 52.5041 19.8382C52.5041 18.8854 53.0277 18.0605 53.797 17.6119ZM52.5041 24.2895C53.1493 24.6657 53.8784 24.8997 54.6619 24.9657C55.3406 26.4072 56.3814 27.6419 57.6756 28.5469V30.4138L52.5041 31.4481V24.2895ZM78.3613 39.2311H47.3327V38.2989C47.3327 36.4566 48.6436 34.8574 50.4511 34.4954L58.5444 32.8767L62.847 37.1806L67.1509 32.8767L75.2442 34.4954C77.0503 34.8574 78.3613 36.4566 78.3613 38.2989V39.2311Z" fill="#5F9AFA"/>
<path opacity="0.4" d="M52.5041 62.5039H49.9183V65.0896H52.5041V62.5039Z" fill="#5F9AFA"/>
<path opacity="0.4" d="M31.8184 62.5039H29.2327V65.0896H31.8184V62.5039Z" fill="#5F9AFA"/>
<path opacity="0.4" d="M62.8471 67.6738H60.2614V70.2596H62.8471V67.6738Z" fill="#5F9AFA"/>
<path opacity="0.4" d="M68.0184 67.6738H65.4327V70.2596H68.0184V67.6738Z" fill="#5F9AFA"/>
<path opacity="0.4" d="M73.1898 67.6738H70.6041V70.2596H73.1898V67.6738Z" fill="#5F9AFA"/>
<path opacity="0.4" d="M11.1327 67.6738H8.54694V70.2596H11.1327V67.6738Z" fill="#5F9AFA"/>
<path opacity="0.4" d="M16.304 67.6738H13.7183V70.2596H16.304V67.6738Z" fill="#5F9AFA"/>
<path opacity="0.4" d="M21.4755 67.6738H18.8898V70.2596H21.4755V67.6738Z" fill="#5F9AFA"/>
</svg>
