<svg width="81" height="81" viewBox="0 0 81 81" fill="none" xmlns="http://www.w3.org/2000/svg">
<g clip-path="url(#clip0)">
<path d="M74.2017 0.546875H7.53508C3.85908 0.546875 0.868408 3.53754 0.868408 7.21354V57.8802V60.5469C0.868408 64.2229 3.85908 67.2135 7.53508 67.2135H32.8684V72.5469H26.2017C22.5257 72.5469 19.5351 75.5375 19.5351 79.2135C19.5351 79.9495 20.1324 80.5469 20.8684 80.5469H60.8684C61.6044 80.5469 62.2017 79.9495 62.2017 79.2135C62.2017 75.5375 59.2111 72.5469 55.5351 72.5469H48.8684V67.2135H74.2017C77.8777 67.2135 80.8684 64.2229 80.8684 60.5469V57.8802V7.21354C80.8684 3.53754 77.8777 0.546875 74.2017 0.546875ZM55.5351 75.2135C57.2737 75.2135 58.7564 76.3282 59.3071 77.8802H22.4297C22.9804 76.3282 24.4631 75.2135 26.2017 75.2135H34.2017H47.5351H55.5351ZM35.5351 72.5469V67.2135H46.2017V72.5469H35.5351ZM78.2017 60.5469C78.2017 62.7522 76.4071 64.5469 74.2017 64.5469H47.5351H34.2017H7.53508C5.32974 64.5469 3.53507 62.7522 3.53507 60.5469V59.2135H78.2017V60.5469ZM78.2017 56.5469H3.53507V7.21354C3.53507 5.00821 5.32974 3.21354 7.53508 3.21354H74.2017C76.4071 3.21354 78.2017 5.00821 78.2017 7.21354V56.5469Z" fill="#5F9AFA"/>
<g opacity="0.4">
<path d="M58.2017 20.5469H55.5351C54.0644 20.5469 52.8684 21.7429 52.8684 23.2135V24.5469H38.2017V21.8802C38.2017 20.4095 37.0057 19.2135 35.5351 19.2135H30.2017V15.2135C30.2017 13.7429 29.0057 12.5469 27.5351 12.5469H24.8684C23.3977 12.5469 22.2017 13.7429 22.2017 15.2135V35.2135C22.2017 35.9495 22.7991 36.5469 23.5351 36.5469H28.8684C29.6044 36.5469 30.2017 35.9495 30.2017 35.2135V32.5469H52.8684V35.2135C52.8684 35.9495 53.4657 36.5469 54.2017 36.5469H59.5351C60.2711 36.5469 60.8684 35.9495 60.8684 35.2135V23.2135C60.8684 21.7429 59.6724 20.5469 58.2017 20.5469ZM30.2017 21.8802H35.5351V24.5469H30.2017V21.8802ZM58.2017 33.8802H55.5351V31.2135C55.5351 30.4775 54.9377 29.8802 54.2017 29.8802H28.8684C28.1324 29.8802 27.5351 30.4775 27.5351 31.2135V33.8802H24.8684V15.2135H27.5351V20.5469V25.8802C27.5351 26.6162 28.1324 27.2135 28.8684 27.2135H36.8684H54.2017C54.9377 27.2135 55.5351 26.6162 55.5351 25.8802V23.2135H58.2017V33.8802Z" fill="#5F9AFA"/>
</g>
<g opacity="0.4">
<path d="M47.5351 39.2139H34.2017C31.9964 39.2139 30.2017 41.0085 30.2017 43.2139V45.8805C30.2017 48.0859 31.9964 49.8805 34.2017 49.8805H47.5351C49.7404 49.8805 51.5351 48.0859 51.5351 45.8805V43.2139C51.5351 41.0085 49.7404 39.2139 47.5351 39.2139ZM48.8684 45.8805C48.8684 46.6152 48.2697 47.2139 47.5351 47.2139H34.2017C33.4671 47.2139 32.8684 46.6152 32.8684 45.8805V43.2139C32.8684 42.4792 33.4671 41.8805 34.2017 41.8805H47.5351C48.2697 41.8805 48.8684 42.4792 48.8684 43.2139V45.8805Z" fill="#5F9AFA"/>
</g>
<path d="M64.0871 47.2137L67.1444 44.1564C67.4844 43.8164 67.6151 43.3204 67.4871 42.8577C67.3591 42.395 66.9911 42.0364 66.5257 41.9204L55.8591 39.2537C55.4044 39.1404 54.9244 39.2724 54.5924 39.6044C54.2604 39.9364 54.1284 40.4164 54.2417 40.871L56.9084 51.5377C57.0244 52.0044 57.3831 52.371 57.8457 52.499C57.9631 52.531 58.0831 52.547 58.2017 52.547C58.5511 52.547 58.8911 52.4097 59.1444 52.1564L62.2017 49.099L67.9257 54.823L69.8111 52.9377L64.0871 47.2137ZM58.9244 48.6057L57.3684 42.3804L63.5937 43.9364L58.9244 48.6057Z" fill="#5F9AFA"/>
<g opacity="0.4">
<path d="M42.2018 16.5469H39.5351V19.2135H42.2018V16.5469Z" fill="#5F9AFA"/>
</g>
<g opacity="0.4">
<path d="M40.8684 11.2139C38.5484 11.2139 36.8658 12.2165 36.0684 12.8139L37.6684 14.9472C38.1991 14.5499 39.3218 13.8805 40.8684 13.8805C41.5324 13.8805 42.8311 14.0192 44.0684 14.9472L45.6684 12.8139C43.8124 11.4219 41.8644 11.2139 40.8684 11.2139Z" fill="#5F9AFA"/>
</g>
<g opacity="0.4">
<path d="M40.8684 5.87988C36.8964 5.87988 34.2404 8.00255 33.2817 8.91455L35.1217 10.8452C35.8471 10.1545 37.8591 8.54655 40.8684 8.54655C41.8711 8.54655 44.4364 8.77055 46.6164 10.8452L48.4551 8.91455C45.5791 6.17588 42.1911 5.87988 40.8684 5.87988Z" fill="#5F9AFA"/>
</g>
<g opacity="0.4">
<path d="M70.2018 25.8799H67.5351V28.5466H70.2018V25.8799Z" fill="#5F9AFA"/>
</g>
<g opacity="0.4">
<path d="M70.2018 17.8799H67.5351V23.2132H70.2018V17.8799Z" fill="#5F9AFA"/>
</g>
<g opacity="0.4">
<path d="M70.2018 8.54688H67.5351V15.2135H70.2018V8.54688Z" fill="#5F9AFA"/>
</g>
<g opacity="0.4">
<path d="M14.2018 25.8799H11.5351V28.5466H14.2018V25.8799Z" fill="#5F9AFA"/>
</g>
<g opacity="0.4">
<path d="M14.2018 17.8799H11.5351V23.2132H14.2018V17.8799Z" fill="#5F9AFA"/>
</g>
<g opacity="0.4">
<path d="M14.2018 8.54688H11.5351V15.2135H14.2018V8.54688Z" fill="#5F9AFA"/>
</g>
</g>
<defs>
<clipPath id="clip0">
<rect width="80" height="80" fill="white" transform="translate(0.868408 0.546875)"/>
</clipPath>
</defs>
</svg>
