<svg width="81" height="81" viewBox="0 0 81 81" fill="none" xmlns="http://www.w3.org/2000/svg">
<g clip-path="url(#clip0)">
<path d="M79.3059 33.3104H69.3059C68.4429 33.3104 67.7434 34.0101 67.7434 34.8729V42.7635C67.7434 43.6263 68.4429 44.326 69.3059 44.326C70.1689 44.326 70.8684 43.6263 70.8684 42.7635V36.4354H77.7434V77.5684H74.3059H70.8684V54.4823C70.8684 53.6195 70.1689 52.9198 69.3059 52.9198C68.4429 52.9198 67.7434 53.6195 67.7434 54.4823V77.5684H64.6184V45.2246C64.6184 44.3618 63.9189 43.6621 63.0559 43.6621H53.0559C52.1929 43.6621 51.4934 44.3618 51.4934 45.2246V77.5684H48.3684V56.1621C48.3684 55.2993 47.6689 54.5996 46.8059 54.5996H36.8059C35.9429 54.5996 35.2434 55.2993 35.2434 56.1621V77.5684H32.1184V65.127C32.1184 64.2641 31.4189 63.5645 30.5559 63.5645H20.5559C19.6929 63.5645 18.9934 64.2641 18.9934 65.127V77.5684H5.55591C4.69435 77.5684 3.99341 76.8674 3.99341 76.0059V5.38086C3.99341 4.5193 4.69435 3.81836 5.55591 3.81836H45.8645V14.1313C45.8645 16.716 47.9673 18.8188 50.552 18.8188H60.8645V38.0371C60.8645 38.8999 61.564 39.5996 62.427 39.5996C63.29 39.5996 63.9895 38.8999 63.9895 38.0371V17.2563C63.9895 16.842 63.8248 16.4446 63.5318 16.1515L48.5318 1.15102C48.2387 0.858047 47.8414 0.693359 47.427 0.693359H5.55591C2.97122 0.693359 0.868408 2.79617 0.868408 5.38086V76.0059C0.868408 78.5905 2.97122 80.6934 5.55591 80.6934H79.3059C80.1689 80.6934 80.8684 79.9937 80.8684 79.1309V34.8729C80.8684 34.0101 80.1689 33.3104 79.3059 33.3104ZM48.9895 6.0282L58.655 15.6938H50.552C49.6903 15.6938 48.9895 14.9929 48.9895 14.1313V6.0282ZM28.9934 77.5684H22.1184V66.6895H28.9934V77.5684ZM45.2434 77.5684H38.3684V57.7246H45.2434V77.5684ZM61.4934 77.5684H54.6184V46.7871H61.4934V77.5684Z" fill="#5F9AFA"/>
<path opacity="0.4" d="M70.4106 47.2273C70.12 46.9353 69.7168 46.7695 69.3059 46.7695C68.895 46.7695 68.4918 46.9353 68.2012 47.2273C67.9106 47.518 67.7434 47.9211 67.7434 48.332C67.7434 48.743 67.9106 49.1461 68.2012 49.4367C68.4918 49.7272 68.895 49.8945 69.3059 49.8945C69.7168 49.8945 70.12 49.7273 70.4106 49.4367C70.7012 49.1461 70.8684 48.743 70.8684 48.332C70.8684 47.9211 70.7012 47.518 70.4106 47.2273Z" fill="#5F9AFA"/>
<path opacity="0.4" d="M23.6148 9.24512C22.7518 9.24512 22.0523 9.9448 22.0523 10.8076V13.6184C14.86 14.3992 9.24371 20.5086 9.24371 27.9051C9.24371 35.8293 15.6906 42.2762 23.6148 42.2762C31.0114 42.2762 37.1208 36.6601 37.9015 29.4676H40.7122C41.5751 29.4676 42.2747 28.7679 42.2747 27.9051C42.2747 17.6159 33.9039 9.24512 23.6148 9.24512ZM23.6148 39.1511C17.4137 39.1511 12.3687 34.1061 12.3687 27.905C12.3687 22.2342 16.5882 17.5301 22.0523 16.7671V27.905C22.0523 28.7678 22.7518 29.4675 23.6148 29.4675H34.7526C33.9897 34.9315 29.2856 39.1511 23.6148 39.1511ZM25.1773 26.3426V26.3425V12.4481C32.4979 13.1828 38.337 19.022 39.0717 26.3426H25.1773Z" fill="#5F9AFA"/>
<path opacity="0.4" d="M40.7122 46.6699H10.8684C10.0054 46.6699 9.30591 47.3696 9.30591 48.2324C9.30591 49.0952 10.0054 49.7949 10.8684 49.7949H40.7122C41.5751 49.7949 42.2747 49.0952 42.2747 48.2324C42.2747 47.3696 41.5751 46.6699 40.7122 46.6699Z" fill="#5F9AFA"/>
<path opacity="0.4" d="M20.8684 54.209H10.8684C10.0054 54.209 9.30591 54.9087 9.30591 55.7715C9.30591 56.6343 10.0054 57.334 10.8684 57.334H20.8684C21.7314 57.334 22.4309 56.6343 22.4309 55.7715C22.4309 54.9087 21.7314 54.209 20.8684 54.209Z" fill="#5F9AFA"/>
<path opacity="0.4" d="M29.7981 54.6668C29.5075 54.3762 29.1044 54.209 28.6934 54.209C28.2809 54.209 27.8794 54.376 27.5887 54.6668C27.2965 54.9574 27.1309 55.3605 27.1309 55.7715C27.1309 56.1824 27.2965 56.5855 27.5887 56.876C27.8794 57.1666 28.2809 57.334 28.6934 57.334C29.1044 57.334 29.5075 57.1668 29.7981 56.876C30.0887 56.5855 30.2559 56.1824 30.2559 55.7715C30.2559 55.3605 30.0887 54.9574 29.7981 54.6668Z" fill="#5F9AFA"/>
</g>
<defs>
<clipPath id="clip0">
<rect width="80" height="80" fill="white" transform="translate(0.868408 0.693359)"/>
</clipPath>
</defs>
</svg>
