<svg width="81" height="81" viewBox="0 0 81 81" fill="none" xmlns="http://www.w3.org/2000/svg">
<g clip-path="url(#clip0)">
<path d="M64.3167 47.6504C55.1898 47.6504 47.765 55.0752 47.765 64.2021C47.765 73.329 55.1898 80.7538 64.3167 80.7538C73.4436 80.7538 80.8684 73.329 80.8684 64.2021C80.8684 55.0752 73.4436 47.6504 64.3167 47.6504ZM64.3167 77.9952C56.7112 77.9952 50.5236 71.8076 50.5236 64.2021C50.5236 56.5966 56.7112 50.409 64.3167 50.409C71.9222 50.409 78.1098 56.5966 78.1098 64.2021C78.1098 71.8076 71.9222 77.9952 64.3167 77.9952Z" fill="#5F9AFA"/>
<path opacity="0.4" d="M72.5925 62.8227H65.696V55.9262C65.696 55.1634 65.0794 54.5469 64.3167 54.5469C63.5539 54.5469 62.9374 55.1634 62.9374 55.9262V64.202C62.9374 64.9648 63.5539 65.5814 64.3167 65.5814H72.5925C73.3553 65.5814 73.9719 64.9648 73.9719 64.202C73.9719 63.4393 73.3553 62.8227 72.5925 62.8227Z" fill="#5F9AFA"/>
<path opacity="0.4" d="M38.1098 29.7197H35.3511H25.696H22.9374H10.5236V42.1335V44.8921V54.5473V57.3059V69.7197H22.9374H25.696H38.1098V57.3059V54.5473V44.8921H47.7649H50.5236H62.9374V29.7197H50.5236H47.7649H38.1098ZM50.5236 32.4783H60.1787V42.1335H50.5236V32.4783ZM25.696 32.4783H35.3511V42.1335H25.696V32.4783ZM13.2822 32.4783H22.9374V42.1335H13.2822V32.4783ZM13.2822 44.8921H22.9374V54.5473H13.2822V44.8921ZM22.9374 66.9611H13.2822V57.3059H22.9374V66.9611ZM35.3511 66.9611H25.696V57.3059H35.3511V66.9611ZM35.3511 54.5473H25.696V44.8921H35.3511V54.5473ZM47.7649 42.1335H38.1098V32.4783H47.7649V42.1335Z" fill="#5F9AFA"/>
<path d="M46.3857 76.616H3.62703V22.8229H69.8339V40.7539C69.8339 41.5167 70.4505 42.1332 71.2132 42.1332C71.976 42.1332 72.5925 41.5167 72.5925 40.7539V21.4436V7.65046C72.5925 6.8877 71.976 6.27115 71.2132 6.27115H64.3167V2.13322C64.3167 1.37046 63.7001 0.753906 62.9374 0.753906H53.2822C52.5194 0.753906 51.9029 1.37046 51.9029 2.13322V6.27115H21.5581V2.13322C21.5581 1.37046 20.9415 0.753906 20.1788 0.753906H10.5236C9.76082 0.753906 9.14427 1.37046 9.14427 2.13322V6.27115H2.24772C1.48496 6.27115 0.868408 6.8877 0.868408 7.65046V21.4436V77.9953C0.868408 78.758 1.48496 79.3746 2.24772 79.3746H46.3857C47.1484 79.3746 47.765 78.758 47.765 77.9953C47.765 77.2325 47.1484 76.616 46.3857 76.616ZM54.6615 3.51253H61.5581V7.65046V11.7884H54.6615V7.65046V3.51253ZM11.9029 3.51253H18.7994V7.65046V11.7884H11.9029V7.65046V3.51253ZM3.62703 9.02977H9.14427V13.1677C9.14427 13.9305 9.76082 14.547 10.5236 14.547H20.1788C20.9415 14.547 21.5581 13.9305 21.5581 13.1677V9.02977H51.9029V13.1677C51.9029 13.9305 52.5194 14.547 53.2822 14.547H62.9374C63.7001 14.547 64.3167 13.9305 64.3167 13.1677V9.02977H69.8339V20.0643H3.62703V9.02977Z" fill="#5F9AFA"/>
</g>
<defs>
<clipPath id="clip0">
<rect width="80" height="80" fill="white" transform="translate(0.868408 0.753906)"/>
</clipPath>
</defs>
</svg>
