<svg width="90" height="81" viewBox="0 0 90 81" fill="none" xmlns="http://www.w3.org/2000/svg">
<path opacity="0.4" d="M30.9543 14.7715C31.9143 14.7715 32.6936 13.9922 32.6936 13.0322C32.6936 12.0722 31.9143 11.293 30.9543 11.293C29.9943 11.293 29.215 12.0722 29.215 13.0322C29.215 13.9922 29.9943 14.7715 30.9543 14.7715Z" fill="#5F9AFA"/>
<path opacity="0.4" d="M17.0401 21.7285C16.0808 21.7285 15.3009 20.9486 15.3009 19.9893C15.3009 19.03 16.0808 18.25 17.0401 18.25C17.6564 18.25 18.3065 18.5646 18.9214 19.1591C19.6117 19.8269 20.713 19.8086 21.3808 19.119C22.0487 18.428 22.0303 17.3274 21.3401 16.6595C20.4575 15.8049 19.5743 15.3218 18.7794 15.0582V13.0322C18.7794 12.0716 18.0008 11.293 17.0401 11.293C16.0795 11.293 15.3009 12.0716 15.3009 13.0322V15.0704C13.2763 15.7886 11.8224 17.7221 11.8224 19.9893C11.8224 22.8665 14.1629 25.2071 17.0401 25.2071C17.9988 25.2071 18.7794 25.987 18.7794 26.9463C18.7794 27.9057 17.9988 28.6856 17.0401 28.6856C16.2969 28.6856 15.4945 28.2182 14.7811 27.3703C14.1636 26.6345 13.0663 26.5394 12.3312 27.1576C11.5954 27.7759 11.501 28.8731 12.1186 29.6082C13.0487 30.7143 14.1418 31.4854 15.3009 31.8733V33.9034C15.3009 34.8641 16.0795 35.6427 17.0401 35.6427C18.0008 35.6427 18.7794 34.8641 18.7794 33.9034V31.8652C20.8033 31.1471 22.2579 29.2135 22.2579 26.9463C22.2579 24.0691 19.9174 21.7285 17.0401 21.7285Z" fill="#5F9AFA"/>
<path opacity="0.4" d="M40.6942 59.9932C36.8583 59.9932 33.7371 63.1143 33.7371 66.9502C33.7371 70.7861 36.8583 73.9073 40.6942 73.9073C44.5301 73.9073 47.6512 70.7861 47.6512 66.9502C47.6512 63.1143 44.5301 59.9932 40.6942 59.9932ZM40.6942 70.4287C38.7762 70.4287 37.2156 68.8682 37.2156 66.9502C37.2156 65.0323 38.7762 63.4717 40.6942 63.4717C42.6121 63.4717 44.1727 65.0323 44.1727 66.9502C44.1727 68.8682 42.6121 70.4287 40.6942 70.4287Z" fill="#5F9AFA"/>
<path opacity="0.4" d="M75.4794 73.9073C79.3153 73.9073 82.4364 70.7861 82.4364 66.9502C82.4364 63.1143 79.3153 59.9932 75.4794 59.9932C71.6435 59.9932 68.5223 63.1143 68.5223 66.9502C68.5223 70.7861 71.6435 73.9073 75.4794 73.9073ZM75.4794 63.4717C77.3973 63.4717 78.9579 65.0323 78.9579 66.9502C78.9579 68.8682 77.3973 70.4287 75.4794 70.4287C73.5614 70.4287 72.0009 68.8682 72.0009 66.9502C72.0009 65.0323 73.5614 63.4717 75.4794 63.4717Z" fill="#5F9AFA"/>
<path d="M84.1757 0.857422H5.56105C2.68379 0.857422 0.343262 3.19795 0.343262 6.07521V40.8605C0.343262 43.7377 2.68379 46.0783 5.56105 46.0783H48.3761L45.0505 50.8279C44.0613 52.2411 42.5265 53.0747 40.9517 53.0373C33.856 52.9239 28.2523 57.946 27.0464 64.1938C26.1557 68.8048 27.5797 73.5131 30.8551 76.7885C34.14 80.0727 38.853 81.4852 43.4518 80.5972C48.8456 79.5557 53.208 75.2456 54.3087 69.8722C54.6626 68.1431 54.7034 66.4079 54.4296 64.7155C54.2482 63.5952 54.2366 61.9667 55.2082 60.578L58.0868 56.4676L60.9647 60.5773C61.9369 61.9667 61.9247 63.5952 61.744 64.7149C61.4702 66.4079 61.511 68.1431 61.8649 69.8722C62.9649 75.2456 67.328 79.5557 72.7217 80.5972C73.6267 80.7718 74.5351 80.8574 75.4359 80.8574C79.1258 80.8574 82.6845 79.4211 85.3164 76.7891C88.5925 73.5144 90.0165 68.8055 89.1272 64.1931C87.9199 57.9406 82.2979 52.9096 75.2185 53.0373C73.6505 53.0659 72.1123 52.2411 71.1224 50.8273L67.7968 46.0783H84.1757C87.053 46.0783 89.3935 43.737 89.3935 40.8605V6.07521C89.3935 3.19795 87.053 0.857422 84.1757 0.857422ZM52.3588 58.5833C51.0788 60.4129 50.5944 62.7881 50.9952 65.2706C51.2018 66.5458 51.1698 67.8598 50.9008 69.1744C50.0923 73.1231 46.7578 76.4162 42.7921 77.1818C39.2633 77.8626 35.8093 76.8231 33.3145 74.3284C30.8204 71.8343 29.781 68.3809 30.4617 64.8528C31.3415 60.2954 35.5307 56.4269 40.8891 56.5152C43.6271 56.5668 46.2462 55.1856 47.8999 52.8227C50.2356 49.4868 66.0636 26.8832 68.1059 23.9658C70.9132 26.9287 71.3113 31.5248 68.9171 34.9375C67.6962 36.6808 52.3588 58.5833 52.3588 58.5833ZM75.1343 56.5165C81.0138 56.5165 84.8762 60.5236 85.7119 64.8528C86.3919 68.3809 85.3518 71.8356 82.857 74.3297C80.3629 76.8231 76.9096 77.8626 73.3814 77.1818C69.4158 76.4162 66.0813 73.1231 65.2728 69.1751C65.0038 67.8598 64.9718 66.5458 65.1784 65.2699C65.5792 62.7881 65.0948 60.4129 63.8148 58.5826L60.2099 53.4355L64.4562 47.3718L68.273 52.822C69.8975 55.1435 72.454 56.5165 75.1343 56.5165ZM85.915 40.8605C85.915 41.8198 85.135 42.5997 84.1757 42.5997H67.7981L71.7651 36.9342C72.0566 36.5191 72.3175 36.087 72.5532 35.6427H77.2187C78.1794 35.6427 78.9579 34.8641 78.9579 33.9034C78.9579 32.9427 78.1794 32.1642 77.2187 32.1642H73.7673C74.3217 29.1503 73.7055 26.0366 72.0953 23.4678H77.2187C78.1794 23.4678 78.9579 22.6892 78.9579 21.7286C78.9579 20.7679 78.1794 19.9893 77.2187 19.9893H68.7968C68.7907 19.9846 68.7846 19.9798 68.7785 19.9757C68.4007 19.7108 67.9326 19.6068 67.4781 19.687C67.0236 19.7671 66.6194 20.024 66.3551 20.4024L50.8118 42.5997H5.56105C4.60174 42.5997 3.82179 41.8198 3.82179 40.8605V6.07521C3.82179 5.1159 4.60174 4.33595 5.56105 4.33595H54.6083V6.07521C54.6083 7.03588 55.3869 7.81447 56.3475 7.81447C57.3082 7.81447 58.0868 7.03588 58.0868 6.07521V4.33595H84.1757C85.135 4.33595 85.915 5.1159 85.915 6.07521V40.8605Z" fill="#5F9AFA"/>
<path opacity="0.4" d="M56.3475 11.293C55.3869 11.293 54.6083 12.0716 54.6083 13.0322V16.5108C54.6083 17.4714 55.3869 18.25 56.3475 18.25C57.3082 18.25 58.0868 17.4714 58.0868 16.5108V13.0322C58.0868 12.0716 57.3082 11.293 56.3475 11.293Z" fill="#5F9AFA"/>
<path opacity="0.4" d="M56.3475 21.7295C55.3869 21.7295 54.6083 22.5081 54.6083 23.4688V26.9473C54.6083 27.908 55.3869 28.6865 56.3475 28.6865C57.3082 28.6865 58.0868 27.908 58.0868 26.9473V23.4688C58.0868 22.5081 57.3082 21.7295 56.3475 21.7295Z" fill="#5F9AFA"/>
<path opacity="0.4" d="M45.9119 32.1641H30.9543C29.9936 32.1641 29.215 32.9427 29.215 33.9033C29.215 34.864 29.9936 35.6426 30.9543 35.6426H45.9119C46.8726 35.6426 47.6512 34.864 47.6512 33.9033C47.6512 32.9427 46.8726 32.1641 45.9119 32.1641Z" fill="#5F9AFA"/>
<path opacity="0.4" d="M45.9119 21.7295H30.9543C29.9936 21.7295 29.215 22.5081 29.215 23.4688C29.215 24.4294 29.9936 25.208 30.9543 25.208H45.9119C46.8726 25.208 47.6512 24.4294 47.6512 23.4688C47.6512 22.5081 46.8726 21.7295 45.9119 21.7295Z" fill="#5F9AFA"/>
<path d="M77.2187 11.293H66.7831C65.8225 11.293 65.0439 12.0716 65.0439 13.0322C65.0439 13.9929 65.8225 14.7715 66.7831 14.7715H77.2187C78.1794 14.7715 78.958 13.9929 78.958 13.0322C78.958 12.0716 78.1794 11.293 77.2187 11.293Z" fill="#5F9AFA"/>
<path opacity="0.4" d="M45.9119 11.293H37.9113C36.9506 11.293 36.1721 12.0716 36.1721 13.0322C36.1721 13.9929 36.9506 14.7715 37.9113 14.7715H45.9119C46.8726 14.7715 47.6512 13.9929 47.6512 13.0322C47.6512 12.0716 46.8726 11.293 45.9119 11.293Z" fill="#5F9AFA"/>
</svg>
