<svg width="82" height="81" viewBox="0 0 82 81" fill="none" xmlns="http://www.w3.org/2000/svg">
<path opacity="0.4" d="M54.4579 52.1172C52.5399 52.1172 50.9796 50.7667 50.9796 49.1068C50.9796 47.4467 52.5399 46.0962 54.4579 46.0962C56.3758 46.0962 57.9361 47.4467 57.9361 49.1068C57.9361 49.9798 58.6441 50.6878 59.5171 50.6878C60.3902 50.6878 61.0982 49.9798 61.0982 49.1068C61.0982 46.2095 58.9394 43.7735 56.0389 43.1123V42.29C56.0389 41.417 55.3309 40.709 54.4579 40.709C53.5848 40.709 52.8768 41.417 52.8768 42.29V43.1123C49.9763 43.7735 47.8176 46.2095 47.8176 49.1068C47.8176 52.5102 50.7964 55.2792 54.4579 55.2792C56.3758 55.2792 57.9361 56.6297 57.9361 58.2898C57.9361 59.9499 56.3758 61.3004 54.4579 61.3004C52.5399 61.3004 50.9796 59.9499 50.9796 58.2898C50.9796 57.4168 50.2716 56.7088 49.3986 56.7088C48.5255 56.7088 47.8176 57.4168 47.8176 58.2898C47.8176 61.187 49.9763 63.6231 52.8768 64.2843V64.9673C52.8768 65.8403 53.5848 66.5483 54.4579 66.5483C55.3309 66.5483 56.0389 65.8403 56.0389 64.9673V64.2843C58.9394 63.6231 61.0982 61.187 61.0982 58.2898C61.0982 54.8862 58.1194 52.1172 54.4579 52.1172Z" fill="#5F9AFA"/>
<path opacity="0.4" d="M71.7746 42.7117C69.7093 39.4936 66.7996 36.9184 63.36 35.265C62.5728 34.8865 61.6282 35.2178 61.25 36.0049C60.8717 36.7919 61.2029 37.7364 61.9899 38.1148C67.9837 40.996 71.8565 47.1524 71.8565 53.7987C71.8565 56.6426 71.1554 59.463 69.8294 61.9554C69.4193 62.7261 69.7116 63.6836 70.4826 64.0937C70.7191 64.2196 70.9733 64.2793 71.2237 64.2793C71.7894 64.2793 72.3366 63.9748 72.6209 63.4406C74.1894 60.4929 75.0185 57.1587 75.0185 53.7987C75.0185 49.8525 73.8968 46.0186 71.7746 42.7117Z" fill="#5F9AFA"/>
<path opacity="0.4" d="M56.943 33.2472L56.8366 33.2471C55.9635 33.2471 55.2556 33.9549 55.2556 34.8281C55.2556 35.7013 55.9635 36.4091 56.8366 36.4091L56.9281 36.4093C56.9307 36.4093 56.933 36.4093 56.9357 36.4093C57.8055 36.4093 58.5125 35.7063 58.5166 34.8357C58.5206 33.9625 57.816 33.2513 56.943 33.2472Z" fill="#5F9AFA"/>
<path opacity="0.4" d="M46.9405 69.4848C40.9468 66.6034 37.0741 60.447 37.0741 53.8009C37.0741 50.9569 37.7751 48.1366 39.1011 45.6442C39.5112 44.8735 39.2189 43.916 38.448 43.5059C37.6774 43.0958 36.7196 43.3881 36.3097 44.159C34.7411 47.1068 33.912 50.4409 33.912 53.8009C33.912 57.7471 35.0338 61.5808 37.156 64.8878C39.2213 68.106 42.131 70.6812 45.5705 72.3348C45.7914 72.441 46.0247 72.4911 46.2545 72.4911C46.8432 72.4911 47.4083 72.1609 47.6805 71.5948C48.0586 70.8078 47.7275 69.8631 46.9405 69.4848Z" fill="#5F9AFA"/>
<path opacity="0.4" d="M52.0939 71.1917L52.0023 71.1914C51.1252 71.1898 50.4182 71.8917 50.4142 72.765C50.4101 73.6382 51.1149 74.3494 51.9879 74.3535L52.0939 74.3538C52.9669 74.3538 53.6749 73.6458 53.6749 72.7728C53.6749 71.8997 52.9669 71.1917 52.0939 71.1917Z" fill="#5F9AFA"/>
<path d="M61.6444 27.8979C61.4519 27.4394 61.2162 27.0073 60.9419 26.6065H65.0579C69.0681 26.6065 72.3307 23.3439 72.3307 19.3338C72.3307 15.3237 69.0681 12.0611 65.0579 12.0611H52.3971C53.202 10.8908 53.6746 9.47503 53.6746 7.95045C53.6746 3.94034 50.412 0.677734 46.4019 0.677734H7.66676C3.65665 0.677734 0.394043 3.94034 0.394043 7.95045C0.394043 11.9606 3.65665 15.2232 7.66676 15.2232H20.3276C19.5227 16.3934 19.0501 17.8092 19.0501 19.3338C19.0501 20.8584 19.5225 22.2742 20.3276 23.4445H16.2043C12.1942 23.4445 8.93158 26.7071 8.93158 30.7172C8.93158 33.0203 10.0089 35.0755 11.6849 36.4089C10.0089 37.7423 8.93158 39.7975 8.93158 42.1006C8.93158 44.4037 10.0089 46.4588 11.6849 47.7923C10.0089 49.1257 8.93158 51.1809 8.93158 53.484C8.93158 55.787 10.0089 57.8422 11.6849 59.1756C10.0089 60.5091 8.93158 62.5643 8.93158 64.8673C8.93158 68.8774 12.1942 72.14 16.2043 72.14H34.8367C39.7451 77.3902 46.7279 80.6777 54.4652 80.6777C69.2854 80.6777 81.3427 68.6205 81.3427 53.8003C81.3427 41.4656 72.9901 31.0465 61.6444 27.8979ZM65.0579 15.2232C67.3247 15.2232 69.1686 17.0673 69.1686 19.3338C69.1686 21.6004 67.3247 23.4445 65.0579 23.4445H54.9394H26.3228C24.0561 23.4445 22.2122 21.6004 22.2122 19.3338C22.2122 17.0673 24.0561 15.2232 26.3228 15.2232H65.0579ZM7.66676 12.0611C5.40004 12.0611 3.55609 10.217 3.55609 7.95045C3.55609 5.68389 5.40004 3.83978 7.66676 3.83978H46.4019C48.6686 3.83978 50.5125 5.68389 50.5125 7.95045C50.5125 10.217 48.6686 12.0611 46.4019 12.0611H7.66676ZM16.2043 26.6065H54.9394C55.5762 26.6065 56.186 26.7545 56.7331 27.0195C55.9852 26.9567 55.2292 26.9229 54.4652 26.9229C47.0431 26.9229 40.3143 29.9472 35.4457 34.8279H16.2043C13.9377 34.8279 12.0936 32.9838 12.0936 30.7172C12.0936 28.4506 13.9377 26.6065 16.2043 26.6065ZM16.2043 37.9899H32.7442C30.9494 40.4489 29.5617 43.2223 28.6805 46.2112H16.2043C13.9376 46.2112 12.0936 44.3673 12.0936 42.1006C12.0936 39.834 13.9376 37.9899 16.2043 37.9899ZM16.2043 49.3733H27.9545C27.7146 50.8141 27.5878 52.2925 27.5878 53.8003C27.5878 55.0882 27.6809 56.3546 27.8569 57.5946H16.2043C13.9376 57.5946 12.0936 55.7507 12.0936 53.484C12.0936 51.2172 13.9376 49.3733 16.2043 49.3733ZM16.2043 68.978C13.9376 68.978 12.0936 67.134 12.0936 64.8673C12.0936 62.6006 13.9376 60.7567 16.2043 60.7567H28.5024C29.3002 63.731 30.5962 66.5031 32.2958 68.978H16.2043ZM54.4652 77.5157C41.3886 77.5157 30.7499 66.877 30.7499 53.8003C30.7499 40.7237 41.3886 30.0849 54.4652 30.0849C67.5419 30.0849 78.1806 40.7237 78.1806 53.8003C78.1806 66.877 67.5419 77.5157 54.4652 77.5157Z" fill="#5F9AFA"/>
</svg>
