<svg width="81" height="81" viewBox="0 0 81 81" fill="none" xmlns="http://www.w3.org/2000/svg">
<g clip-path="url(#clip0)">
<path opacity="0.4" d="M38.4966 32.2502C38.4966 29.113 35.9441 26.5605 32.8069 26.5605C29.6697 26.5605 27.1172 29.113 27.1172 32.2502C27.1172 35.3875 29.6697 37.9399 32.8069 37.9399C35.9441 37.9399 38.4966 35.3875 38.4966 32.2502ZM29.4719 32.2502C29.4719 30.4113 30.9679 28.9147 32.8069 28.9147C34.6459 28.9147 36.1425 30.4113 36.1425 32.2502C36.1425 34.0892 34.6459 35.5858 32.8069 35.5858C30.9679 35.5858 29.4719 34.0892 29.4719 32.2502Z" fill="#5F9AFA"/>
<path opacity="0.4" d="M43.5082 48.6419C43.5082 51.7791 46.0607 54.3316 49.1979 54.3316C52.3351 54.3316 54.8876 51.7791 54.8876 48.6419C54.8876 45.5046 52.3351 42.9521 49.1979 42.9521C46.0607 42.9521 43.5082 45.5046 43.5082 48.6419ZM52.5334 48.6419C52.5334 50.4808 51.0375 51.9774 49.1979 51.9774C47.3589 51.9774 45.8629 50.4808 45.8629 48.6419C45.8629 46.8029 47.3589 45.3069 49.1979 45.3069C51.0375 45.3069 52.5334 46.8029 52.5334 48.6419Z" fill="#5F9AFA"/>
<path d="M50.8484 28.9463L30.758 49.0366C30.2984 49.4962 30.2984 50.2414 30.758 50.701C31.2182 51.1612 31.9635 51.1606 32.4231 50.701L52.5134 30.6113C52.973 30.1511 52.973 29.4059 52.5134 28.9463C52.0538 28.4867 51.3086 28.4867 50.8484 28.9463Z" fill="#5F9AFA"/>
<path opacity="0.4" d="M41.0027 16.5898C27.8478 16.5898 17.1453 27.2924 17.1453 40.4473C17.1453 53.6016 27.8478 64.3041 41.0027 64.3041C54.157 64.3041 64.8595 53.6016 64.8595 40.4473C64.8595 29.0721 56.7699 19.2278 45.6243 17.0391C44.9846 16.9139 44.3676 17.3296 44.2418 17.9674C44.1167 18.6052 44.5324 19.2241 45.1702 19.3492C55.2147 21.3219 62.5048 30.1946 62.5048 40.4473C62.5048 52.3034 52.8588 61.95 41.0021 61.95C29.1454 61.95 19.4994 52.3034 19.4994 40.4473C19.4994 28.5906 29.1454 18.944 41.0021 18.944C41.6527 18.944 42.1795 18.4172 42.1795 17.7672C42.1795 17.1166 41.6527 16.5898 41.0027 16.5898Z" fill="#5F9AFA"/>
<path d="M72.2235 41.7777C71.5588 41.0191 71.5588 39.874 72.2235 39.1148L78.1738 32.3209C80.3564 29.8289 79.0863 25.9055 75.8508 25.1713L67.0434 23.1724C66.0589 22.949 65.3863 22.0231 65.4779 21.0178L66.2988 12.0243C66.6003 8.71924 63.2605 6.29919 60.2166 7.60534L51.9165 11.1649C50.9893 11.5629 49.9005 11.2089 49.3841 10.3422L44.7613 2.58337C43.4118 0.318964 40.9869 0.443476 41.0028 0.447748C39.4458 0.447748 38.0407 1.24609 37.2436 2.58337L32.6208 10.3422C32.1044 11.2089 31.0156 11.5629 30.0885 11.1649L21.7883 7.60534C18.7383 6.29675 15.4052 8.72595 15.7061 12.0243L16.527 21.0178C16.6186 22.0231 15.9454 22.949 14.9615 23.1724L6.15412 25.1713C2.92352 25.9043 1.64484 29.8252 3.83112 32.3209L9.78144 39.1148C10.4467 39.874 10.4467 41.0184 9.78144 41.7777L3.83112 48.5716C2.80573 49.7428 2.48041 51.3261 2.96137 52.8068C3.44232 54.2869 4.63617 55.377 6.15412 55.7212L8.56745 56.2693C9.2016 56.4121 9.8321 56.0154 9.97614 55.3819C10.1202 54.7477 9.72284 54.1172 9.08869 53.9732L6.67536 53.4257C5.97406 53.2664 5.42291 52.7628 5.20075 52.0792C4.97858 51.395 5.12873 50.6638 5.60236 50.1231L11.5527 43.3292C12.9925 41.6856 12.9925 39.2069 11.5527 37.5639L5.60236 30.77C4.59406 29.6189 5.18122 27.8062 6.67536 27.4674L15.4827 25.4685C17.6135 24.9851 19.0704 22.9801 18.8714 20.8042L18.0511 11.8101C17.9119 10.286 19.4519 9.1654 20.8605 9.76904L29.1601 13.3286C31.1682 14.1904 33.5253 13.4244 34.6435 11.547L39.2663 3.78881C40.0494 2.47412 41.9543 2.47167 42.7386 3.78881L47.3614 11.547C48.4796 13.4244 50.8374 14.1904 52.8448 13.3286L61.145 9.76904C62.5518 9.16662 64.0936 10.2836 63.9538 11.8101L63.1335 20.8042C62.9352 22.9795 64.3921 24.9851 66.5222 25.4685L75.3296 27.4674C76.8219 27.8062 77.4121 29.6171 76.4026 30.77L70.4522 37.5639C69.013 39.2075 69.013 41.6856 70.4522 43.3292L76.4026 50.1231C77.4109 51.2742 76.8243 53.0863 75.3296 53.4257L66.5222 55.424C64.3921 55.908 62.9352 57.913 63.1335 60.0889L63.9538 69.0824C64.093 70.6065 62.5537 71.7277 61.145 71.1241L52.8448 67.5639C50.8374 66.7027 48.4796 67.4687 47.3614 69.3455L42.7386 77.1043C41.9543 78.4214 40.0494 78.4184 39.2663 77.1043L34.6435 69.3455C33.5253 67.4687 31.1682 66.7021 29.1601 67.5639L20.8599 71.1241C19.4537 71.7265 17.9113 70.6089 18.0511 69.0824L18.8714 60.0889C19.0704 57.913 17.6129 55.908 15.4827 55.4246L13.377 54.9461C12.7423 54.802 12.1124 55.1994 11.9683 55.8335C11.8243 56.4677 12.2216 57.0982 12.8558 57.2422L14.9615 57.7201C15.9454 57.9435 16.6186 58.87 16.527 59.8747L15.7061 68.8688C15.4046 72.1732 18.7438 74.5933 21.7877 73.2871L30.0878 69.7276C31.0156 69.3296 32.1044 69.6836 32.6208 70.5503L37.2436 78.3091C38.9392 81.1552 43.0627 81.1595 44.7607 78.3091L49.3835 70.5503C49.8999 69.6836 50.9881 69.3296 51.9165 69.7276L60.2166 73.2871C63.2611 74.5933 66.5997 72.1726 66.2982 68.8688L65.4779 59.8747C65.3857 58.87 66.0589 57.9435 67.0434 57.7201L75.8502 55.7218C79.0808 54.9882 80.3595 51.0679 78.1732 48.5716L72.2235 41.7777Z" fill="#5F9AFA"/>
</g>
<defs>
<clipPath id="clip0">
<rect width="80" height="80" fill="white" transform="translate(0.868408 0.445312)"/>
</clipPath>
</defs>
</svg>
