<svg width="81" height="81" viewBox="0 0 81 81" fill="none" xmlns="http://www.w3.org/2000/svg">
<path d="M80.8704 31.1073C80.8704 31.0793 80.8558 31.0553 80.8545 31.0287C80.8462 30.9363 80.8279 30.8451 80.7998 30.7566C80.7814 30.6777 80.7559 30.6005 80.7239 30.526C80.6857 30.4554 80.6412 30.3883 80.5906 30.326C80.5378 30.2496 80.477 30.1789 80.4092 30.1153C80.3877 30.0966 80.3785 30.0713 80.3559 30.0539L67.5363 20.0946V9.77239C67.5363 7.56316 65.7452 5.77209 63.536 5.77209H49.0855L43.2996 1.27971C41.87 0.165877 39.8662 0.165877 38.4366 1.27971L32.6496 5.77209H18.1992C15.9899 5.77209 14.1988 7.563 14.1988 9.77239V20.0946L1.38054 30.0539C1.35788 30.0713 1.3485 30.0966 1.32725 30.1153C1.25943 30.1789 1.19865 30.2496 1.14583 30.326C1.0952 30.3883 1.05051 30.4554 1.01254 30.526C0.980194 30.6004 0.954723 30.6776 0.936597 30.7566C0.908783 30.8434 0.8905 30.9328 0.881905 31.0234C0.881905 31.0501 0.865967 31.074 0.865967 31.102V76.444C0.87128 76.8734 0.946442 77.2989 1.08864 77.7041C0.782523 78.1657 0.796899 78.7692 1.12442 79.2158C1.45195 79.6624 2.02324 79.8574 2.55547 79.7043C3.22927 80.1857 4.03683 80.4445 4.86502 80.4443H76.8705C77.7021 80.4426 78.5121 80.1801 79.1866 79.6936C79.3003 79.7287 79.4183 79.7479 79.5372 79.751C80.0243 79.7538 80.4734 79.4885 80.7059 79.0605C80.9384 78.6325 80.9167 78.1113 80.6493 77.7043C80.7911 77.2991 80.8658 76.8734 80.8708 76.4442V31.1073H80.8704ZM40.0674 3.38393C40.533 3.01391 41.1924 3.01391 41.6581 3.38393L44.7343 5.77209H37.0004L40.0674 3.38393ZM5.19551 77.7776L40.0675 50.6902C40.5335 50.3224 41.191 50.3224 41.657 50.6902L76.5395 77.7776H5.19551ZM78.2037 75.6948L43.297 48.5847C41.8683 47.4724 39.8667 47.4724 38.438 48.5847L3.53132 75.6948V33.1381L25.3823 50.1061C25.9646 50.5575 26.8025 50.4516 27.2539 49.8694C27.7053 49.2871 27.5994 48.4492 27.0172 47.9978L4.81814 30.7593L14.1988 23.4708V33.7742C14.1988 34.5107 14.7959 35.1076 15.5322 35.1076C16.2687 35.1076 16.8656 34.5105 16.8656 33.7742V9.77239C16.8656 9.03593 17.4625 8.43901 18.199 8.43901H63.5357C64.2722 8.43901 64.8691 9.03593 64.8691 9.77239V33.7742C64.8691 34.5107 65.466 35.1076 66.2025 35.1076C66.9389 35.1076 67.5358 34.5105 67.5358 33.7742V23.4708L76.9165 30.7593L54.6778 48.0286C54.0961 48.4803 53.9908 49.3182 54.4425 49.9001C54.8943 50.4819 55.7321 50.5872 56.3141 50.1355L78.2037 33.1382V75.6948Z" fill="#5F9AFA"/>
<path opacity="0.4" d="M27.5331 17.7722H54.2018C54.9383 17.7722 55.5352 17.1753 55.5352 16.4389C55.5352 15.7024 54.9383 15.1055 54.2018 15.1055H27.5331C26.7966 15.1055 26.1997 15.7024 26.1997 16.4389C26.1997 17.1753 26.7966 17.7722 27.5331 17.7722Z" fill="#5F9AFA"/>
<path opacity="0.4" d="M55.5352 24.4389C55.5352 23.7024 54.9383 23.1055 54.2018 23.1055H27.5331C26.7966 23.1055 26.1997 23.7025 26.1997 24.4389C26.1997 25.1753 26.7966 25.7722 27.5331 25.7722H54.2018C54.9383 25.7722 55.5352 25.1752 55.5352 24.4389Z" fill="#5F9AFA"/>
<path opacity="0.4" d="M55.5352 32.4398C55.5352 31.7034 54.9383 31.1064 54.2019 31.1064H42.2009C41.4645 31.1064 40.8676 31.7034 40.8676 32.4398C40.8676 33.1763 41.4645 33.7732 42.2009 33.7732H54.2019C54.9383 33.7732 55.5352 33.1761 55.5352 32.4398Z" fill="#5F9AFA"/>
</svg>
