<svg width="64" height="81" viewBox="0 0 64 81" fill="none" xmlns="http://www.w3.org/2000/svg">
<path d="M26.8684 10.4863H10.2017V13.8196H26.8684V10.4863Z" fill="#5F9AFA"/>
<path d="M13.5349 17.1531H10.2017V20.4863H13.5349V17.1531Z" fill="#5F9AFA"/>
<path d="M20.2017 17.1531H16.8684V20.4863H20.2017V17.1531Z" fill="#5F9AFA"/>
<path d="M63.0467 14.308L49.7134 0.974609C49.4009 0.662109 48.977 0.486328 48.5351 0.486328H5.20166C2.44025 0.486328 0.20166 2.72492 0.20166 5.48633V75.4863C0.20166 78.2477 2.44025 80.4863 5.20166 80.4863H58.5349C61.2963 80.4863 63.5349 78.2477 63.5349 75.4863V15.4863C63.5349 15.0443 63.3593 14.6205 63.0467 14.308ZM60.2017 75.4863C60.2017 76.4068 59.4554 77.153 58.5349 77.153H5.20166C4.28119 77.153 3.53494 76.4068 3.53494 75.4863V5.48633C3.53494 4.56586 4.28119 3.81961 5.20166 3.81961H47.8449L60.2017 16.1763V75.4863Z" fill="#5F9AFA"/>
<path d="M51.8684 13.8196C50.9479 13.8196 50.2017 13.0733 50.2017 12.1529V2.15288H46.8684V12.1529C46.8684 14.9143 49.107 17.1529 51.8684 17.1529H55.2017V13.8196H51.8684Z" fill="#5F9AFA"/>
<path d="M53.5349 57.153H50.2017V60.4863H53.5349V57.153Z" fill="#5F9AFA"/>
<path d="M46.8684 57.153H43.5351V60.4863H46.8684V57.153Z" fill="#5F9AFA"/>
<path d="M36.8684 57.153H10.2017V60.4863H36.8684V57.153Z" fill="#5F9AFA"/>
<path d="M53.5349 65.4863H10.2017V68.8196H53.5349V65.4863Z" fill="#5F9AFA"/>
<path d="M50.2017 25.4863H13.5351C11.6942 25.4863 10.2018 26.9787 10.2018 28.8196V48.8196C10.2018 50.6605 11.6942 52.1529 13.5351 52.1529H50.2018C52.0428 52.1529 53.5351 50.6605 53.5351 48.8196V28.8196C53.5351 26.9787 52.0426 25.4863 50.2017 25.4863ZM50.2017 48.8196H13.5351V28.8196H50.2018L50.2017 48.8196Z" fill="#5F9AFA"/>
</svg>
