<svg width="86" height="81" viewBox="0 0 86 81" fill="none" xmlns="http://www.w3.org/2000/svg">
<path d="M66.552 0.650391H19.1848C8.92509 0.660874 0.610581 8.97538 0.600098 19.2351V51.8298C0.600098 52.6194 1.24008 53.2594 2.02969 53.2594H46.0611V79.2208C46.0611 80.0104 46.7011 80.6504 47.4907 80.6504C48.2803 80.6504 48.9203 80.0104 48.9203 79.2208V53.2594H83.7071C84.4967 53.2594 85.1367 52.6194 85.1367 51.8298V19.2351C85.1262 8.97538 76.8117 0.660874 66.552 0.650391ZM34.9103 50.4002H3.45928V19.2351C3.45928 10.5501 10.4998 3.50958 19.1848 3.50958C27.8698 3.50958 34.9103 10.5501 34.9103 19.2351V50.4002ZM82.2775 50.4002H37.7695V19.2351C37.7821 12.8191 34.4812 6.85149 29.0395 3.45239H66.552C75.2327 3.46288 82.267 10.4972 82.2775 19.1779V50.4002Z" fill="#5F9AFA"/>
<path opacity="0.4" d="M62.7396 7.83702H62.4346L44.3264 7.72266C43.5371 7.73505 42.9069 8.3848 42.9192 9.17441C42.9295 9.82964 43.3836 10.3938 44.0215 10.5437L43.9643 10.5056C49.8006 11.7884 53.4999 17.5504 52.2369 23.391C52.0684 24.1623 52.5571 24.9242 53.3286 25.0927C53.427 25.1141 53.5275 25.1253 53.6283 25.1256L71.7365 25.2399C72.4065 25.2375 72.985 24.7701 73.128 24.1153C74.736 16.7548 70.0927 9.47867 62.7396 7.83702ZM70.5166 22.3807L55.2676 22.2854C55.6534 17.8249 53.8392 13.4568 50.407 10.5818L62.2059 10.6581C67.5438 11.8992 71.1125 16.933 70.5166 22.3807Z" fill="#5F9AFA"/>
<path opacity="0.4" d="M27.5717 39.668H27.5527H8.66299C7.87338 39.668 7.2334 40.3079 7.2334 41.0976C7.2334 41.8872 7.87338 42.5272 8.66299 42.5272H27.5717C28.3613 42.5272 29.0013 41.8872 29.0013 41.0976C29.0013 40.3079 28.3613 39.668 27.5717 39.668Z" fill="#5F9AFA"/>
</svg>
