<svg width="84" height="81" viewBox="0 0 84 81" fill="none" xmlns="http://www.w3.org/2000/svg">
<path opacity="0.4" d="M44.6436 72.2207H41.8684V74.9959H44.6436V72.2207Z" fill="#5F9AFA"/>
<path opacity="0.4" d="M39.0932 72.2207H36.318V74.9959H39.0932V72.2207Z" fill="#5F9AFA"/>
<path d="M77.9457 38.9193H79.3333C79.7013 38.9193 80.0543 38.7731 80.3145 38.5129C80.5747 38.2527 80.7209 37.8998 80.7209 37.5317V29.2062C80.7209 28.8382 80.5747 28.4853 80.3145 28.225C80.0543 27.9648 79.7013 27.8186 79.3333 27.8186H66.845V16.7179H68.2326C68.6006 16.7179 68.9536 16.5717 69.2138 16.3115C69.474 16.0513 69.6202 15.6983 69.6202 15.3303V7.00478C69.6202 6.63677 69.474 6.28383 69.2138 6.0236C68.9536 5.76338 68.6006 5.61719 68.2326 5.61719H15.5042C15.1362 5.61719 14.7833 5.76338 14.523 6.0236C14.2628 6.28383 14.1166 6.63677 14.1166 7.00478V15.3303C14.1166 15.6983 14.2628 16.0513 14.523 16.3115C14.7833 16.5717 15.1362 16.7179 15.5042 16.7179H16.8918V50.02H4.40349C4.03548 50.02 3.68254 50.1662 3.42232 50.4265C3.16209 50.6867 3.0159 51.0396 3.0159 51.4076V59.7332C3.0159 60.1012 3.16209 60.4541 3.42232 60.7143C3.68254 60.9746 4.03548 61.1208 4.40349 61.1208H5.79108V77.7718H0.240723V80.547H83.4961V77.7718H77.9457V38.9193ZM77.9457 36.1442H62.6822V30.5938H77.9457V36.1442ZM51.5815 38.9193H59.9071V44.4697H51.5815V38.9193ZM51.5815 36.1442V30.5938H59.9071V36.1442H51.5815ZM33.5429 36.1442V30.5938H48.8064V36.1442H33.5429ZM66.845 13.9427H48.8064V8.39237H66.845V13.9427ZM37.7056 16.7179H46.0312V22.2683H37.7056V16.7179ZM37.7056 13.9427V8.39237H46.0312V13.9427H37.7056ZM16.8918 8.39237H34.9305V13.9427H16.8918V8.39237ZM19.667 16.7179H34.9305V23.6558C34.9305 24.0239 35.0766 24.3768 35.3369 24.637C35.5971 24.8972 35.95 25.0434 36.318 25.0434H47.4188C47.7868 25.0434 48.1397 24.8972 48.3999 24.637C48.6602 24.3768 48.8064 24.0239 48.8064 23.6558V16.7179H64.0698V27.8186H32.1553C31.7873 27.8186 31.4343 27.9648 31.1741 28.225C30.9139 28.4853 30.7677 28.8382 30.7677 29.2062V37.5317C30.7677 37.8998 30.9139 38.2527 31.1741 38.5129C31.4343 38.7731 31.7873 38.9193 32.1553 38.9193H33.5429V50.02H19.667V16.7179ZM34.9305 58.3456V52.7952H50.1939V58.3456H34.9305ZM23.8297 61.1208H32.1553V66.6711H23.8297V61.1208ZM23.8297 58.3456V52.7952H32.1553V58.3456H23.8297ZM5.79108 52.7952H21.0546V58.3456H5.79108V52.7952ZM8.56626 77.7718V61.1208H21.0546V68.0587C21.0546 68.4267 21.2008 68.7797 21.461 69.0399C21.7212 69.3001 22.0741 69.4463 22.4422 69.4463H33.5429C33.9109 69.4463 34.2638 69.3001 34.524 69.0399C34.7843 68.7797 34.9305 68.4267 34.9305 68.0587V61.1208H47.4188V77.7718H8.56626ZM50.1939 77.7718V61.1208H51.5815C51.9495 61.1208 52.3025 60.9746 52.5627 60.7143C52.8229 60.4541 52.9691 60.1012 52.9691 59.7332V51.4076C52.9691 51.0396 52.8229 50.6867 52.5627 50.4265C52.3025 50.1662 51.9495 50.02 51.5815 50.02H36.318V38.9193H48.8064V45.8573C48.8064 46.2253 48.9525 46.5782 49.2128 46.8385C49.473 47.0987 49.8259 47.2449 50.1939 47.2449H61.2947C61.6627 47.2449 62.0156 47.0987 62.2758 46.8385C62.5361 46.5782 62.6822 46.2253 62.6822 45.8573V38.9193H75.1705V77.7718H50.1939Z" fill="#5F9AFA"/>
<path opacity="0.4" d="M72.3954 72.2207H69.6202V74.9959H72.3954V72.2207Z" fill="#5F9AFA"/>
<path opacity="0.4" d="M66.845 72.2207H64.0698V74.9959H66.845V72.2207Z" fill="#5F9AFA"/>
<path opacity="0.4" d="M83.4961 47.2441H80.7209V68.058H83.4961V47.2441Z" fill="#5F9AFA"/>
<path opacity="0.4" d="M14.1166 20.8799H11.3414V43.0813H14.1166V20.8799Z" fill="#5F9AFA"/>
<path opacity="0.4" d="M59.9071 0.0664062H29.3801V2.84158H59.9071V0.0664062Z" fill="#5F9AFA"/>
<path opacity="0.4" d="M65.4574 0.0664062H62.6823V2.84158H65.4574V0.0664062Z" fill="#5F9AFA"/>
<path d="M21.0549 52.7979H23.8298V68.043H21.0549V52.7979Z" fill="#BFD7FD"/>
<path d="M32.1565 52.7979H34.9314V68.043H32.1565V52.7979Z" fill="#BFD7FD"/>
<path d="M22.4424 69.4435C21.6761 69.4435 21.0549 68.8223 21.0549 68.0561C21.0549 67.2898 21.6761 66.6687 22.4424 66.6687L33.5439 66.6687C34.3102 66.6687 34.9314 67.2898 34.9314 68.0561C34.9314 68.8223 34.3102 69.4435 33.5439 69.4435L22.4424 69.4435Z" fill="#BFD7FD"/>
<path d="M48.8058 30.5986H51.5806V45.8438H48.8058V30.5986Z" fill="#BFD7FD"/>
<path d="M59.9074 30.5986H62.6822V45.8438H59.9074V30.5986Z" fill="#BFD7FD"/>
<path d="M50.1932 47.2443C49.427 47.2443 48.8058 46.6231 48.8058 45.8569C48.8058 45.0906 49.427 44.4695 50.1932 44.4695L61.2948 44.4695C62.0611 44.4695 62.6822 45.0906 62.6822 45.8569C62.6822 46.6231 62.0611 47.2443 61.2948 47.2443L50.1932 47.2443Z" fill="#BFD7FD"/>
<path d="M34.9314 8.39941H37.7062V23.6446H34.9314V8.39941Z" fill="#BFD7FD"/>
<path d="M46.033 8.39941H48.8078V23.6446H46.033V8.39941Z" fill="#BFD7FD"/>
<path d="M36.3188 25.0451C35.5526 25.0451 34.9314 24.4239 34.9314 23.6577C34.9314 22.8914 35.5526 22.2702 36.3188 22.2702L47.4204 22.2702C48.1867 22.2702 48.8078 22.8914 48.8078 23.6577C48.8078 24.4239 48.1867 25.0451 47.4204 25.0451L36.3188 25.0451Z" fill="#BFD7FD"/>
<rect x="0.240723" y="77.7686" width="83.2554" height="2.77835" fill="#BFD7FD"/>
</svg>
