<svg width="72" height="81" viewBox="0 0 72 81" fill="none" xmlns="http://www.w3.org/2000/svg">
<path d="M70.0864 38.9845H58.522V2.1095C58.522 1.47762 58.1412 0.907778 57.5575 0.665903C56.9734 0.423871 56.3014 0.557934 55.8547 1.0045L51.4282 5.43075L47.0022 1.00465C46.392 0.394496 45.4026 0.394496 44.7923 1.00465L40.3661 5.4309L35.9403 1.00465C35.3301 0.394496 34.3407 0.394496 33.7304 1.00465L29.3042 5.4309L24.8778 1.00465C24.2676 0.394496 23.2782 0.394496 22.6681 1.00465L18.2418 5.4309L13.8159 1.00465C13.2057 0.394496 12.2164 0.394496 11.606 1.00465L7.17979 5.4309L2.75369 1.00465C2.14729 0.398246 1.16651 0.395121 0.554787 0.996059C0.233536 1.31184 0.0777549 1.73262 0.0885361 2.15059V72.4222C0.0885361 76.9022 3.73322 80.5469 8.21323 80.5469H63.522C63.5223 80.5469 63.5225 80.5469 63.5228 80.5469C63.5233 80.5469 63.5237 80.5469 63.5242 80.5469C68.0042 80.5469 71.6489 76.9022 71.6489 72.4222V40.5469C71.6489 39.6839 70.9493 38.9845 70.0864 38.9845ZM8.21323 77.4219C5.45619 77.4219 3.21338 75.1789 3.21338 72.422V5.88372L6.07494 8.74528C6.6851 9.35544 7.67448 9.35544 8.28479 8.74528L12.711 4.31903L17.1373 8.74528C17.7474 9.35544 18.7368 9.35544 19.3471 8.74528L23.7734 4.31903L28.1998 8.74528C28.81 9.35544 29.7993 9.35544 30.4095 8.74528L34.8357 4.31903L39.262 8.74528C39.8721 9.35544 40.8615 9.35544 41.4718 8.74528L45.8981 4.31903L50.3243 8.74528C50.9347 9.35544 51.924 9.35544 52.534 8.74528L55.3979 5.88153V40.5469C55.3979 40.5611 55.3997 40.575 55.4001 40.5892V72.422C55.4001 74.3067 56.047 76.042 57.1278 77.4219H8.21323ZM68.5239 72.422C68.5239 75.1789 66.2809 77.4219 63.524 77.4219C60.7672 77.4219 58.5242 75.1789 58.5242 72.422V42.1094H68.5239V72.422Z" fill="#5F9AFA"/>
<g opacity="0.4">
<path d="M29.3053 25.3679C27.7545 25.3679 26.4929 24.2876 26.4929 22.9599C26.4929 21.6321 27.7546 20.5518 29.3053 20.5518C30.856 20.5518 32.1176 21.6321 32.1176 22.9599C32.1176 23.8229 32.8171 24.5224 33.6801 24.5224C34.5431 24.5224 35.2426 23.8229 35.2426 22.9599C35.2426 20.4129 33.3857 18.2638 30.8678 17.6229V16.5645C30.8678 15.7015 30.1682 15.002 29.3053 15.002C28.4423 15.002 27.7428 15.7015 27.7428 16.5645V17.6229C25.2246 18.2638 23.3679 20.413 23.3679 22.9599C23.3679 26.0107 26.0315 28.4927 29.3053 28.4927C30.856 28.4927 32.1176 29.5731 32.1176 30.9009C32.1176 32.2287 30.856 33.3088 29.3053 33.3088C27.7545 33.3088 26.4929 32.2285 26.4929 30.9009C26.4929 30.0379 25.7934 29.3384 24.9304 29.3384C24.0675 29.3384 23.3679 30.0379 23.3679 30.9009C23.3679 33.4479 25.2248 35.597 27.7428 36.2379V37.5129C27.7428 38.3759 28.4423 39.0754 29.3053 39.0754C30.1682 39.0754 30.8678 38.3759 30.8678 37.5129V36.2379C33.3859 35.597 35.2426 33.4479 35.2426 30.9009C35.2426 27.8501 32.579 25.3679 29.3053 25.3679Z" fill="#5F9AFA"/>
</g>
<g opacity="0.4">
<path d="M45.0031 25.3672H41.9578C41.0948 25.3672 40.3953 26.0667 40.3953 26.9297C40.3953 27.7927 41.0948 28.4922 41.9578 28.4922H45.0031C45.866 28.4922 46.5656 27.7927 46.5656 26.9297C46.5656 26.0667 45.866 25.3672 45.0031 25.3672Z" fill="#5F9AFA"/>
</g>
<g opacity="0.4">
<path d="M16.6529 25.3672H13.6075C12.7446 25.3672 12.045 26.0667 12.045 26.9297C12.045 27.7927 12.7446 28.4922 13.6075 28.4922H16.6529C17.5158 28.4922 18.2154 27.7927 18.2154 26.9297C18.2154 26.0667 17.5158 25.3672 16.6529 25.3672Z" fill="#5F9AFA"/>
</g>
<g opacity="0.4">
<path d="M45.7935 42.7363H21.0399C20.1769 42.7363 19.4774 43.4359 19.4774 44.2988C19.4774 45.1618 20.1769 45.8613 21.0399 45.8613H45.7935C46.6565 45.8613 47.3561 45.1618 47.3561 44.2988C47.3559 43.4359 46.6565 42.7363 45.7935 42.7363Z" fill="#5F9AFA"/>
</g>
<g opacity="0.4">
<path d="M13.9213 43.1941C13.6307 42.9035 13.2276 42.7363 12.8167 42.7363C12.4057 42.7363 12.0026 42.9035 11.712 43.1941C11.4213 43.4848 11.2542 43.8879 11.2542 44.2988C11.2542 44.7098 11.4213 45.1129 11.712 45.4035C12.0026 45.6941 12.4057 45.8613 12.8167 45.8613C13.2276 45.8613 13.6307 45.6941 13.9213 45.4035C14.212 45.1129 14.3792 44.7098 14.3792 44.2988C14.3792 43.8879 14.212 43.4848 13.9213 43.1941Z" fill="#5F9AFA"/>
</g>
<g opacity="0.4">
<path d="M45.7935 53.0488H21.0399C20.1769 53.0488 19.4774 53.7484 19.4774 54.6113C19.4774 55.4743 20.1769 56.1738 21.0399 56.1738H45.7935C46.6565 56.1738 47.3561 55.4743 47.3561 54.6113C47.3559 53.7484 46.6565 53.0488 45.7935 53.0488Z" fill="#5F9AFA"/>
</g>
<g opacity="0.4">
<path d="M13.9213 53.5066C13.6307 53.216 13.2276 53.0488 12.8167 53.0488C12.4057 53.0488 12.0026 53.216 11.712 53.5066C11.4213 53.7973 11.2542 54.2004 11.2542 54.6113C11.2542 55.0223 11.4213 55.4254 11.712 55.716C12.0026 56.0066 12.4057 56.1738 12.8167 56.1738C13.2276 56.1738 13.6307 56.0066 13.9213 55.716C14.212 55.4254 14.3792 55.0223 14.3792 54.6113C14.3792 54.2004 14.212 53.7973 13.9213 53.5066Z" fill="#5F9AFA"/>
</g>
<g opacity="0.4">
<path d="M45.7935 63.3594H21.0399C20.1769 63.3594 19.4774 64.0589 19.4774 64.9219C19.4774 65.7848 20.1769 66.4844 21.0399 66.4844H45.7935C46.6565 66.4844 47.3561 65.7848 47.3561 64.9219C47.3561 64.0589 46.6565 63.3594 45.7935 63.3594Z" fill="#5F9AFA"/>
</g>
<g opacity="0.4">
<path d="M13.9213 63.8172C13.6307 63.5266 13.2276 63.3594 12.8167 63.3594C12.4057 63.3594 12.0026 63.5266 11.712 63.8172C11.4213 64.1078 11.2542 64.5109 11.2542 64.9219C11.2542 65.3328 11.4213 65.7359 11.712 66.0266C12.0026 66.3172 12.4057 66.4844 12.8167 66.4844C13.2276 66.4844 13.6307 66.3172 13.9213 66.0266C14.212 65.7359 14.3792 65.3328 14.3792 64.9219C14.3792 64.5109 14.212 64.1078 13.9213 63.8172Z" fill="#5F9AFA"/>
</g>
</svg>
