<svg width="88" height="81" viewBox="0 0 88 81" fill="none" xmlns="http://www.w3.org/2000/svg">
<path opacity="0.4" d="M14.815 33.6007H33.6997C34.5031 33.6007 35.1524 32.9499 35.1524 32.148C35.1524 31.3461 34.5031 30.6953 33.6997 30.6953H14.815C14.0117 30.6953 13.3624 31.3461 13.3624 32.148C13.3624 32.9499 14.0117 33.6007 14.815 33.6007Z" fill="#5F9AFA"/>
<path opacity="0.4" d="M52.5845 39.4111H14.815C14.0117 39.4111 13.3624 40.0619 13.3624 40.8638C13.3624 41.6657 14.0117 42.3165 14.815 42.3165H52.5845C53.3878 42.3165 54.0371 41.6657 54.0371 40.8638C54.0371 40.0619 53.3878 39.4111 52.5845 39.4111Z" fill="#5F9AFA"/>
<path opacity="0.4" d="M52.5845 48.1279H14.815C14.0117 48.1279 13.3624 48.7787 13.3624 49.5806C13.3624 50.3825 14.0117 51.0333 14.815 51.0333H52.5845C53.3878 51.0333 54.0371 50.3825 54.0371 49.5806C54.0371 48.7787 53.3878 48.1279 52.5845 48.1279Z" fill="#5F9AFA"/>
<path d="M78.8371 0.29114L29.24 0.189453C24.4898 0.189453 20.6257 4.05356 20.6257 8.80379V16.2473L8.90266 16.272C4.15243 16.272 0.28833 20.1361 0.28833 24.8863V55.5972C0.28833 60.3474 4.15243 64.2101 8.90266 64.2101H17.7204V78.7368C17.7204 79.3367 18.0894 79.8757 18.6501 80.0921C18.82 80.1575 18.9973 80.1895 19.173 80.1895C19.574 80.1895 19.9677 80.0224 20.248 79.7144L34.3447 64.2072L58.4968 64.1084C63.2471 64.1084 67.1112 60.2443 67.1112 55.4955V55.3314L74.7522 63.7365C75.0326 64.0445 75.4262 64.2115 75.8272 64.2115C76.003 64.2115 76.1802 64.1796 76.3501 64.1142C76.9109 63.8978 77.2799 63.3588 77.2799 62.7589V48.2322H78.8342C83.5844 48.2322 87.4485 44.3681 87.4485 39.6193V8.90547C87.4485 4.1567 83.5859 0.292593 78.8371 0.29114ZM64.2058 55.4941C64.2058 58.642 61.6448 61.2016 58.491 61.2016L33.6939 61.3033C33.2872 61.3047 32.8979 61.4776 32.6248 61.7783L20.6257 74.9787V62.756C20.6257 61.9541 19.9764 61.3033 19.173 61.3033H8.90266C5.75473 61.3033 3.19367 58.7422 3.19367 55.5957V24.8848C3.19367 21.7369 5.75473 19.1759 8.90557 19.1759L22.0784 19.1483C22.0798 19.1483 22.0798 19.1483 22.0813 19.1483L58.4968 19.0727C61.6448 19.0727 64.2058 21.6338 64.2058 24.7817V51.5704V55.4941ZM84.5432 39.6164C84.5432 42.7643 81.9821 45.3239 78.8342 45.3239H75.8272C75.0239 45.3239 74.3745 45.9747 74.3745 46.7766V58.9994L67.1112 51.0097V24.7832C67.1112 20.0329 63.2471 16.1688 58.4939 16.1688L23.5311 16.24V8.80233C23.5311 5.6544 26.0921 3.09334 29.2371 3.09334L78.8328 3.19503C78.8342 3.19503 78.8342 3.19503 78.8357 3.19503C81.9836 3.19503 84.5447 5.75608 84.5447 8.90402V39.6164H84.5432Z" fill="#5F9AFA"/>
</svg>
