<svg width="61" height="81" viewBox="0 0 61 81" fill="none" xmlns="http://www.w3.org/2000/svg">
<path d="M60.6828 78.1431L50.1361 55.8336C49.9256 55.3885 49.5609 55.0474 49.1236 54.8613L43.8767 52.5255L52.9681 37.2883C52.9898 37.2517 53.0103 37.2147 53.0298 37.1769C54.8373 33.6489 55.7539 29.8366 55.7539 25.8464C55.7539 19.1341 53.1217 12.8413 48.3422 8.12737C43.5634 3.41456 37.2325 0.869096 30.5161 0.963471C23.9929 1.05394 17.8511 3.67409 13.2215 8.34159C8.59248 13.0088 6.02186 19.1717 5.98311 25.6957C5.95936 29.6824 6.90139 33.6524 8.7067 37.1767C8.72608 37.2144 8.74655 37.2516 8.76826 37.2881L17.8595 52.5252L12.5823 54.8738C12.1506 55.0658 11.8022 55.4063 11.6003 55.8335L1.05389 78.1431C0.700924 78.8892 0.84983 79.7764 1.42702 80.3666C2.00405 80.9567 2.88717 81.1258 3.64139 80.7902L16.8536 74.908L30.0658 80.7902C30.5768 81.0175 31.1604 81.0175 31.6715 80.7902L44.8837 74.908L58.0959 80.7902C58.354 80.905 58.6273 80.9609 58.8982 80.9609C59.4187 80.9609 59.9307 80.755 60.3103 80.3667C60.887 79.7764 61.0357 78.8895 60.6828 78.1431ZM12.1923 35.3213C10.672 32.3319 9.91123 29.1017 9.93139 25.7192C9.99826 14.4022 19.2573 5.06769 30.5711 4.91097C36.222 4.83503 41.5497 6.97331 45.57 10.9385C49.5915 14.9046 51.8061 20.1989 51.8061 25.8466C51.8061 29.1839 51.0453 32.3711 49.5447 35.3213L32.5637 63.7819C32.0453 64.6506 31.2056 64.7444 30.8686 64.7444C30.5314 64.7444 29.6917 64.6506 29.1734 63.7819L12.1923 35.3213ZM45.6862 70.9439C45.1751 70.7166 44.5915 70.7166 44.0804 70.9439L30.8683 76.8261L17.6561 70.9439C17.145 70.7166 16.5614 70.7166 16.0503 70.9439L6.89748 75.0189L14.8565 58.1831L19.8969 55.94L25.7825 65.8045C26.8612 67.6127 28.7625 68.6922 30.8679 68.6922C32.9734 68.6922 34.8747 67.6127 35.9534 65.8047L41.839 55.9402L46.8798 58.1841L54.8384 75.0191L45.6862 70.9439Z" fill="#5F9AFA"/>
<path opacity="0.4" d="M30.8691 16.8359C25.9013 16.8359 21.8599 20.8773 21.8599 25.845C21.8599 30.8126 25.9013 34.854 30.8691 34.854C35.8367 34.8542 39.8781 30.8126 39.8781 25.845C39.8781 20.8773 35.8367 16.8359 30.8691 16.8359ZM30.8691 30.9062C28.0783 30.9064 25.8077 28.6361 25.8077 25.845C25.8077 23.0542 28.0781 20.7837 30.8691 20.7837C33.6599 20.7837 35.9303 23.0542 35.9303 25.845C35.9303 28.6358 33.6599 30.9062 30.8691 30.9062Z" fill="#5F9AFA"/>
</svg>
