<svg width="74" height="81" viewBox="0 0 74 81" fill="none" xmlns="http://www.w3.org/2000/svg">
<path d="M10.5967 0.443359C4.82951 0.443359 0.138428 5.13444 0.138428 10.9016C0.138428 16.6688 4.82951 21.3599 10.5967 21.3599C16.3638 21.3599 21.0549 16.6688 21.0549 10.9016C21.0549 5.13444 16.347 0.443359 10.5967 0.443359ZM10.5967 17.3245C7.04894 17.3245 4.17377 14.4493 4.17377 10.9016C4.17377 7.35387 7.04894 4.4787 10.5967 4.4787C14.1444 4.4787 17.0196 7.35387 17.0196 10.9016C17.0196 14.4493 14.1276 17.3245 10.5967 17.3245Z" fill="#5F9AFA"/>
<path opacity="0.4" d="M15.624 44.4276C14.9347 45.3019 15.0692 46.563 15.9435 47.2692C16.3134 47.5718 16.7506 47.7063 17.2045 47.7063C17.793 47.7063 18.3815 47.4541 18.7851 46.9497C19.4744 46.0754 19.3399 44.8143 18.4656 44.1082C17.5745 43.402 16.3134 43.5533 15.624 44.4276Z" fill="#5F9AFA"/>
<path opacity="0.4" d="M6.02341 31.0273C5.03139 31.5149 4.61105 32.7255 5.09865 33.7175C5.45174 34.4405 6.15792 34.8609 6.91455 34.8609C7.2172 34.8609 7.50304 34.7936 7.80569 34.6591C8.81452 34.1715 9.21806 32.9609 8.73045 31.9689C8.24285 30.96 7.03225 30.5397 6.02341 31.0273Z" fill="#5F9AFA"/>
<path opacity="0.4" d="M2.81179 36.6107C1.71889 36.3585 0.642795 37.0478 0.390587 38.1239C0.138378 39.2168 0.827749 40.2929 1.90384 40.5451C2.05516 40.5787 2.20649 40.5956 2.35782 40.5956C3.28258 40.5956 4.10646 39.9566 4.32504 39.0319C4.57725 37.939 3.88788 36.8629 2.81179 36.6107Z" fill="#5F9AFA"/>
<path opacity="0.4" d="M2.74452 44.1245C1.8702 44.8139 1.73569 46.0918 2.42506 46.9661C2.82859 47.4705 3.41708 47.7227 4.00557 47.7227C4.44273 47.7227 4.8967 47.5714 5.26661 47.2856C6.14093 46.5962 6.27544 45.3183 5.58607 44.444C4.87989 43.5697 3.60203 43.4352 2.74452 44.1245Z" fill="#5F9AFA"/>
<path opacity="0.4" d="M18.8019 40.5613C18.9532 40.5613 19.1046 40.5445 19.2559 40.5108C20.3488 40.2586 21.0214 39.1825 20.7692 38.0896C20.5169 36.9967 19.424 36.3242 18.3479 36.5764C17.2718 36.8286 16.5825 37.9215 16.8347 38.9976C17.0701 39.9224 17.894 40.5613 18.8019 40.5613Z" fill="#5F9AFA"/>
<path opacity="0.4" d="M15.1027 31.0117C14.0939 30.5241 12.8833 30.9444 12.4125 31.9532C11.9249 32.9621 12.3452 34.1559 13.3541 34.6435C13.6399 34.778 13.9257 34.8452 14.2284 34.8452C14.985 34.8452 15.708 34.4249 16.0443 33.7019C16.5319 32.7099 16.1115 31.4993 15.1027 31.0117Z" fill="#5F9AFA"/>
<path opacity="0.4" d="M10.6135 46.8672C10.5967 46.8672 10.5967 46.8672 10.5799 46.8672C10.0418 46.8672 9.52059 47.0858 9.15068 47.4557C8.78078 47.8256 8.56219 48.3468 8.56219 48.8849C8.56219 49.4229 8.78078 49.9441 9.15068 50.314C9.52059 50.6839 10.0418 50.9025 10.5799 50.9025H10.5967H10.6135C11.7232 50.9025 12.6312 49.9946 12.6312 48.8849C12.6312 47.7583 11.7232 46.8672 10.6135 46.8672Z" fill="#5F9AFA"/>
<path d="M10.5967 59.5273C4.82951 59.5273 0.138428 64.2184 0.138428 69.9856C0.138428 75.7528 4.82951 80.4438 10.5967 80.4438C16.3638 80.4438 21.0549 75.7528 21.0549 69.9856C21.0549 64.2184 16.347 59.5273 10.5967 59.5273ZM10.5967 76.4085C7.04894 76.4085 4.17377 73.5333 4.17377 69.9856C4.17377 66.4379 7.04894 63.5627 10.5967 63.5627C14.1444 63.5627 17.0196 66.4379 17.0196 69.9856C17.0196 73.5333 14.1276 76.4085 10.5967 76.4085Z" fill="#5F9AFA"/>
<path d="M31.3954 12.381H71.5806C72.6904 12.381 73.5983 11.4731 73.5983 10.3634C73.5983 9.25365 72.6904 8.3457 71.5806 8.3457H31.3954C30.2857 8.3457 29.3777 9.25365 29.3777 10.3634C29.3777 11.4731 30.2689 12.381 31.3954 12.381Z" fill="#5F9AFA"/>
<path opacity="0.4" d="M30.8406 42.4611C31.3786 42.4611 31.8999 42.2425 32.2698 41.8726C32.6397 41.5027 32.8583 40.9815 32.8583 40.4434C32.8583 39.9054 32.6397 39.3842 32.2698 39.0143C31.8999 38.6444 31.3786 38.4258 30.8406 38.4258C30.3026 38.4258 29.7813 38.6444 29.4114 39.0143C29.0415 39.3842 28.8229 39.9054 28.8229 40.4434C28.8229 40.9815 29.0415 41.5027 29.4114 41.8726C29.7981 42.2425 30.3194 42.4611 30.8406 42.4611Z" fill="#5F9AFA"/>
<path opacity="0.4" d="M36.86 40.4434C36.86 41.5532 37.7679 42.4611 38.8777 42.4611C39.9874 42.4611 40.8953 41.5532 40.8953 40.4434C40.8953 39.3337 39.9874 38.4258 38.8777 38.4258C37.7679 38.4258 36.86 39.3337 36.86 40.4434Z" fill="#5F9AFA"/>
<path opacity="0.4" d="M44.897 40.4434C44.897 41.5532 45.805 42.4611 46.9147 42.4611C48.0244 42.4611 48.9324 41.5532 48.9324 40.4434C48.9324 39.3337 48.0244 38.4258 46.9147 38.4258C45.805 38.4258 44.897 39.3337 44.897 40.4434Z" fill="#5F9AFA"/>
<path opacity="0.4" d="M52.9342 40.4434C52.9342 41.5532 53.8422 42.4611 54.9519 42.4611C56.0616 42.4611 56.9695 41.5532 56.9695 40.4434C56.9695 39.3337 56.0616 38.4258 54.9519 38.4258C53.8422 38.4258 52.9342 39.3337 52.9342 40.4434Z" fill="#5F9AFA"/>
<path opacity="0.4" d="M60.9711 40.4434C60.9711 41.5532 61.8791 42.4611 62.9888 42.4611C64.0985 42.4611 65.0065 41.5532 65.0065 40.4434C65.0065 39.3337 64.0985 38.4258 62.9888 38.4258C61.8791 38.4258 60.9711 39.3337 60.9711 40.4434Z" fill="#5F9AFA"/>
<path opacity="0.4" d="M71.0257 38.4258C70.4877 38.4258 69.9664 38.6444 69.5965 39.0143C69.2266 39.3842 69.0081 39.9054 69.0081 40.4434C69.0081 40.9815 69.2266 41.5027 69.5965 41.8726C69.9664 42.2425 70.4877 42.4611 71.0257 42.4611C71.5638 42.4611 72.085 42.2425 72.4549 41.8726C72.8248 41.5027 73.0434 40.9815 73.0434 40.4434C73.0434 39.9054 72.8248 39.3842 72.4549 39.0143C72.085 38.6444 71.5638 38.4258 71.0257 38.4258Z" fill="#5F9AFA"/>
<path d="M71.0258 67.9688H30.8406C29.7309 67.9688 28.8229 68.8767 28.8229 69.9864C28.8229 71.0961 29.7309 72.0041 30.8406 72.0041H71.0258C72.1356 72.0041 73.0435 71.0961 73.0435 69.9864C73.0435 68.8767 72.1356 67.9688 71.0258 67.9688Z" fill="#5F9AFA"/>
</svg>
