<svg width="68" height="81" viewBox="0 0 68 81" fill="none" xmlns="http://www.w3.org/2000/svg">
<path d="M66.6549 57.1684L29.9888 27.1689C29.4888 26.7622 28.8021 26.6789 28.2221 26.9556C27.6389 27.2323 27.2689 27.8189 27.2689 28.4623V78.4615C27.2689 79.1947 27.7521 79.8447 28.4521 80.0582C28.6121 80.1049 28.7754 80.1282 28.9354 80.1282C29.4821 80.1282 30.0054 79.8582 30.3221 79.3849L43.1618 60.1283H65.6014C66.3047 60.1283 66.9314 59.6851 67.1681 59.0184C67.4081 58.3551 67.2014 57.6151 66.6549 57.1684ZM42.2686 56.7951C41.7119 56.7951 41.1919 57.0718 40.8819 57.5351L30.6021 72.9548V31.9788L60.9348 56.7951H42.2686Z" fill="#5F9AFA"/>
<path opacity="0.4" d="M28.9355 0.12793C28.0156 0.12793 27.2689 0.874635 27.2689 1.79462V15.1277C27.2689 16.0476 28.0156 16.7944 28.9355 16.7944C29.8555 16.7944 30.6021 16.0476 30.6021 15.1277V1.79462C30.6021 0.874635 29.8555 0.12793 28.9355 0.12793Z" fill="#5F9AFA"/>
<path opacity="0.4" d="M15.6025 26.7939H2.26941C1.34943 26.7939 0.602722 27.5406 0.602722 28.4606C0.602722 29.3806 1.34943 30.1272 2.26941 30.1272H15.6025C16.5224 30.1272 17.2691 29.3805 17.2691 28.4605C17.2691 27.5405 16.5224 26.7939 15.6025 26.7939Z" fill="#5F9AFA"/>
<path opacity="0.4" d="M55.6018 26.7939H42.2687C41.3488 26.7939 40.6021 27.5406 40.6021 28.4606C40.6021 29.3806 41.3488 30.1272 42.2687 30.1272H55.6018C56.5218 30.1272 57.2685 29.3805 57.2685 28.4605C57.2685 27.5405 56.5218 26.7939 55.6018 26.7939Z" fill="#5F9AFA"/>
<path opacity="0.4" d="M20.6858 17.8545L11.2559 8.42792C10.6059 7.77793 9.54922 7.77793 8.89924 8.42792C8.24925 9.07791 8.24925 10.1346 8.89924 10.7846L18.3291 20.2111C18.6558 20.5344 19.0823 20.6979 19.5091 20.6979C19.9358 20.6979 20.3623 20.5379 20.6858 20.2111C21.3357 19.561 21.3357 18.5045 20.6858 17.8545Z" fill="#5F9AFA"/>
<path opacity="0.4" d="M20.6858 36.7121C20.0358 36.0621 18.9791 36.0621 18.3291 36.7121L8.89924 46.1387C8.24925 46.7886 8.24925 47.8454 8.89924 48.4953C9.22595 48.8186 9.6525 48.982 10.0792 48.982C10.5059 48.982 10.9325 48.8188 11.2559 48.4921L20.6858 39.0689C21.3357 38.4186 21.3357 37.3621 20.6858 36.7121Z" fill="#5F9AFA"/>
<path opacity="0.4" d="M48.9687 8.42792C48.3187 7.77793 47.262 7.77793 46.612 8.42792L37.1822 17.8545C36.5322 18.5045 36.5322 19.5612 37.1822 20.2111C37.5089 20.5344 37.9355 20.6979 38.3622 20.6979C38.7889 20.6979 39.2154 20.5379 39.5389 20.2111L48.9687 10.7846C49.6187 10.1346 49.6187 9.07791 48.9687 8.42792Z" fill="#5F9AFA"/>
</svg>
