<svg width="81" height="81" viewBox="0 0 81 81" fill="none" xmlns="http://www.w3.org/2000/svg">
<g clip-path="url(#clip0)">
<path d="M79.2034 38.7791C78.2806 38.7791 77.5334 39.5248 77.5334 40.4453C77.5334 45.3966 76.5665 50.1987 74.655 54.7178C72.8068 59.0831 70.1653 63.0039 66.7961 66.3731C63.4268 69.7423 59.5061 72.3839 55.1408 74.232C50.6217 76.1436 45.8195 77.1105 40.8683 77.1105C35.917 77.1105 31.1148 76.1436 26.597 74.232C22.2317 72.3839 18.3097 69.7423 14.9404 66.3731C11.5725 63.0041 8.92841 59.0831 7.08153 54.7178C5.17106 50.1987 4.20185 45.3966 4.20185 40.4453C4.20185 35.4941 5.17106 30.6919 7.08153 26.1741C8.92841 21.8077 11.5725 17.8867 14.9404 14.5175C18.3095 11.1495 22.2317 8.50547 26.597 6.65859C31.1148 4.74703 35.917 3.77891 40.8683 3.77891C45.8195 3.77891 50.6217 4.74687 55.1408 6.65859C59.1789 8.36766 62.8409 10.7614 66.0343 13.7789H59.9162C58.9983 13.7789 58.2512 14.5247 58.2512 15.4452C58.2512 16.3656 58.9983 17.1114 59.9162 17.1114H69.9162C70.839 17.1114 71.5862 16.3656 71.5862 15.4452V5.44531C71.5862 4.52484 70.8392 3.77906 69.9162 3.77906C68.9983 3.77906 68.2512 4.52484 68.2512 5.44531V11.2888C61.0931 4.56391 51.464 0.445312 40.8684 0.445312C18.7773 0.445312 0.868408 18.3542 0.868408 40.4453C0.868408 62.5352 18.7773 80.4453 40.8684 80.4453C62.9583 80.4453 80.8684 62.5352 80.8684 40.4453C80.8684 39.5248 80.1214 38.7791 79.2034 38.7791Z" fill="#5F9AFA"/>
<path opacity="0.4" d="M17.5346 23.7793V37.1118V50.4455H64.2034V37.1118V23.7793H17.5346ZM60.8684 37.1118V47.1105H20.8684V37.1118V27.1118H60.8684V37.1118Z" fill="#5F9AFA"/>
<path d="M40.8391 28.6738C36.2358 28.6738 32.5053 32.4055 32.5053 37.0076C32.5053 41.6096 36.2359 45.3426 40.8391 45.3426C45.4411 45.3426 49.1716 41.6096 49.1716 37.0076C49.1716 32.4055 45.4411 28.6738 40.8391 28.6738ZM40.8391 42.0076C38.0816 42.0076 35.8391 39.764 35.8391 37.0076C35.8391 34.2501 38.0816 32.0076 40.8391 32.0076C43.5955 32.0076 45.8391 34.2501 45.8391 37.0076C45.8391 39.764 43.5955 42.0076 40.8391 42.0076Z" fill="#5F9AFA"/>
<path opacity="0.4" d="M62.5334 52.1104H19.2021C18.2816 52.1104 17.5346 52.8574 17.5346 53.7803C17.5346 54.6983 18.2816 55.4454 19.2021 55.4454H62.5334C63.4562 55.4454 64.2034 54.6983 64.2034 53.7803C64.2034 52.8575 63.4562 52.1104 62.5334 52.1104Z" fill="#5F9AFA"/>
<path opacity="0.4" d="M62.5334 57.1104H19.2021C18.2816 57.1104 17.5346 57.8574 17.5346 58.7803C17.5346 59.6983 18.2816 60.4454 19.2021 60.4454H62.5334C63.4562 60.4454 64.2034 59.6983 64.2034 58.7803C64.2034 57.8575 63.4562 57.1104 62.5334 57.1104Z" fill="#5F9AFA"/>
</g>
<defs>
<clipPath id="clip0">
<rect width="80" height="80" fill="white" transform="translate(0.868408 0.445312)"/>
</clipPath>
</defs>
</svg>
