<svg width="81" height="81" viewBox="0 0 81 81" fill="none" xmlns="http://www.w3.org/2000/svg">
<path d="M76.8818 0.5H4.88184C3.82097 0.5 2.80355 0.921427 2.05341 1.67157C1.30326 2.42172 0.881836 3.43913 0.881836 4.5V76.5C0.881836 77.5609 1.30326 78.5783 2.05341 79.3284C2.80355 80.0786 3.82097 80.5 4.88184 80.5H76.8818C77.9427 80.5 78.9601 80.0786 79.7103 79.3284C80.4604 78.5783 80.8818 77.5609 80.8818 76.5V4.5C80.8818 3.43913 80.4604 2.42172 79.7103 1.67157C78.9601 0.921427 77.9427 0.5 76.8818 0.5ZM78.2152 76.5C78.2152 76.8536 78.0747 77.1928 77.8246 77.4428C77.5746 77.6929 77.2355 77.8333 76.8818 77.8333H4.88184C4.52821 77.8333 4.18908 77.6929 3.93903 77.4428C3.68898 77.1928 3.5485 76.8536 3.5485 76.5V13.8333H78.2152V76.5ZM3.5485 11.1667V4.5C3.5485 4.14638 3.68898 3.80724 3.93903 3.55719C4.18908 3.30714 4.52821 3.16667 4.88184 3.16667H76.8818C77.2355 3.16667 77.5746 3.30714 77.8246 3.55719C78.0747 3.80724 78.2152 4.14638 78.2152 4.5V11.1667H3.5485Z" fill="#5F9AFA"/>
<path opacity="0.4" d="M6.60175 6.21963C6.35616 6.47387 6.21772 6.81281 6.21509 7.16629C6.21719 7.34053 6.25343 7.51267 6.32175 7.67296C6.38295 7.83777 6.47838 7.98773 6.60175 8.11296C6.85283 8.36403 7.19335 8.50508 7.54842 8.50508C7.90349 8.50508 8.24402 8.36403 8.49509 8.11296C8.74616 7.86189 8.88721 7.52136 8.88721 7.16629C8.88721 6.81123 8.74616 6.4707 8.49509 6.21963C8.23724 5.98171 7.89926 5.84961 7.54842 5.84961C7.19758 5.84961 6.8596 5.98171 6.60175 6.21963Z" fill="#5F9AFA"/>
<path opacity="0.4" d="M11.9353 6.21864C11.6918 6.4743 11.5538 6.81234 11.5486 7.16531C11.5509 7.25473 11.5598 7.34387 11.5753 7.43197C11.5898 7.51552 11.6167 7.59642 11.6553 7.67197C11.6844 7.75696 11.7247 7.83767 11.7753 7.91197C11.8245 7.98183 11.8779 8.04862 11.9353 8.11197C12.188 8.35986 12.5279 8.49871 12.8819 8.49871C13.2359 8.49871 13.5758 8.35986 13.8286 8.11197L13.9886 7.91197C14.0391 7.83767 14.0794 7.75696 14.1086 7.67197C14.1471 7.59642 14.1741 7.51552 14.1886 7.43197C14.2041 7.34387 14.213 7.25473 14.2153 7.16531C14.2168 6.90047 14.1394 6.64118 13.993 6.42049C13.8466 6.1998 13.6378 6.0277 13.3932 5.92615C13.1486 5.82459 12.8793 5.79817 12.6197 5.85027C12.36 5.90236 12.1217 6.0306 11.9353 6.21864Z" fill="#5F9AFA"/>
<path opacity="0.4" d="M17.2685 6.21963C17.0206 6.47238 16.8817 6.81228 16.8817 7.16629C16.8817 7.52031 17.0206 7.86021 17.2685 8.11296C17.3928 8.23728 17.5404 8.33589 17.7028 8.40317C17.8652 8.47045 18.0393 8.50508 18.2151 8.50508C18.3909 8.50508 18.565 8.47045 18.7275 8.40317C18.8899 8.33589 19.0375 8.23728 19.1618 8.11296C19.2861 7.98864 19.3847 7.84106 19.452 7.67863C19.5193 7.5162 19.5539 7.34211 19.5539 7.16629C19.5539 6.99048 19.5193 6.81639 19.452 6.65396C19.3847 6.49153 19.2861 6.34395 19.1618 6.21963C18.9039 5.98171 18.566 5.84961 18.2151 5.84961C17.8643 5.84961 17.5263 5.98171 17.2685 6.21963Z" fill="#5F9AFA"/>
<path opacity="0.4" d="M75.5484 16.5H6.21509V35.1667H75.5484V16.5ZM72.8818 32.5H8.88175V19.1667H72.8818V32.5Z" fill="#5F9AFA"/>
<path opacity="0.4" d="M30.2151 37.832H6.21509V75.1654H30.2151V37.832ZM27.5484 72.4987H8.88175V40.4987H27.5484V72.4987Z" fill="#5F9AFA"/>
<path opacity="0.4" d="M32.8818 55.1654H75.5485V37.832H32.8818V55.1654ZM35.5485 40.4987H72.8818V52.4987H35.5485V40.4987Z" fill="#5F9AFA"/>
<path opacity="0.4" d="M32.8818 75.1654H75.5485V57.832H32.8818V75.1654ZM35.5485 60.4987H72.8818V72.4987H35.5485V60.4987Z" fill="#5F9AFA"/>
</svg>
