<svg width="91" height="81" viewBox="0 0 91 81" fill="none" xmlns="http://www.w3.org/2000/svg">
<path d="M85.3475 0.339844H6.38966C3.40048 0.339844 0.968506 2.77181 0.968506 5.761V60.2758C0.968506 63.265 3.40048 65.697 6.38966 65.697H33.4455V69.6415C33.4455 73.2576 30.5035 76.1996 26.8874 76.1996H20.9247C19.7815 76.1996 18.8545 77.1263 18.8545 78.2697C18.8545 79.4131 19.7815 80.3398 20.9247 80.3398H70.8121C71.9553 80.3398 72.8823 79.4131 72.8823 78.2697C72.8823 77.1263 71.9553 76.1996 70.8121 76.1996H64.8492C61.2332 76.1996 58.2912 73.2576 58.2912 69.6415V65.6972H85.347C88.3362 65.6972 90.7683 63.2652 90.7683 60.276V5.761C90.7686 2.77181 88.3367 0.339844 85.3475 0.339844ZM35.3311 76.1999C36.7423 74.3871 37.5861 72.1119 37.5861 69.6419V65.6973H54.1512V69.6419C54.1512 72.1119 54.995 74.3872 56.4062 76.1999H35.3311ZM86.6284 60.276C86.6284 60.9823 86.0538 61.5571 85.3473 61.5571H6.38966C5.68336 61.5571 5.10861 60.9825 5.10861 60.276V49.396H86.6284V60.276ZM86.6284 45.2555H5.10878V5.761C5.10878 5.0547 5.68336 4.47995 6.38984 4.47995H85.3473C86.0536 4.47995 86.6285 5.05453 86.6285 5.761V45.2555H86.6284Z" fill="#5F9AFA"/>
<path opacity="0.4" d="M45.8691 57.7085C47.103 57.7085 48.1032 56.7082 48.1032 55.4744C48.1032 54.2405 47.103 53.2402 45.8691 53.2402C44.6353 53.2402 43.635 54.2405 43.635 55.4744C43.635 56.7082 44.6353 57.7085 45.8691 57.7085Z" fill="#5F9AFA"/>
<path opacity="0.4" d="M49.4183 14.6024C48.6097 13.794 47.2994 13.794 46.4905 14.6024L31.8604 29.2324C31.0521 30.0408 31.0521 31.3517 31.8604 32.1602C32.2649 32.5645 32.7944 32.7665 33.3244 32.7665C33.8545 32.7665 34.384 32.5645 34.7882 32.1602L49.4183 17.5302C50.2267 16.7218 50.2267 15.4109 49.4183 14.6024Z" fill="#5F9AFA"/>
<path opacity="0.4" d="M58.0894 23.0809C57.2812 22.2725 55.9709 22.2725 55.1618 23.0807L49.3336 28.9086C48.5252 29.7172 48.5252 31.0281 49.3336 31.8364C49.7379 32.2407 50.2675 32.4428 50.7974 32.4428C51.3271 32.4428 51.8569 32.2407 52.2612 31.8364L58.0894 26.0085C58.8978 25.2002 58.8978 23.8893 58.0894 23.0809Z" fill="#5F9AFA"/>
</svg>
