<svg width="81" height="81" viewBox="0 0 81 81" fill="none" xmlns="http://www.w3.org/2000/svg">
<g clip-path="url(#clip0)">
<path opacity="0.4" d="M61.6295 8.15015C62.3301 8.15015 62.898 7.58226 62.898 6.88172C62.898 6.18118 62.3301 5.61328 61.6295 5.61328C60.929 5.61328 60.3611 6.18118 60.3611 6.88172C60.3611 7.58226 60.929 8.15015 61.6295 8.15015Z" fill="#5F9AFA"/>
<path opacity="0.4" d="M67.7106 8.15015C68.4112 8.15015 68.9791 7.58226 68.9791 6.88172C68.9791 6.18118 68.4112 5.61328 67.7106 5.61328C67.0101 5.61328 66.4422 6.18118 66.4422 6.88172C66.4422 7.58226 67.0101 8.15015 67.7106 8.15015Z" fill="#5F9AFA"/>
<path opacity="0.4" d="M73.7917 8.15015C74.4922 8.15015 75.0601 7.58226 75.0601 6.88172C75.0601 6.18118 74.4922 5.61328 73.7917 5.61328C73.0912 5.61328 72.5233 6.18118 72.5233 6.88172C72.5233 7.58226 73.0912 8.15015 73.7917 8.15015Z" fill="#5F9AFA"/>
<path opacity="0.4" d="M43.1586 5.70996H18.5333C17.8861 5.70996 17.3614 6.23449 17.3614 6.88184C17.3614 7.52918 17.8861 8.05371 18.5333 8.05371H43.1586C43.8058 8.05371 44.3305 7.52918 44.3305 6.88184C44.3305 6.23449 43.8058 5.70996 43.1586 5.70996Z" fill="#5F9AFA"/>
<path opacity="0.4" d="M55.3003 33.8305C55.007 32.9282 54.2045 32.3272 53.2561 32.2996L49.532 32.1914L48.2783 28.6829C47.9589 27.7893 47.1392 27.2119 46.1904 27.2119C45.2415 27.2119 44.422 27.7894 44.1026 28.683L42.8489 32.1914L39.125 32.2996C38.1764 32.3272 37.3739 32.928 37.0808 33.8304C36.7873 34.7327 37.0831 35.6905 37.8345 36.2708L40.7839 38.5475L39.7361 42.1225C39.5375 42.7996 39.665 43.5103 40.0861 44.0727C40.5045 44.6316 41.1695 44.9652 41.8647 44.9652C42.3104 44.9652 42.7425 44.831 43.114 44.5772L46.1906 42.4758L49.2667 44.5769C49.6382 44.831 50.0706 44.9652 50.5167 44.9652C51.212 44.9652 51.8768 44.6314 52.2951 44.0727C52.7162 43.5103 52.8439 42.7997 52.6453 42.1228L51.5975 38.5475L54.5473 36.2705C55.2979 35.6905 55.5936 34.7327 55.3003 33.8305ZM49.5314 37.1816C49.1493 37.4766 48.9872 37.9755 49.1229 38.4388L50.2962 42.4422L46.8512 40.0891C46.652 39.953 46.4212 39.8849 46.1903 39.8849C45.9595 39.8849 45.7286 39.953 45.5293 40.0891L42.0843 42.4421L43.2578 38.4388C43.3936 37.9755 43.2314 37.4766 42.8493 37.1816L39.5467 34.6322L43.7168 34.5111C44.1993 34.4971 44.6239 34.1886 44.7864 33.7341L46.1903 29.8054L47.5942 33.7339C47.7567 34.1885 48.1811 34.4971 48.6637 34.5111L52.8339 34.6322L49.5314 37.1816Z" fill="#5F9AFA"/>
<path opacity="0.4" d="M75.552 33.8305C75.2587 32.9282 74.4562 32.3272 73.5078 32.2996L69.7838 32.1914L68.53 28.6829C68.2106 27.7893 67.3911 27.2119 66.4422 27.2119C65.4933 27.2119 64.6738 27.7894 64.3544 28.683L63.1006 32.1914L59.3767 32.2996C58.428 32.3272 57.6255 32.928 57.3322 33.8307C57.0391 34.7332 57.335 35.691 58.0861 36.2708L61.0355 38.5475L59.9877 42.1225C59.7891 42.7996 59.9166 43.5103 60.3375 44.0725C60.7559 44.6314 61.4209 44.9652 62.1163 44.9652C62.562 44.9652 62.9942 44.831 63.3658 44.5772L66.4423 42.4758L69.5186 44.5769C69.8902 44.831 70.3225 44.9652 70.7686 44.9652C71.4637 44.9652 72.1286 44.6314 72.547 44.0727C72.9681 43.5103 73.0958 42.7997 72.8972 42.1228L71.8492 38.5475L74.7986 36.2708C75.5495 35.691 75.8455 34.7332 75.552 33.8305ZM69.7831 37.1816C69.4011 37.4766 69.2389 37.9755 69.3747 38.4388L70.5481 42.4422L67.1031 40.0891C66.7045 39.8169 66.1798 39.8169 65.7812 40.0891L62.3363 42.4422L63.5097 38.4388C63.6455 37.9755 63.4833 37.4766 63.1013 37.1816L59.7988 34.6322L63.9689 34.5111C64.4514 34.4971 64.8759 34.1886 65.0384 33.7341L66.4423 29.8054L67.8462 33.7339C68.0087 34.1885 68.4331 34.4971 68.9158 34.5111L73.0858 34.6322L69.7831 37.1816Z" fill="#5F9AFA"/>
<path d="M77.1734 0.693359H15.2073C13.1717 0.693359 11.5154 2.34961 11.5154 4.38523V38.3791C11.5154 39.0265 12.0401 39.551 12.6873 39.551C13.3345 39.551 13.8592 39.0265 13.8592 38.3791V13.0705H78.5214V66.3512C78.5214 67.0946 77.9167 67.6993 77.1734 67.6993H31.7911C31.1439 67.6993 30.6192 68.2238 30.6192 68.8712C30.6192 69.5185 31.1439 70.043 31.7911 70.043H77.1732C79.2089 70.043 80.865 68.3868 80.865 66.3512V4.38523C80.8651 2.34961 79.209 0.693359 77.1734 0.693359ZM13.8592 10.7268V4.38523C13.8592 3.6418 14.464 3.03711 15.2073 3.03711H77.1734C77.9167 3.03711 78.5214 3.6418 78.5214 4.38523V10.7268H13.8592Z" fill="#5F9AFA"/>
<path d="M31.3375 66.1777L36.8569 60.1927C37.4229 59.5791 37.7161 58.7819 37.6822 57.9478C37.6484 57.1138 37.2919 56.3428 36.6783 55.7767L35.7603 54.9302C35.4434 54.6378 35.0775 54.4184 34.6828 54.2791C34.7315 54.0363 34.7514 53.7861 34.7412 53.5325C34.7075 52.6984 34.3509 51.9275 33.7375 51.3617L32.8194 50.5147C32.46 50.1833 32.0429 49.9522 31.6034 49.8205C31.7231 48.8536 31.3915 47.8447 30.6223 47.1352L29.7044 46.2886C29.5079 46.1075 29.2928 45.9542 29.0636 45.8308L30.0273 44.7858C30.3011 44.9033 30.5956 44.9645 30.8964 44.9645C31.5914 44.9645 32.2561 44.6309 32.675 44.0719C33.0958 43.5097 33.2234 42.7991 33.025 42.122L32.8945 41.6767L34.7829 39.6291C35.8067 38.5189 36.0312 36.9517 35.4858 35.6411C35.8037 35.1067 35.8833 34.4548 35.6801 33.8295C35.3869 32.9272 34.5844 32.3262 33.6359 32.2986L29.9119 32.1905L28.6581 28.6819C28.3387 27.7883 27.5192 27.2109 26.5703 27.2109C25.6214 27.2109 24.8019 27.7884 24.4825 28.682L23.2287 32.1905L19.5048 32.2986C18.5561 32.3262 17.7536 32.927 17.4604 33.8297C17.1673 34.7322 17.4633 35.69 18.2144 36.2698L21.1637 38.5466L20.1159 42.1216C19.9173 42.7984 20.0448 43.5092 20.4659 44.0717C20.4687 44.0755 20.4715 44.0792 20.4744 44.0828L15.7795 49.1734L15.2895 45.0266C15.1619 43.9472 14.5698 42.9827 13.665 42.3802C12.7601 41.7777 11.6417 41.6034 10.5967 41.9023C9.02451 42.3516 7.92092 43.8073 7.91279 45.4425L7.83795 60.4742C7.83748 60.5772 7.8506 60.6798 7.87685 60.7795C7.88779 60.8211 7.87701 60.8647 7.84795 60.8961L6.51982 62.3363C5.59967 61.9416 4.48826 62.1403 3.76842 62.9102L1.53014 65.3041C1.08248 65.7828 0.849198 66.4075 0.873417 67.0625C0.897636 67.7177 1.17639 68.3233 1.65842 68.768L13.8876 80.0461C14.3423 80.4656 14.9261 80.6933 15.5412 80.6933C15.5748 80.6933 15.6086 80.6927 15.6423 80.6913C16.2942 80.6648 16.8969 80.3863 17.339 79.9067L19.5603 77.4981C20.0026 77.0188 20.2317 76.3955 20.2053 75.7436C20.1876 75.3058 20.0561 74.8902 19.8262 74.5303L21.4509 72.7688C21.4601 72.7588 21.4711 72.7503 21.4831 72.7438L26.1754 70.197C28.1092 69.1469 29.8461 67.7947 31.3375 66.1777ZM23.2292 37.1808L19.9267 34.6314L24.0967 34.5103C24.5792 34.4962 25.0037 34.1878 25.1662 33.7333L26.5703 29.8045L27.9742 33.7331C28.1367 34.1877 28.5611 34.4962 29.0437 34.5103L29.2964 34.5177C29.2878 34.5269 29.279 34.5361 29.2704 34.5455L22.6862 41.6848L23.6378 38.4381C23.7734 37.9747 23.6112 37.4756 23.2292 37.1808ZM17.8375 75.9089L15.6161 78.3175C15.6092 78.325 15.5883 78.3477 15.5475 78.3492C15.5078 78.3534 15.484 78.3302 15.4765 78.3231L3.24732 67.045C3.23982 67.0381 3.21701 67.017 3.21545 66.9759C3.21389 66.9348 3.23514 66.9122 3.24201 66.9048L5.47998 64.5116C5.49935 64.4908 5.5256 64.4805 5.55201 64.4805C5.57607 64.4805 5.60014 64.4891 5.61904 64.5066L5.87982 64.747C5.88185 64.7489 5.88373 64.7508 5.88576 64.7527C5.88779 64.7545 5.88982 64.7563 5.89185 64.7581L17.4239 75.3934C17.4261 75.3955 17.4281 75.3975 17.4303 75.3995C17.4326 75.4016 17.4348 75.4036 17.4372 75.4058L17.8315 75.7695C17.839 75.7764 17.8617 75.7973 17.8633 75.8383C17.8651 75.8787 17.8444 75.9014 17.8375 75.9089ZM25.0573 68.1369L20.3648 70.6838C20.1261 70.8133 19.9119 70.9802 19.7279 71.1797L18.1579 72.882L8.33639 63.8242L9.57076 62.4858C10.1048 61.9066 10.3272 61.1217 10.1822 60.3558L10.2564 45.4548C10.2594 44.8552 10.664 44.3213 11.2406 44.1564C11.6298 44.0453 12.0294 44.1075 12.3661 44.3317C12.7028 44.5559 12.9144 44.9006 12.9619 45.3022L13.7508 51.978C13.8045 52.4323 14.1178 52.8141 14.5529 52.9552C14.9879 53.0966 15.4659 52.9714 15.7759 52.635L30.9934 36.1344C31.2479 35.8583 31.5948 35.698 31.97 35.6827C32.344 35.6673 32.7036 35.7992 32.9797 36.0539C33.0172 36.0884 33.0522 36.1245 33.085 36.162C33.0926 36.1727 33.1003 36.1831 33.1084 36.1934C33.1253 36.2153 33.1429 36.2366 33.1611 36.2569C33.55 36.7878 33.5226 37.5386 33.0601 38.0402L30.7347 40.5617C30.727 40.5697 30.7197 40.5778 30.7123 40.5861L28.974 42.4709C28.9665 42.4787 28.9592 42.4867 28.952 42.4948L25.2953 46.4598C25.2929 46.4623 25.2908 46.4647 25.2884 46.4673L25.0092 46.7702V46.7703C24.5704 47.2461 24.6004 47.9873 25.0762 48.4263C25.552 48.865 26.2934 48.8348 26.7322 48.3592L27.0148 48.0527C27.1561 47.9014 27.3473 47.8136 27.5544 47.8052C27.7631 47.7991 27.9622 47.87 28.1156 48.0116L29.0336 48.8581C29.3503 49.1503 29.3703 49.6455 29.0783 49.9622L28.4065 50.6905C28.4056 50.6916 28.4048 50.6925 28.4039 50.6934V50.6936C27.9651 51.1694 27.9951 51.9106 28.4709 52.3495C28.9467 52.7881 29.6881 52.7581 30.1269 52.2825C30.4189 51.9659 30.9142 51.9459 31.2308 52.2377L32.149 53.0847C32.3023 53.2261 32.3915 53.4189 32.4 53.6273C32.4084 53.8358 32.3351 54.0352 32.1936 54.1886L31.1061 55.3678C30.6673 55.8436 30.6972 56.5848 31.1729 57.0238C31.6486 57.4625 32.39 57.4328 32.8287 56.957L33.0679 56.6978C33.2094 56.5445 33.4022 56.4553 33.6106 56.4469C33.8189 56.4414 34.0184 56.5117 34.1719 56.6533L35.09 57.5C35.2434 57.6414 35.3325 57.8342 35.3409 58.0428C35.3494 58.2513 35.2761 58.4505 35.1345 58.6039L29.615 64.5889C28.2978 66.0163 26.7645 67.2102 25.0573 68.1369Z" fill="#5F9AFA"/>
</g>
<defs>
<clipPath id="clip0">
<rect width="80" height="80" fill="white" transform="translate(0.868408 0.693359)"/>
</clipPath>
</defs>
</svg>
