<svg width="76" height="81" viewBox="0 0 76 81" fill="none" xmlns="http://www.w3.org/2000/svg">
<path d="M71.0459 0.546875H4.68665C2.30566 0.546875 0.368408 2.48352 0.368408 4.86328V76.2262C0.368408 78.6084 2.30566 80.5469 4.68665 80.5469H71.0459C73.4293 80.5469 75.3684 78.6084 75.3684 76.2262V4.86328C75.3684 2.48352 73.4293 0.546875 71.0459 0.546875V0.546875ZM71.0459 78.2031H4.68665C3.59778 78.2031 2.71216 77.3163 2.71216 76.2262V14.2517H21.5775C22.2251 14.2517 22.7494 13.7268 22.7494 13.0798C22.7494 12.4323 22.2251 11.908 21.5775 11.908H2.71216V4.86328C2.71216 3.77563 3.59778 2.89062 4.68665 2.89062H71.0459C72.1372 2.89062 73.0247 3.77563 73.0247 4.86328V11.908H27.0719C26.4249 11.908 25.9 12.4323 25.9 13.0798C25.9 13.7268 26.4249 14.2517 27.0719 14.2517H73.0247V76.2262C73.0247 77.3163 72.1372 78.2031 71.0459 78.2031Z" fill="#5F9AFA"/>
<path d="M27.9129 43.6866C27.9514 43.7275 27.9935 43.7666 28.038 43.8014C28.4671 44.1932 28.9194 44.5643 29.3979 44.908C31.9242 46.7177 34.8959 47.6741 37.9923 47.6741C41.6129 47.6741 45.079 46.3362 47.7475 43.9943C47.8116 43.9485 47.8702 43.8966 47.9227 43.8398C48.6862 43.1477 49.382 42.3719 49.9936 41.5205C52.2916 38.318 53.2047 34.413 52.5644 30.5244C51.9247 26.6359 49.808 23.2289 46.6043 20.9321C44.0805 19.1224 41.1093 18.166 38.0124 18.166C33.2614 18.166 28.7741 20.4664 26.0092 24.3196C23.7113 27.5215 22.7982 31.4265 23.4384 35.3157C23.9731 38.5658 25.5423 41.4766 27.9129 43.6866ZM30.7633 43.0031C30.5271 42.8334 30.3 42.6539 30.0778 42.4702C31.0965 39.2128 34.5346 38.2814 36.2686 38.0177C36.7911 38.1587 37.3355 38.2368 37.8916 38.2399H37.9398C38.4836 38.2399 39.0353 38.1617 39.5761 38.0122C42.7268 38.4871 44.9765 40.1771 45.7468 42.6149C43.569 44.3495 40.8371 45.3303 37.9923 45.3303C35.3885 45.3303 32.8891 44.5253 30.7633 43.0031ZM35.9952 30.9095C36.6934 31.4143 37.6279 31.6182 38.9694 31.6182H41.8826V32.3951C41.8826 33.4382 41.2576 34.4777 40.2127 35.1753C39.5035 35.6471 38.685 35.9028 37.908 35.8961C37.5113 35.8943 37.1195 35.8284 36.7447 35.7112C36.7233 35.7039 36.702 35.6959 36.68 35.6898C35.1462 35.1844 33.9206 33.8179 33.9206 32.3951V31.7518C34.7525 31.7085 35.4617 31.4155 35.9952 30.9095ZM33.9261 29.4044C34.047 27.0997 36.0086 25.8955 37.9465 25.8955C39.0433 25.8955 40.0302 26.2849 40.726 26.9917C41.2882 27.5618 41.6525 28.3387 41.8039 29.2744H38.9694C37.3343 29.2744 37.2183 29.012 36.9083 28.3113C36.7014 27.8444 36.2161 27.5648 35.7089 27.6204C35.2011 27.6759 34.7879 28.0537 34.6878 28.5548C34.5773 29.106 34.3692 29.3495 33.9261 29.4044ZM27.9129 25.6862C30.2396 22.4452 34.0146 20.5098 38.0124 20.5098C40.6168 20.5098 43.1155 21.3148 45.239 22.837C47.933 24.7688 49.7134 27.6344 50.2518 30.9053C50.7901 34.1761 50.0217 37.4604 48.0893 40.1539C47.9196 40.3901 47.7414 40.6184 47.5577 40.8406C46.5836 38.8148 44.7958 37.2438 42.4643 36.3539C43.5825 35.2644 44.2264 33.849 44.2264 32.3951V30.4463C44.2264 30.4445 44.2264 30.4432 44.2264 30.4414C44.2532 28.3516 43.6209 26.5907 42.3959 25.3468C41.2558 24.1896 39.6756 23.5524 37.9465 23.5524C34.8581 23.5524 31.5763 25.6825 31.5763 29.6315V32.3951C31.5763 33.885 32.2611 35.2888 33.345 36.3484C31.0105 37.2059 29.2533 38.6995 28.2889 40.6538C26.9791 39.015 26.1008 37.0619 25.7504 34.9348C25.2127 31.6639 25.9806 28.3796 27.9129 25.6862Z" fill="#5F9AFA"/>
<path opacity="0.4" d="M9.63184 5.875H9.59644C8.94885 5.875 8.42456 6.3999 8.42456 7.04688C8.42456 7.69385 8.94885 8.21875 9.59644 8.21875H9.63184C10.2788 8.21875 10.8037 7.69385 10.8037 7.04688C10.8037 6.3999 10.2788 5.875 9.63184 5.875Z" fill="#5F9AFA"/>
<path opacity="0.4" d="M15.2946 5.875H15.2634C14.6165 5.875 14.0916 6.3999 14.0916 7.04688C14.0916 7.69385 14.6165 8.21875 15.2634 8.21875H15.2946C15.9415 8.21875 16.4664 7.69385 16.4664 7.04688C16.4664 6.3999 15.9415 5.875 15.2946 5.875Z" fill="#5F9AFA"/>
<path opacity="0.4" d="M20.9617 5.90234H20.9263C20.2787 5.90234 19.7544 6.42725 19.7544 7.07422C19.7544 7.7218 20.2787 8.24609 20.9263 8.24609H20.9617C21.6086 8.24609 22.1335 7.7218 22.1335 7.07422C22.1335 6.42725 21.6086 5.90234 20.9617 5.90234Z" fill="#5F9AFA"/>
<path opacity="0.4" d="M31.4104 8.56836H53.4685C54.1155 8.56836 54.6404 8.04407 54.6404 7.39648C54.6404 6.74951 54.1155 6.22461 53.4685 6.22461H31.4104C30.7628 6.22461 30.2385 6.74951 30.2385 7.39648C30.2385 8.04407 30.7628 8.56836 31.4104 8.56836Z" fill="#5F9AFA"/>
<path opacity="0.4" d="M55.3024 52.0488H20.0002C18.4817 52.0488 17.2463 53.2817 17.2463 54.7972V57.5927C17.2463 59.1082 18.4817 60.3411 20.0002 60.3411H55.3024C56.8209 60.3411 58.0563 59.1082 58.0563 57.5927V54.7972C58.0563 53.2817 56.8209 52.0488 55.3024 52.0488ZM55.7125 57.5927C55.7125 57.8118 55.5245 57.9973 55.3024 57.9973H20.0002C19.7781 57.9973 19.5901 57.8118 19.5901 57.5927V54.7972C19.5901 54.5781 19.7781 54.3926 20.0002 54.3926H55.3024C55.5245 54.3926 55.7125 54.5781 55.7125 54.7972V57.5927Z" fill="#5F9AFA"/>
<path opacity="0.4" d="M54.766 63.9062H19.4596C17.9435 63.9062 16.71 65.1398 16.71 66.6553V69.4501C16.71 70.9656 17.9435 72.1985 19.4596 72.1985H54.7666C56.2845 72.1985 57.5199 70.9656 57.5199 69.4501V66.6553C57.5199 65.1398 56.2845 63.9062 54.766 63.9062ZM55.1761 69.4501C55.1761 69.6698 54.9888 69.8547 54.7666 69.8547H19.4596C19.2399 69.8547 19.0537 69.6698 19.0537 69.4501V66.6553C19.0537 66.4355 19.2399 66.25 19.4596 66.25H54.7666C54.9888 66.25 55.1761 66.4355 55.1761 66.6553V69.4501Z" fill="#5F9AFA"/>
</svg>
