<svg width="81" height="81" viewBox="0 0 81 81" fill="none" xmlns="http://www.w3.org/2000/svg">
<g clip-path="url(#clip0)">
<path d="M73.5351 61.8197V1.81966C73.5351 1.01966 73.0018 0.486328 72.2018 0.486328H9.53512C8.73512 0.486328 8.20178 1.01966 8.20178 1.81966V79.153C8.20178 79.953 8.73512 80.4863 9.53512 80.4863H54.8685C55.2685 80.4863 55.5351 80.353 55.8018 80.0863L73.1351 62.753C73.2685 62.6197 73.2685 62.4863 73.4018 62.353V62.2197C73.5351 62.0863 73.5351 61.953 73.5351 61.8197ZM10.8684 3.15299H70.8685V60.4863H54.8685C54.0685 60.4863 53.5351 61.0197 53.5351 61.8197V77.8197H10.8684V3.15299ZM56.2018 75.953V63.153H69.0018L62.6018 69.553L56.2018 75.953Z" fill="#5F9AFA"/>
<path d="M21.5351 19.1534C21.9351 19.1534 22.2018 19.02 22.4685 18.7534L30.4685 10.7534L28.6018 8.88672L21.5351 15.9534L18.4685 12.8867L16.6018 14.7534L20.6018 18.7534C20.8685 19.02 21.1351 19.1534 21.5351 19.1534Z" fill="#5F9AFA"/>
<path opacity="0.4" d="M48.2017 9.81934H34.8684V12.486H48.2017V9.81934Z" fill="#5F9AFA"/>
<path opacity="0.4" d="M64.2017 16.4863H34.8684V19.153H64.2017V16.4863Z" fill="#5F9AFA"/>
<path opacity="0.4" d="M21.5351 36.4864C21.9351 36.4864 22.2018 36.3531 22.4685 36.0864L30.4685 28.0864L28.6018 26.2197L21.5351 33.2864L18.4685 30.2197L16.6018 32.0864L20.6018 36.0864C20.8685 36.3531 21.1351 36.4864 21.5351 36.4864Z" fill="#5F9AFA"/>
<path opacity="0.4" d="M48.2017 27.1533H34.8684V29.82H48.2017V27.1533Z" fill="#5F9AFA"/>
<path opacity="0.4" d="M64.2017 33.8193H34.8684V36.486H64.2017V33.8193Z" fill="#5F9AFA"/>
<path opacity="0.4" d="M48.2017 44.4863H34.8684V47.153H48.2017V44.4863Z" fill="#5F9AFA"/>
<path opacity="0.4" d="M64.2017 51.1533H34.8684V53.82H64.2017V51.1533Z" fill="#5F9AFA"/>
<path opacity="0.4" d="M32.2018 61.8193H17.5352V64.486H32.2018V61.8193Z" fill="#5F9AFA"/>
<path opacity="0.4" d="M44.2018 68.4863H17.5352V71.153H44.2018V68.4863Z" fill="#5F9AFA"/>
</g>
<defs>
<clipPath id="clip0">
<rect width="80" height="80" fill="white" transform="translate(0.868408 0.486328)"/>
</clipPath>
</defs>
</svg>
